SplineFontDB: 3.0
FontName: Norasi-Bold
FullName: Norasi Bold
FamilyName: Norasi
Weight: Bold
Copyright: Copyright (C) 1999, The National Font Project (v.beta). Yannis Haralambous, Virach Sornlertlamvanich and Anutara Tantraporn. All rights reserved.\n\nModified under GNU General Public License, with creators' permission, by Thai Linux Working Group (TLWG).
Version: 004.009: 2008-05-16
ItalicAngle: 0
UnderlinePosition: -100
UnderlineWidth: 50
Ascent: 800
Descent: 200
LayerCount: 2
Layer: 0 0 "Back" 
Layer: 1 0 "Fore" 
NeedsXUIDChange: 1
FSType: 0
OS2Version: 0
OS2_WeightWidthSlopeOnly: 0
OS2_UseTypoMetrics: 0
CreationTime: 1153665578
ModificationTime: 1210989929
PfmFamily: 17
TTFWeight: 700
TTFWidth: 5
LineGap: 0
VLineGap: 0
Panose: 2 7 8 6 6 0 0 2 0 4
OS2TypoAscent: 0
OS2TypoAOffset: 1
OS2TypoDescent: 0
OS2TypoDOffset: 1
OS2TypoLinegap: 0
OS2WinAscent: 1216
OS2WinAOffset: 0
OS2WinDescent: 488
OS2WinDOffset: 0
HheadAscent: 1216
HheadAOffset: 0
HheadDescent: -488
HheadDOffset: 0
OS2Vendor: 'PfEd'
Lookup: 4 0 1 "'liga' Standard Ligatures lookup 2"  {"'liga' Standard Ligatures lookup 2 subtable"  } ['liga' ('DFLT' <'dflt' > ) ]
Lookup: 4 0 1 "'liga' Standard Ligatures in Latin lookup 3"  {"'liga' Standard Ligatures in Latin lookup 3 subtable"  } ['liga' ('latn' <'dflt' > ) ]
Lookup: 4 0 0 "'frac' Diagonal Fractions lookup 4"  {"'frac' Diagonal Fractions lookup 4 subtable"  } ['frac' ('DFLT' <'dflt' > ) ]
Lookup: 6 0 0 "'ccmp' Thai General Composition"  {"'ccmp' Thai Below Vowel Tone Reordering"  "'ccmp' Thai General Composition"  } ['ccmp' ('DFLT' <'dflt' > 'thai' <'KUY ' 'PAL ' 'THA ' 'dflt' > ) ]
Lookup: 6 0 0 "'ccmp' Thai Conditional Descender Removal"  {"'ccmp' Thai Conditional Descender Removal"  } ['ccmp' ('DFLT' <'dflt' > 'thai' <'KUY ' 'PAL ' 'THA ' 'dflt' > ) ]
Lookup: 5 0 0 "Required Thai Descender Removal"  {"Required Thai Descender Removal"  } [' RQD' ('thai' <'PAL ' > ) ]

StartChar: .notdef
Encoding: 0 0 0
Width: 366
Flags: W
HStem: 0 22<22 344> 542 22<22 344>
VStem: 0 22<22 542> 344 22<22 542>
LayerCount: 2
Fore
SplineSet
22 542 m 1
 22 22 l 1
 344 22 l 1
 344 542 l 1
 22 542 l 1
366 0 m 1
 0 0 l 1
 0 564 l 1
 366 564 l 1
 366 0 l 1
EndSplineSet
EndChar

StartChar: exclam
Encoding: 33 33 2
Width: 332
Flags: W
HStem: -13 170<111.188 220.812> 671 20G<138.5 193>
VStem: 82 168<14.032 126.836 494.707 664>
LayerCount: 2
Back
SplineSet
146.624 52.9277 m 0
 146.624 36.4766 140.901 22.1719 129.457 10.7285 c 0
 118.729 0 105.14 -5.72168 90.835 -5.72168 c 0
 55.7881 -5.72168 37.9072 13.5898 37.9072 52.9277 c 0
 37.9072 90.1191 55.0732 111.576 89.4043 117.299 c 1
 125.166 117.299 144.478 95.8418 146.624 52.9277 c 0
143.762 585.776 m 1
 142.332 549.3 l 1
 105.14 170.226 l 1
 74.3848 170.226 l 1
 67.9473 248.901 62.2256 316.133 57.2188 371.207 c 0
 52.2119 426.28 47.9209 474.916 43.6289 515.685 c 0
 42.1992 527.127 40.7686 538.572 40.0527 549.3 c 0
 40.0527 560.028 39.3379 570.757 37.9072 581.486 c 0
 37.9072 643.711 55.0732 675.182 89.4043 675.182 c 0
 125.166 675.182 143.762 647.288 143.762 590.068 c 2
 143.762 585.776 l 1
EndSplineSet
Fore
SplineSet
166 157 m 0
 212 157 250 117 250 70 c 0
 250 23 212 -13 166 -13 c 0
 119 -13 82 23 82 72 c 0
 82 117 120 157 166 157 c 0
250 589 m 0
 250 512.337 209.079 509.129 180 234 c 1
 151 234 l 1
 123.58 493.44 81 517.082 81 590 c 0
 81 653 111 691 166 691 c 0
 220 691 250 653 250 589 c 0
EndSplineSet
EndChar

StartChar: quotedbl
Encoding: 34 34 3
Width: 553
Flags: W
HStem: 404 287<127 168 387 428>
VStem: 83 389<602 662 620 624 620 620> 83 129<592.834 674.232> 343 129<594.848 673.944>
LayerCount: 2
Back
SplineSet
298.969 570.042 m 1
 268.212 384.081 l 1
 225.3 384.081 l 1
 218.861 424.85 213.14 457.75 208.849 482.783 c 0
 204.557 507.816 200.98 527.127 198.835 540.718 c 0
 195.975 554.307 194.543 563.605 193.828 570.042 c 0
 193.828 575.763 193.113 580.77 193.113 584.347 c 0
 193.113 617.963 210.994 634.412 246.041 634.412 c 0
 280.371 634.412 297.537 617.963 298.969 584.347 c 1
 298.969 570.042 l 1
143.762 570.042 m 1
 111.576 384.081 l 1
 70.0928 384.081 l 1
 63.6562 424.85 57.9336 457.75 53.6426 482.783 c 0
 49.3516 507.816 45.7754 527.127 42.9141 540.718 c 0
 40.7686 554.307 39.3379 563.605 38.623 570.042 c 0
 38.623 575.763 37.9072 580.77 37.9072 584.347 c 0
 37.9072 617.963 55.7881 634.412 90.835 634.412 c 0
 125.166 634.412 142.332 617.963 143.762 584.347 c 1
 143.762 570.042 l 1
EndSplineSet
Fore
SplineSet
127 404 m 1xa0
 106 495 83 585 83 620 c 0xc0
 83 664 108 691 146 691 c 0
 185 691 212 662 212 624 c 0
 212 602 202 551 168 404 c 1
 127 404 l 1xa0
428 404 m 1
 387 404 l 1
 369 478 343 583 343 620 c 0x90
 343 664 369 691 407 691 c 0
 444 691 472 662 472 624 c 0
 472 602 458 538 428 404 c 1
EndSplineSet
EndChar

StartChar: numbersign
Encoding: 35 35 4
Width: 499
Flags: MW
HStem: 0 21G<70 151.871 262 342.775> 209 74<4 100 189 291 379 467> 417 74<34 129 217 319 409 497>
LayerCount: 2
Back
SplineSet
215.286 286.81 m 1
 314.703 286.81 l 1
 329.724 389.803 l 1
 231.735 389.803 l 1
 215.286 286.81 l 1
512.823 389.803 m 1
 414.836 389.803 l 1
 396.955 286.81 l 1
 489.22 286.81 l 1
 489.22 208.134 l 1
 385.512 208.134 l 1
 357.618 0 l 1
 273.936 0 l 1
 301.829 208.134 l 1
 203.842 208.134 l 1
 173.087 0 l 1
 90.835 0 l 1
 118.729 208.134 l 1
 20.7422 208.134 l 1
 20.7422 286.81 l 1
 133.033 286.81 l 1
 148.053 389.803 l 1
 47.2051 389.803 l 1
 47.2051 468.479 l 1
 160.928 468.479 l 1
 190.253 662.307 l 1
 271.074 662.307 l 1
 243.181 468.479 l 1
 341.167 468.479 l 1
 369.061 662.307 l 1
 451.312 662.307 l 1
 423.418 468.479 l 1
 512.823 468.479 l 1
 512.823 389.803 l 1
EndSplineSet
Fore
SplineSet
467 283 m 1
 467 209 l 1
 369 209 l 1
 340 0 l 1
 262 0 l 1
 291 209 l 1
 179 209 l 1
 149 0 l 1
 70 0 l 1
 100 209 l 1
 4 209 l 1
 4 283 l 1
 111 283 l 1
 129 417 l 1
 34 417 l 1
 34 491 l 1
 139 491 l 1
 168 700 l 1
 246 700 l 1
 217 491 l 1
 330 491 l 1
 360 700 l 1
 437 700 l 1
 409 491 l 1
 497 491 l 1
 497 417 l 1
 398 417 l 1
 379 283 l 1
 467 283 l 1
319 417 m 1
 207 417 l 1
 189 283 l 1
 302 283 l 1
 319 417 l 1
EndSplineSet
EndChar

StartChar: dollar
Encoding: 36 36 5
Width: 499
Flags: W
HStem: 0 29<270 342.833> 645 27<160.247 212 270 320.562>
VStem: 29 96<450.812 580.266> 214 56<-100 0 29 250 454 642 674 750> 362 110<99.2323 258.583>
LayerCount: 2
Back
SplineSet
212.426 444.161 m 1
 212.426 628.69 l 1
 164.504 616.531 140.901 587.208 140.901 540.718 c 0
 140.901 529.988 142.332 519.26 146.624 508.531 c 0
 150.199 497.804 155.921 489.936 162.358 484.93 c 2
 212.426 444.161 l 1
356.187 162.358 m 0
 356.187 190.968 346.888 216.001 328.292 237.457 c 0
 323.286 241.034 316.85 246.041 308.266 252.478 c 0
 299.684 258.915 288.239 267.497 273.936 278.226 c 1
 273.936 57.2188 l 1
 328.292 70.0928 356.187 105.14 356.187 162.358 c 0
458.465 185.961 m 0
 458.465 84.3975 396.955 23.6025 273.936 2.86133 c 1
 273.936 -83.6826 l 1
 213.854 -83.6826 l 1
 213.854 0 l 1
 152.345 2.86133 92.9805 22.1719 35.0469 57.2188 c 1
 35.0469 206.702 l 1
 74.3848 206.702 l 1
 95.126 110.861 141.616 60.0801 213.854 54.3574 c 1
 213.854 311.843 l 1
 188.821 328.292 165.934 343.312 147.338 356.901 c 0
 128.027 369.775 112.292 382.649 99.418 394.094 c 0
 61.5098 432.002 42.1992 474.916 42.1992 521.406 c 0
 42.1992 572.188 62.2256 612.956 100.848 642.996 c 0
 118.014 655.87 135.18 665.169 153.06 672.319 c 0
 170.94 679.473 191.683 683.765 213.854 685.194 c 1
 213.854 748.85 l 1
 273.936 748.85 l 1
 273.936 682.333 l 1
 341.167 670.891 l 2
 356.901 668.029 374.067 660.877 391.948 649.433 c 0
 409.829 638.704 421.988 627.976 427.71 617.963 c 1
 427.71 496.372 l 1
 388.373 496.372 l 1
 373.353 574.333 335.445 619.394 273.936 630.122 c 1
 273.936 408.399 l 1
 354.757 357.618 l 1
 406.969 314.703 l 1
 441.3 279.656 458.465 236.742 458.465 185.961 c 0
EndSplineSet
Fore
SplineSet
472 196 m 0
 472 55 375 19 270 0 c 1
 270 -100 l 1
 214 -100 l 1
 214 0 l 1
 152 3 127 9 45 42 c 1
 45 199 l 1
 67 196 l 1
 100 89 139 44 212 29 c 1
 212 281 l 1
 79 349 29 407 29 497 c 0
 29 560 60 612 116 645 c 0
 146 661 168 666 214 672 c 1
 214 750 l 1
 270 750 l 1
 270 674 l 1
 347 661 381 650 428 623 c 1
 428 480 l 1
 407 480 l 1
 378 582 340 625 270 642 c 1
 270 426 l 1
 389 364 472 316 472 196 c 0
270 250 m 1
 270 29 l 1
 333 42 362 75 362 133 c 0
 362 187 349 205 270 250 c 1
212 454 m 1
 212 645 l 1
 149 628 125 602 125 554 c 0
 125 508 152 475 212 454 c 1
EndSplineSet
EndChar

StartChar: percent
Encoding: 37 37 6
Width: 998
Flags: W
HStem: -15 47<660.107 745.183> 294 46<246.034 333.773> 321 51<746.153 829.408> 584 39<472.162 579.175> 658 20<292 386 688 728>
VStem: 125 112<352.057 475.525> 432 32<470.612 589.824> 535 117<42.8586 177.023> 844 33<155.136 307.39>
LayerCount: 2
Back
SplineSet
318.994 559.313 m 0
 318.994 565.75 316.85 577.194 311.843 594.36 c 1
 303.976 597.936 296.822 600.797 288.955 604.373 c 0
 281.803 607.949 274.65 611.524 266.782 616.531 c 2
 253.193 623.684 l 1
 225.3 620.823 197.405 592.929 170.226 539.287 c 0
 142.332 484.213 128.742 439.869 128.742 405.537 c 0
 128.742 364.769 144.478 344.027 175.947 344.027 c 0
 214.569 344.027 248.901 369.775 278.226 421.988 c 0
 305.405 470.624 318.994 516.399 318.994 559.313 c 0
700.214 263.922 m 0
 700.214 283.232 695.207 299.684 685.91 313.272 c 0
 677.326 326.863 663.737 334.014 645.856 334.014 c 0
 611.524 334.014 579.34 303.976 547.869 243.181 c 0
 522.121 190.253 509.963 148.768 509.963 117.299 c 0
 509.963 75.8145 526.412 55.7881 559.313 55.7881 c 0
 595.79 55.7881 628.69 80.8213 659.445 131.604 c 0
 673.751 154.491 684.479 175.947 690.917 197.405 c 0
 697.354 219.576 700.214 241.034 700.214 263.922 c 0
754.572 271.074 m 0
 754.572 208.134 735.976 150.199 698.784 95.126 c 0
 658.73 31.4707 607.234 0 543.578 0 c 0
 498.519 0 464.902 13.5898 441.3 40.7686 c 0
 418.413 68.6621 406.969 103.709 406.969 148.053 c 0
 406.969 204.557 429.855 259.63 476.346 313.272 c 0
 522.837 366.2 575.048 392.663 632.982 392.663 c 0
 713.805 392.663 754.572 351.895 754.572 271.074 c 0
627.261 693.062 m 1
 233.167 -10.0137 l 1
 155.206 -10.0137 l 1
 490.65 587.208 l 1
 464.188 579.34 439.154 575.763 416.267 575.763 c 0
 406.969 575.763 399.101 575.763 391.233 575.763 c 0
 383.366 575.763 375.498 576.479 367.631 578.625 c 1
 371.922 556.453 l 1
 371.922 534.28 369.775 512.107 364.769 489.936 c 0
 359.762 467.764 351.895 445.591 341.167 423.418 c 0
 336.16 412.689 327.577 398.386 314.703 380.505 c 0
 271.789 317.564 218.861 285.378 155.206 285.378 c 0
 114.438 285.378 82.252 299.684 60.0801 328.292 c 0
 37.9072 356.187 26.4639 391.233 26.4639 432.002 c 0
 26.4639 490.65 48.6357 547.154 93.6953 600.797 c 0
 138.04 653.01 190.253 679.473 251.763 679.473 c 0
 276.081 679.473 303.259 670.176 332.584 650.148 c 1
 366.915 634.412 393.379 627.261 411.26 627.261 c 0
 461.325 627.261 509.963 648.718 557.882 693.062 c 1
 627.261 693.062 l 1
EndSplineSet
Fore
SplineSet
877 256 m 0xbf80
 877 127 786 -15 668 -15 c 0
 587 -15 535 41 535 125 c 0
 535 248 647 372 762 372 c 0
 831 372 877 327 877 256 c 0xbf80
702 32 m 0
 773 32 844 165 844 249 c 0
 844 290 822 321 792 321 c 0
 713 321 652 135 652 88 c 0
 652 53 669 32 702 32 c 0
350 678 m 0
 422 678 417 623 519 623 c 0
 579 623 653 650 675 681 c 0
 680 688 686 691 690 691 c 2
 728 691 l 1
 334 -7 l 1
 278 -7 l 1
 627 612 l 1
 584 595 546 584 513 584 c 0
 498 584 486 586 464 590 c 1
 464 501 448 445 406 382 c 0
 366 325 313 294 253 294 c 0xdf80
 177 294 125 350 125 431 c 0
 125 558 234 678 350 678 c 0
286 340 m 0
 367 340 432 489 432 568 c 0
 432 603 411 605 387 623 c 0
 378 628 375 630 371 631 c 0
 319 637 245 473 237 395 c 0
 236 365 256 340 286 340 c 0
EndSplineSet
EndChar

StartChar: ampersand
Encoding: 38 38 7
Width: 832
Flags: W
HStem: -16 101<611.924 716.813> -15 77<218.852 362.109> 395 24<577 639.972 723.786 784> 658 33<333.072 424.61>
VStem: 62 139<118.62 274.246> 207 117<527.328 613.541> 467 101<503.444 611.133>
LayerCount: 2
Back
SplineSet
406.969 552.161 m 0
 406.969 571.473 401.247 587.922 390.519 601.513 c 0
 379.074 614.387 364.054 620.823 345.458 620.823 c 0
 305.405 620.823 285.378 597.221 285.378 549.3 c 0
 285.378 512.823 295.392 474.199 314.703 432.002 c 1
 376.213 466.332 406.969 506.386 406.969 552.161 c 0
253.193 61.5098 m 0
 285.378 61.5098 324.001 79.3906 369.061 114.438 c 1
 348.319 139.471 327.577 170.226 305.405 205.272 c 0
 283.232 240.318 260.345 279.656 236.027 324.001 c 1
 180.239 276.796 l 1
 166.65 262.49 156.637 246.756 151.63 231.735 c 0
 145.908 216.001 143.762 200.98 143.762 185.961 c 0
 143.762 170.226 145.908 155.206 151.63 140.186 c 0
 156.637 124.451 164.504 111.576 174.518 99.418 c 0
 183.814 87.9736 195.975 78.6758 209.563 71.5234 c 0
 223.153 65.0859 237.457 61.5098 253.193 61.5098 c 0
736.691 113.007 m 1
 730.254 89.4043 719.525 69.3779 705.937 52.9277 c 1
 665.884 10.7285 622.254 -10.0137 574.333 -10.0137 c 0
 523.552 -10.0137 468.479 16.4502 409.829 68.6621 c 1
 353.326 26.4639 l 2
 344.027 20.7422 334.014 15.0195 321.856 10.0137 c 0
 308.982 5.72168 296.106 1.43066 281.803 -1.43066 c 0
 267.497 -4.29102 253.908 -6.4375 239.604 -7.86719 c 0
 225.3 -9.29785 211.709 -10.0137 199.55 -10.0137 c 0
 145.192 -10.0137 102.994 2.86133 72.2383 30.04 c 0
 41.4834 57.2188 26.4639 97.2715 26.4639 150.914 c 0
 26.4639 231.735 78.6758 303.259 183.1 364.769 c 2
 210.994 380.505 l 1
 197.405 420.558 188.821 449.883 185.246 467.049 c 0
 181.669 484.93 180.239 499.233 180.239 509.963 c 0
 180.239 532.134 184.531 553.592 192.398 573.618 c 0
 200.98 593.644 212.426 610.81 226.015 626.545 c 0
 240.318 641.564 257.484 653.01 276.796 662.307 c 0
 296.106 670.891 317.564 675.182 341.167 675.182 c 0
 381.22 675.182 415.551 664.452 444.161 642.281 c 0
 472.056 620.108 486.359 588.637 486.359 547.869 c 0
 486.359 502.811 467.764 464.188 430.57 430.57 c 0
 424.135 424.135 412.689 416.267 397.67 406.969 c 0
 382.649 398.386 364.054 388.373 341.167 376.213 c 1
 356.901 345.458 374.067 315.418 392.663 287.524 c 0
 411.26 260.345 430.57 233.167 451.312 208.134 c 1
 499.233 271.789 522.837 321.856 522.837 359.048 c 0
 522.837 379.074 502.094 389.803 461.325 389.803 c 1
 461.325 436.294 l 1
 698.784 436.294 l 1
 698.784 391.233 l 1
 668.744 386.227 649.433 381.935 641.564 377.643 c 0
 636.559 376.213 630.837 371.922 624.4 365.485 c 0
 618.678 359.048 611.524 349.75 605.088 338.306 c 2
 581.486 296.106 l 2
 567.181 270.358 552.161 246.041 537.141 222.438 c 0
 521.406 199.55 505.671 176.662 489.22 155.206 c 1
 499.233 141.616 510.678 129.457 524.981 118.014 c 0
 539.287 106.57 556.453 97.2715 575.763 89.4043 c 0
 585.776 84.3975 597.936 82.252 613.671 82.252 c 0
 632.982 82.252 648.718 85.1133 659.445 92.2656 c 0
 665.169 94.4111 670.891 99.418 677.326 107.285 c 0
 683.765 114.438 692.347 125.166 703.075 138.04 c 1
 736.691 113.007 l 1
EndSplineSet
Fore
SplineSet
577 419 m 1x7e
 784 419 l 1
 784 395 l 1
 740 391 728 384 710 354 c 2
 683 311 l 2
 656 268 645 252 590 176 c 1
 646 104 671 85 709 85 c 0
 732 85 750 97 768 123 c 1
 787 111 l 1
 770 85 l 2
 746 44 732 28 716 15 c 0
 693 -3 655 -16 624 -16 c 0xbe
 571 -16 535 6 475 72 c 1
 393 12 327 -15 253 -15 c 0
 141 -15 62 59 62 161 c 0
 62 255 116 318 258 388 c 1
 218 457 207 489 207 533 c 0
 207 630 281 691 401 691 c 0
 502 691 568 643 568 568 c 0
 568 505 521 461 416 423 c 1
 567 209 l 1
 625 281 643 313 643 354 c 0
 643 382 636 388 577 395 c 1
 577 419 l 1x7e
324 286 m 2
 275 357 l 1
 220 327 201 300 201 264 c 0
 201 212 230 148 272 103 c 0
 297 78 333 62 362 62 c 0x7e
 388 62 413 72 453 100 c 1
 420 142 398 174 324 286 c 2
397 453 m 1
 447 469 467 492 467 533 c 0
 467 601 423 658 375 658 c 0
 343 658 324 637 324 602 c 0
 324 561 344 519 397 453 c 1
EndSplineSet
EndChar

StartChar: quotesingle
Encoding: 39 39 8
Width: 188
Flags: W
HStem: 275 197<81 108>
VStem: 51 88<400.156 466.678>
LayerCount: 2
Back
SplineSet
117.299 642.996 m 0
 111.576 645.856 102.994 647.288 92.2656 647.288 c 0
 75.8145 647.288 61.5098 641.564 49.3516 630.122 c 0
 37.1924 617.963 30.7549 603.657 30.7549 585.776 c 0
 30.7549 569.327 37.1924 555.738 49.3516 544.293 c 0
 61.5098 532.851 75.8145 527.127 92.2656 527.127 c 0
 97.2715 527.127 101.563 527.844 104.424 527.844 c 0
 108 528.559 111.576 529.273 115.868 529.988 c 1
 115.868 522.837 l 2
 115.868 508.531 110.861 494.227 100.133 480.638 c 0
 90.1191 467.049 78.6758 455.604 65.8018 447.021 c 0
 60.0801 442.015 55.0732 438.438 52.2119 437.009 c 0
 48.6357 435.577 47.2051 434.862 47.2051 434.862 c 1
 60.0801 398.386 l 1
 60.0801 398.386 65.8018 401.247 77.9609 406.969 c 0
 89.4043 413.406 102.278 421.988 116.583 434.147 c 0
 130.888 446.307 143.762 462.042 155.206 480.638 c 0
 166.65 499.233 173.087 521.406 173.087 547.869 c 0
 173.087 572.188 167.365 592.214 155.921 608.664 c 0
 144.478 624.4 131.604 636.559 117.299 642.996 c 0
EndSplineSet
Fore
SplineSet
108 275 m 1
 81 275 l 1
 70 325 51 407 51 423 c 0
 53 453 67 472 95 472 c 0
 122 472 139 453 139 423 c 0
 139 407 122 325 108 275 c 1
EndSplineSet
EndChar

StartChar: parenleft
Encoding: 40 40 9
Width: 332
Flags: W
VStem: 45 115<120.794 403.332>
LayerCount: 2
Back
SplineSet
256.055 -177.379 m 1
 175.947 -126.597 115.868 -62.2256 75.0996 14.3047 c 0
 35.0469 91.5498 14.3047 177.379 14.3047 272.504 c 0
 14.3047 453.458 95.8418 596.506 258.915 703.074 c 1
 279.656 666.599 l 1
 230.306 624.4 193.828 583.632 171.657 543.578 c 0
 162.358 527.844 154.491 509.246 148.053 487.075 c 0
 140.901 464.902 135.895 442.015 131.604 417.696 c 0
 128.027 393.379 125.166 368.346 123.021 342.598 c 0
 120.875 317.564 120.159 293.246 120.159 271.074 c 0
 120.159 212.426 121.59 169.511 124.451 141.616 c 0
 127.312 113.723 132.318 90.835 139.471 72.9541 c 0
 155.921 25.0332 174.518 -16.4502 195.26 -51.4971 c 0
 216.716 -86.543 245.324 -116.583 282.518 -142.332 c 1
 256.055 -177.379 l 1
EndSplineSet
Fore
SplineSet
160 258 m 0
 160 -42 229 -91 306 -141 c 1
 306 -168 l 1
 208 -108 166 -69 119 3 c 0
 70 79 45 168 45 259 c 0
 45 388 92 507 177 599 c 0
 215 640 245 661 306 694 c 1
 306 666 l 1
 217 608 160 558 160 258 c 0
EndSplineSet
EndChar

StartChar: parenright
Encoding: 41 41 10
Width: 332
Flags: W
VStem: 174 113<121.279 409.364>
LayerCount: 2
Back
SplineSet
50.0664 -178.809 m 1
 130.173 -128.027 190.253 -63.6562 231.021 12.874 c 0
 271.074 90.1191 291.816 175.947 291.816 271.074 c 0
 291.816 451.312 210.279 595.075 47.2051 701.646 c 1
 26.4639 665.169 l 1
 75.8145 622.969 112.292 582.201 134.464 542.147 c 0
 143.762 526.412 151.63 507.816 158.066 485.645 c 0
 165.219 463.472 170.226 440.584 174.518 416.267 c 0
 178.094 391.233 180.954 366.915 183.1 341.167 c 0
 185.246 316.133 185.961 291.816 185.961 269.644 c 0
 185.961 210.994 184.531 167.365 181.669 140.186 c 0
 178.809 112.292 173.802 89.4043 166.65 71.5234 c 0
 150.199 23.6025 131.604 -17.8809 110.861 -52.9277 c 0
 89.4043 -87.9736 60.7949 -118.014 23.6025 -143.762 c 1
 50.0664 -178.809 l 1
EndSplineSet
Fore
SplineSet
174 268 m 0
 174 565 107 612 26 666 c 1
 26 694 l 1
 125 636 168 595 214 523 c 0
 262 447 287 357 287 267 c 0
 287 138 242 19 155 -73 c 0
 117 -114 89 -135 26 -168 c 1
 26 -141 l 1
 111 -84 174 -39 174 268 c 0
EndSplineSet
EndChar

StartChar: asterisk
Encoding: 42 42 11
Width: 499
Flags: MW
HStem: 338 107<69.1289 146.938 353.479 437.349> 505 101<63.1739 149.276 352.877 398.21>
VStem: 204 98<264.813 326.542 617.11 681.247> 243 19<497 546.54>
LayerCount: 2
Back
SplineSet
379.074 426.28 m 0
 371.922 431.287 362.624 434.862 352.611 437.724 c 0
 341.882 440.584 331.153 444.161 319.71 447.021 c 0
 308.982 449.883 298.252 452.743 287.524 456.319 c 0
 277.511 459.896 268.929 463.472 262.49 467.049 c 1
 268.929 471.339 277.511 474.199 287.524 477.062 c 0
 298.252 479.206 308.982 482.068 319.71 484.93 c 0
 331.153 487.79 341.882 490.65 352.611 494.227 c 0
 362.624 497.804 371.922 501.379 379.074 505.671 c 0
 407.684 522.121 414.836 543.578 399.815 571.473 c 0
 383.366 598.65 360.479 603.657 332.584 585.776 c 0
 324.717 582.201 316.85 576.479 308.982 569.327 c 0
 285.378 545.725 l 0
 277.511 537.141 270.358 529.273 262.49 522.121 c 0
 254.623 514.968 246.756 509.246 240.318 505.671 c 1
 240.318 522.121 243.896 541.433 251.763 565.035 c 0
 259.63 587.922 263.922 607.949 263.922 625.115 c 0
 263.922 642.281 260.345 654.439 253.193 663.737 c 0
 246.756 672.319 234.597 676.611 216.716 676.611 c 0
 185.246 676.611 170.226 659.445 170.226 625.115 c 0
 170.226 607.949 173.802 587.922 181.669 565.035 c 0
 189.538 541.433 193.828 522.121 194.543 505.671 c 1
 188.106 509.246 180.954 514.968 173.087 522.121 c 0
 165.219 529.273 157.352 537.141 149.484 545.725 c 0
 125.881 569.327 l 0
 118.014 576.479 110.146 582.201 102.278 585.776 c 0
 72.9541 603.657 50.0664 598.65 33.6162 571.473 c 0
 17.8809 543.578 25.0332 522.121 55.7881 505.671 c 0
 63.6562 501.379 72.9541 497.804 83.6826 494.227 c 0
 94.4111 490.65 105.14 487.79 115.868 484.93 c 0
 126.597 482.068 136.609 479.206 147.338 477.062 c 0
 157.352 474.199 165.934 471.339 173.087 467.049 c 1
 165.934 463.472 157.352 459.896 147.338 456.319 c 0
 136.609 452.743 126.597 449.883 115.868 447.021 c 0
 105.14 444.161 94.4111 440.584 83.6826 437.724 c 0
 72.9541 434.862 63.6562 431.287 55.7881 426.28 c 0
 25.0332 409.829 17.8809 387.656 33.6162 360.479 c 0
 50.0664 333.299 72.9541 328.292 102.278 345.458 c 0
 110.146 350.465 118.014 356.901 125.881 364.054 c 0
 133.749 371.207 141.616 379.074 149.484 386.941 c 0
 157.352 394.809 165.219 401.962 173.087 409.114 c 0
 180.954 416.981 188.106 422.703 194.543 426.28 c 1
 193.828 410.544 189.538 391.233 181.669 367.631 c 0
 173.802 344.027 170.226 324.001 170.226 307.551 c 0
 170.226 272.504 185.246 254.623 216.716 254.623 c 0
 234.597 254.623 246.756 258.915 253.193 268.212 c 0
 260.345 276.796 263.922 290.385 263.922 307.551 c 0
 263.922 316.133 262.49 326.146 260.345 336.16 c 0
 257.484 346.173 254.623 356.901 251.763 367.631 c 0
 248.901 378.359 246.041 389.088 243.896 399.101 c 0
 241.749 409.114 240.318 418.413 240.318 426.28 c 1
 246.756 422.703 253.908 416.981 261.775 409.114 c 0
 268.929 401.962 276.796 394.094 284.663 386.227 c 0
 293.246 377.643 301.113 369.775 308.982 362.624 c 0
 316.85 355.472 324.717 349.75 332.584 345.458 c 0
 360.479 328.292 383.366 333.299 399.815 360.479 c 0
 414.836 387.656 407.684 409.829 379.074 426.28 c 0
EndSplineSet
Fore
SplineSet
278 476 m 1
 278 469 l 1
 313 451 330 447 374 442 c 0
 428 439 447 425 447 393 c 0
 447 365 426 341 398 341 c 0
 371 341 354 354 324 404 c 1
 303 432 294 439 267 454 c 1
 259 450 l 1
 264 404 268 390 289 349 c 0
 299 328 302 319 302 308 c 0
 302 278 280 255 250 255 c 0
 223 255 204 278 204 312 c 0
 204 328 207 337 218 359 c 0
 237 393 240 403 242 450 c 1
 234 454 l 1
 196 426 187 417 161 379 c 0
 141 349 127 338 107 338 c 0
 79 338 57 360 57 390 c 0
 57 426 86 445 142 445 c 1
 185 447 193 450 226 472 c 1
 226 479 l 1
 186 497 170 501 125 505 c 0
 72 508 56 521 56 557 c 0
 56 586 75 606 104 606 c 0
 130 606 146 595 167 561 c 0
 192 521 198 516 236 494 c 1
 243 497 l 1
 242 539 239 549 218 587 c 0
 204 614 201 624 201 642 c 0
 201 669 223 691 252 691 c 0
 280 691 300 669 300 636 c 0
 300 621 297 611 284 587 c 0
 267 560 262 541 262 516 c 2
 262 497 l 1
 270 494 l 1
 308 523 315 533 341 570 c 0
 360 601 374 609 395 609 c 0
 422 609 447 584 447 560 c 0
 447 541 431 519 412 510 c 0
 398 505 390 502 366 502 c 0
 324 501 311 497 278 476 c 1
EndSplineSet
EndChar

StartChar: plus
Encoding: 43 43 12
Width: 569
Flags: W
HStem: 0 21G<242 330> 209 88<34 242 330 538>
VStem: 242 88<0 209 297 505>
LayerCount: 2
Back
SplineSet
542.147 222.438 m 1
 322.571 222.438 l 1
 322.571 0 l 1
 246.041 0 l 1
 246.041 222.438 l 1
 25.0332 222.438 l 1
 25.0332 297.537 l 1
 246.041 297.537 l 1
 246.041 518.545 l 1
 322.571 518.545 l 1
 322.571 297.537 l 1
 542.147 297.537 l 1
 542.147 222.438 l 1
EndSplineSet
Fore
SplineSet
242 297 m 1
 242 505 l 1
 330 505 l 1
 330 297 l 1
 538 297 l 1
 538 209 l 1
 330 209 l 1
 330 0 l 1
 242 0 l 1
 242 209 l 1
 34 209 l 1
 34 297 l 1
 242 297 l 1
EndSplineSet
EndChar

StartChar: comma
Encoding: 44 44 13
Width: 249
Flags: W
HStem: -6 161<63.6042 123.615 93.6098 149.812>
VStem: 155 68<-49.8894 51.9967>
LayerCount: 2
Back
SplineSet
117.299 113.007 m 0
 111.576 115.868 102.994 117.299 92.2656 117.299 c 0
 75.8145 117.299 61.5098 111.576 49.3516 99.418 c 0
 37.1924 87.9736 30.7549 72.9541 30.7549 55.7881 c 0
 30.7549 39.3379 37.1924 25.0332 49.3516 13.5898 c 0
 61.5098 2.86133 75.8145 -2.86133 92.2656 -2.86133 c 0
 97.2715 -2.86133 101.563 -2.86133 104.424 -2.14551 c 0
 108 -1.43066 111.576 -0.714844 115.868 0 c 1
 115.868 -7.15234 l 2
 115.868 -22.1719 110.861 -36.4766 100.133 -50.0664 c 0
 90.1191 -63.6562 78.6758 -74.3848 65.8018 -83.6826 c 0
 60.0801 -88.6895 55.0732 -91.5498 52.2119 -92.9805 c 0
 48.6357 -94.4111 47.2051 -95.126 47.2051 -95.126 c 1
 60.0801 -131.604 l 1
 60.0801 -131.604 65.8018 -128.742 77.9609 -123.021 c 0
 89.4043 -117.299 102.278 -108 116.583 -95.8418 c 0
 130.888 -83.6826 143.762 -68.6621 155.206 -50.0664 c 0
 166.65 -31.4707 173.087 -8.58301 173.087 17.8809 c 0
 173.087 42.1992 167.365 62.2256 155.921 78.6758 c 0
 144.478 94.4111 131.604 105.854 117.299 113.007 c 0
EndSplineSet
Fore
SplineSet
57 -180 m 1
 45 -158 l 1
 122 -105 155 -64 155 -26 c 0
 155 -13 146 -4 136 -4 c 0
 121 -4 131 -6 111 -6 c 0
 69 -6 40 26 40 72 c 0
 40 122 72 155 122 155 c 0
 182 155 223 108 223 40 c 0
 223 -47 173 -113 57 -180 c 1
EndSplineSet
EndChar

StartChar: hyphen
Encoding: 45 45 14
Width: 332
Flags: W
HStem: 171 116<44 287 44 287 44 44>
LayerCount: 2
Back
SplineSet
361.908 121.59 m 1
 43.6289 121.59 l 1
 43.6289 170.226 l 1
 361.908 170.226 l 1
 361.908 121.59 l 1
EndSplineSet
Fore
SplineSet
287 287 m 1
 287 171 l 1
 44 171 l 1
 44 287 l 1
 287 287 l 1
EndSplineSet
EndChar

StartChar: period
Encoding: 46 46 15
Width: 249
Flags: W
HStem: -13 170<70.1876 179.812>
VStem: 41 168<14.032 126.836>
LayerCount: 2
Back
SplineSet
145.192 47.2051 m 0
 145.192 31.4707 138.756 18.5957 126.597 7.86719 c 0
 114.438 -2.14551 100.848 -7.15234 86.543 -7.15234 c 0
 71.5234 -7.15234 58.6494 -2.14551 47.9209 7.86719 c 0
 36.4766 18.5957 30.7549 31.4707 30.7549 47.2051 c 0
 30.7549 62.2256 36.4766 75.8145 47.2051 87.2588 c 0
 57.9336 98.7021 70.8086 103.709 86.543 103.709 c 0
 100.848 103.709 114.438 97.9873 126.597 86.543 c 0
 138.756 74.3848 145.192 61.5098 145.192 47.2051 c 0
EndSplineSet
Fore
SplineSet
125 157 m 0
 171 157 209 117 209 70 c 0
 209 23 171 -13 125 -13 c 0
 78 -13 41 23 41 72 c 0
 41 117 79 157 125 157 c 0
EndSplineSet
EndChar

StartChar: slash
Encoding: 47 47 16
Width: 276
Flags: MW
HStem: -19 21G<-23 72.6479> 671 20G<205.38 302>
LayerCount: 2
Back
SplineSet
354.757 698.784 m 1
 80.8213 -171.657 l 1
 4.29102 -171.657 l 1
 276.796 698.784 l 1
 354.757 698.784 l 1
EndSplineSet
Fore
SplineSet
302 691 m 1
 66 -19 l 1
 -23 -19 l 1
 212 691 l 1
 302 691 l 1
EndSplineSet
EndChar

StartChar: zero
Encoding: 48 48 17
Width: 499
Flags: W
HStem: -13 28<212.598 286.78> 661 27<210.624 286.562>
VStem: 23 159<183.672 489.221> 318 158<186.325 490.146>
LayerCount: 2
Back
SplineSet
366.2 331.153 m 0
 366.2 528.559 329.724 627.261 257.484 627.261 c 0
 185.246 627.261 149.484 528.559 149.484 331.153 c 0
 149.484 134.464 185.246 36.4766 257.484 36.4766 c 0
 329.724 36.4766 366.2 134.464 366.2 331.153 c 0
483.498 331.153 m 0
 483.498 245.324 469.193 173.087 440.584 115.868 c 0
 401.962 30.7549 341.167 -11.4434 257.484 -11.4434 c 0
 216.001 -11.4434 180.239 -0.714844 151.63 20.7422 c 0
 123.021 42.1992 99.418 69.3779 82.252 102.994 c 0
 64.3711 136.609 51.4971 173.802 43.6289 213.854 c 0
 36.4766 253.908 32.1855 293.246 32.1855 331.153 c 0
 32.1855 368.346 36.4766 406.969 43.6289 447.736 c 0
 51.4971 487.79 64.3711 524.981 82.9668 558.599 c 0
 100.848 592.214 124.451 620.108 153.06 642.281 c 0
 181.669 664.452 216.716 675.182 257.484 675.182 c 0
 339.737 675.182 400.532 632.268 440.584 546.439 c 0
 469.193 487.075 483.498 414.836 483.498 331.153 c 0
EndSplineSet
Fore
SplineSet
250 688 m 0
 379 688 476 538 476 337 c 0
 476 136 379 -13 250 -13 c 0
 119 -13 23 133 23 340 c 0
 23 423 45 517 78 573 c 0
 119 645 185 688 250 688 c 0
250 15 m 0
 291 15 318 57 318 223 c 2
 318 451 l 2
 318 598 297 661 249 661 c 0
 201 661 182 602 182 451 c 2
 182 223 l 2
 182 75 201 15 250 15 c 0
EndSplineSet
EndChar

StartChar: one
Encoding: 49 49 18
Width: 499
Flags: MW
HStem: 0 23<67 163.625 352.806 442> 668 20G<269.761 334>
VStem: 186 148<45.0494 575.31>
LayerCount: 2
Back
SplineSet
303.259 0 m 1
 27.8945 0 l 1
 27.8945 39.3379 l 1
 59.3643 39.3379 80.8213 43.6289 93.6953 51.4971 c 0
 106.57 59.3643 113.007 75.8145 113.007 100.848 c 2
 113.007 537.857 l 2
 113.007 559.313 107.285 570.042 95.126 570.042 c 0
 92.2656 570.042 67.2324 560.743 20.7422 543.578 c 1
 20.7422 581.486 l 1
 193.113 676.611 l 1
 218.146 672.319 l 1
 218.146 85.1133 l 2
 218.146 62.2256 223.868 48.6357 234.597 43.6289 c 2
 233.167 45.0596 l 2
 244.61 41.4834 268.212 39.3379 303.259 39.3379 c 1
 303.259 0 l 1
EndSplineSet
Fore
SplineSet
149 579 m 0
 128 579 88 561 64 554 c 1
 64 579 l 1
 316 688 l 1
 334 688 l 1
 334 119 l 2
 334 41 352 26 442 23 c 1
 442 0 l 1
 67 0 l 1
 67 23 l 1
 166 25 186 42 186 125 c 2
 186 508 l 2
 186 557 174 579 149 579 c 0
EndSplineSet
EndChar

StartChar: two
Encoding: 50 50 19
Width: 499
Flags: W
HStem: 0 133<160 422.904> 574 114<164.297 303.927>
VStem: 300 137<409.145 520.442>
LayerCount: 2
Back
SplineSet
479.206 152.345 m 1
 420.558 0 l 1
 32.1855 0 l 1
 32.1855 27.8945 l 1
 203.842 215.286 l 2
 282.518 302.544 322.571 381.935 322.571 454.175 c 0
 322.571 494.942 311.843 526.412 291.1 547.869 c 0
 269.644 569.327 239.604 580.055 199.55 580.055 c 0
 168.08 580.055 142.332 567.181 121.59 542.147 c 0
 105.854 523.552 90.1191 492.797 74.3848 449.883 c 1
 32.1855 461.325 l 1
 42.9141 527.127 65.8018 578.625 100.848 617.248 c 0
 135.895 655.87 184.531 675.182 246.041 675.182 c 0
 272.504 675.182 296.822 670.891 318.279 661.592 c 0
 340.452 652.293 359.762 639.419 376.213 622.254 c 0
 393.379 605.803 406.254 586.493 415.551 562.889 c 0
 424.85 540.002 429.141 515.685 429.141 489.22 c 0
 429.141 416.981 387.656 336.16 304.69 246.041 c 2
 166.65 96.5566 l 1
 361.908 96.5566 l 2
 380.505 96.5566 395.525 100.848 406.969 110.146 c 0
 409.829 113.007 414.836 118.729 420.558 127.312 c 0
 426.28 135.895 433.432 148.768 442.015 165.219 c 1
 479.206 152.345 l 1
EndSplineSet
Fore
SplineSet
300 447 m 0
 300 482 277 574 182 574 c 0
 127 574 89 546 59 483 c 1
 31 483 l 1
 59 560 79 593 119 631 c 0
 152 668 201 688 250 688 c 0
 359 688 437 612 437 505 c 0
 437 429 401 362 322 287 c 2
 160 133 l 1
 311 133 l 2
 413 133 425 139 454 211 c 1
 478 211 l 1
 434 0 l 1
 18 0 l 1
 18 23 l 1
 195 213 300 333 300 447 c 0
EndSplineSet
EndChar

StartChar: three
Encoding: 51 51 20
Width: 499
Flags: W
HStem: -15 52<141.129 287.595> 606 82<163.92 308.622>
VStem: 283 146<474.826 571.079> 354 115<148.432 264.648>
LayerCount: 2
Back
SplineSet
423.418 219.576 m 0
 423.418 146.624 394.809 87.9736 338.306 43.6289 c 0
 313.987 24.3184 286.093 10.0137 253.908 1.43066 c 0
 222.438 -7.15234 188.106 -11.4434 150.914 -11.4434 c 0
 127.312 -11.4434 106.57 -8.58301 87.9736 -1.43066 c 0
 77.2451 2.14551 65.8018 8.58301 53.6426 17.8809 c 0
 41.4834 26.4639 35.0469 38.623 35.0469 54.3574 c 0
 35.0469 70.8086 40.0527 82.252 50.7812 89.4043 c 0
 60.7949 95.8418 71.5234 99.418 83.6826 99.418 c 0
 90.1191 99.418 99.418 97.9873 111.576 93.6953 c 0
 123.021 90.1191 136.609 82.252 152.345 71.5234 c 0
 166.65 62.2256 180.239 55.0732 190.968 51.4971 c 0
 202.412 47.2051 210.994 45.0596 216.716 45.0596 c 0
 251.763 45.0596 278.941 59.3643 298.969 87.9736 c 0
 318.279 115.152 328.292 146.624 328.292 181.669 c 0
 328.292 203.127 324.717 221.008 317.564 234.597 c 0
 303.976 261.062 283.232 281.088 255.338 296.106 c 0
 227.444 310.412 188.821 317.564 138.04 317.564 c 1
 133.033 353.326 l 1
 237.457 386.227 290.385 437.009 290.385 505.671 c 0
 290.385 531.419 281.803 552.876 265.352 568.612 c 0
 248.187 583.632 227.444 591.499 202.412 591.499 c 0
 152.345 591.499 108.716 557.167 71.5234 487.79 c 1
 32.1855 499.233 l 1
 67.2324 616.531 134.464 675.182 233.167 675.182 c 0
 277.511 675.182 315.418 663.022 345.458 639.419 c 0
 376.213 615.816 391.233 580.77 391.233 534.995 c 0
 391.233 484.93 365.485 440.584 314.703 401.247 c 1
 327.577 394.809 338.306 387.656 347.604 380.505 c 0
 356.901 374.067 365.485 366.915 373.353 360.479 c 0
 391.948 344.027 404.822 322.571 412.689 296.822 c 0
 419.843 271.074 423.418 245.324 423.418 219.576 c 0
EndSplineSet
Fore
SplineSet
354 154 m 0xd0
 354 288 231 329 152 356 c 1
 152 374 l 1
 248 403 283 438 283 504 c 0
 283 567 245 606 182 606 c 0
 129 606 97 584 59 523 c 1
 37 535 l 1
 92 639 167 688 267 688 c 0
 368 688 429 637 429 551 c 0xe0
 429 492 410 463 346 423 c 1
 387 406 403 394 423 371 c 0
 453 335 469 291 469 246 c 0
 469 100 335 -15 168 -15 c 0
 78 -15 16 22 16 76 c 0
 16 110 42 133 81 133 c 0
 161 133 189 37 256 37 c 0
 316 37 354 82 354 154 c 0xd0
EndSplineSet
EndChar

StartChar: four
Encoding: 52 52 21
Width: 499
Flags: W
HStem: 0 21G<267 412> 144 111<60 267 412 475> 668 20G<317.156 412>
VStem: 270 142<0 144 255 552>
LayerCount: 2
Back
SplineSet
263.922 243.181 m 1
 263.922 507.101 l 1
 82.252 243.181 l 1
 263.922 243.181 l 1
455.604 158.066 m 1
 364.769 158.066 l 1
 364.769 0 l 1
 265.352 0 l 1
 265.352 158.066 l 1
 5.72168 158.066 l 1
 5.72168 234.597 l 1
 301.829 662.307 l 1
 364.769 662.307 l 1
 364.769 243.181 l 1
 455.604 243.181 l 1
 455.604 158.066 l 1
EndSplineSet
Fore
SplineSet
412 255 m 1
 475 255 l 1
 475 144 l 1
 412 144 l 1
 412 0 l 1
 267 0 l 1
 267 144 l 1
 19 144 l 1
 19 256 l 1
 79 352 145 444 272 611 c 2
 333 688 l 1
 412 688 l 1
 412 255 l 1
270 255 m 1
 270 552 l 1
 60 255 l 1
 270 255 l 1
EndSplineSet
EndChar

StartChar: five
Encoding: 53 53 22
Width: 499
Flags: W
HStem: -7 60<147.553 290.835> 549 128<149 428>
VStem: 374 77<135.203 278.359>
LayerCount: 2
Back
SplineSet
433.432 675.182 m 1
 394.094 580.055 l 1
 389.088 570.042 377.643 565.75 359.048 565.75 c 2
 184.531 565.75 l 1
 155.206 505.671 l 1
 208.134 496.372 251.048 482.783 284.663 463.472 c 0
 318.279 444.876 345.458 424.135 364.769 401.247 c 0
 372.638 391.233 379.789 379.789 386.941 365.485 c 0
 393.379 351.18 399.101 336.16 404.107 321.14 c 0
 409.114 305.405 412.689 288.955 415.551 273.219 c 0
 417.696 256.77 419.128 242.464 419.128 228.16 c 0
 419.128 154.491 391.948 95.126 338.306 51.4971 c 0
 285.378 9.29785 224.583 -11.4434 155.206 -11.4434 c 0
 66.5166 -11.4434 22.1719 11.4434 22.1719 57.2188 c 0
 22.1719 73.6689 27.8945 85.8281 39.3379 94.4111 c 0
 51.4971 102.994 62.2256 107.285 72.9541 107.285 c 0
 97.9873 107.285 124.451 95.8418 153.774 72.9541 c 0
 175.947 56.5039 195.26 48.6357 210.994 48.6357 c 0
 246.756 48.6357 275.365 65.0859 296.106 97.9873 c 0
 315.418 127.312 325.432 163.788 325.432 208.134 c 0
 325.432 272.504 296.106 321.14 237.457 354.757 c 0
 211.709 368.346 185.246 379.074 157.352 386.941 c 0
 129.457 394.809 101.563 398.386 72.9541 398.386 c 0
 59.3643 398.386 52.9277 405.537 52.9277 419.128 c 2
 52.9277 426.28 l 1
 159.498 665.169 l 1
 364.769 665.169 l 2
 376.213 665.169 389.803 675.896 405.537 697.354 c 1
 433.432 675.182 l 1
EndSplineSet
Fore
SplineSet
83 141 m 0
 154 141 208 53 272 53 c 0
 330 53 374 97 374 152 c 0
 374 220 319 275 231 305 c 0
 187 318 146 324 51 331 c 1
 148 677 l 1
 470 677 l 1
 428 549 l 1
 149 549 l 1
 127 469 l 1
 209 463 240 458 278 448 c 0
 387 417 451 337 451 233 c 0
 451 92 334 -7 168 -7 c 0
 81 -7 22 26 22 81 c 0
 22 116 48 141 83 141 c 0
EndSplineSet
EndChar

StartChar: six
Encoding: 54 54 23
Width: 499
Flags: MW
HStem: -13 28<216.232 306.538> 376 44<224.207 344.311> 662 26<359.18 466.323>
VStem: 28 157<140.809 347.882> 324 151<117.874 322.05>
LayerCount: 2
Back
SplineSet
342.598 181.669 m 0
 342.598 302.544 304.69 363.339 228.16 363.339 c 0
 213.14 363.339 198.835 361.908 186.676 358.333 c 0
 174.518 354.757 163.788 348.319 155.206 339.737 c 1
 152.345 331.153 149.484 319.71 146.624 305.405 c 0
 143.762 291.1 142.332 274.65 142.332 254.623 c 0
 142.332 232.45 143.762 208.134 146.624 183.1 c 0
 149.484 158.066 154.491 134.464 162.358 113.723 c 0
 170.226 92.2656 181.669 75.0996 196.688 60.7949 c 0
 212.426 46.4902 231.735 39.3379 254.623 39.3379 c 0
 271.789 39.3379 285.378 43.6289 296.822 51.4971 c 0
 307.551 59.3643 316.85 69.3779 324.001 82.9668 c 0
 330.438 95.8418 335.445 110.861 338.306 128.027 c 0
 341.167 145.192 342.598 163.073 342.598 181.669 c 0
452.743 219.576 m 0
 452.743 187.392 447.736 157.352 438.438 128.742 c 0
 429.141 100.848 415.551 75.8145 397.67 55.0732 c 0
 379.789 33.6162 357.618 17.8809 331.153 5.72168 c 0
 304.69 -5.72168 274.65 -11.4434 240.318 -11.4434 c 0
 199.55 -11.4434 165.219 -2.86133 138.04 14.3047 c 0
 110.146 32.1855 88.6895 55.0732 71.5234 83.6826 c 0
 55.0732 111.576 42.9141 143.762 35.7617 180.239 c 0
 28.6094 216.001 25.0332 252.478 25.0332 288.239 c 0
 25.0332 341.167 35.7617 391.233 57.9336 437.724 c 0
 80.1064 484.93 109.431 525.697 146.624 560.743 c 0
 183.814 596.506 226.729 623.684 276.081 644.426 c 0
 325.432 665.169 376.928 675.182 430.57 675.182 c 1
 436.294 637.274 l 1
 366.2 624.4 307.551 597.936 261.062 557.167 c 0
 213.854 517.114 182.385 464.902 165.219 401.247 c 1
 172.372 405.537 178.809 408.399 183.814 410.544 c 0
 189.538 413.406 195.975 416.267 203.842 419.128 c 0
 226.729 427.71 248.901 432.002 269.644 432.002 c 0
 297.537 432.002 323.286 426.995 346.173 416.267 c 0
 369.061 405.537 388.373 390.519 404.107 371.207 c 0
 419.843 352.611 432.002 329.724 439.869 303.976 c 0
 448.451 278.226 452.743 250.331 452.743 219.576 c 0
EndSplineSet
Fore
SplineSet
470 688 m 1
 470 662 l 1
 324 631 242 551 204 404 c 1
 234 417 256 420 289 420 c 0
 401 420 475 343 475 223 c 0
 475 86 384 -13 261 -13 c 0
 120 -13 28 100 28 272 c 0
 28 406 86 519 199 595 c 0
 275 647 337 669 470 688 c 1
185 242 m 0
 185 40 216 15 262 15 c 0
 311 15 324 44 324 163 c 0
 324 321 300 376 233 376 c 0
 220 376 205 372 196 366 c 1
 190 360 185 305 185 242 c 0
EndSplineSet
EndChar

StartChar: seven
Encoding: 55 55 24
Width: 499
Flags: W
HStem: 0 21G<146 248.972> 539 138<75.1924 347>
VStem: 18 24<458.646 529.72>
LayerCount: 2
Back
SplineSet
451.312 631.552 m 1
 248.901 -5.72168 l 1
 159.498 -5.72168 l 1
 345.458 568.612 l 1
 159.498 568.612 l 2
 135.18 568.612 115.868 562.174 100.848 550.731 c 0
 97.9873 548.585 92.9805 542.147 85.8281 531.419 c 0
 78.6758 520.691 68.6621 505.671 57.2188 484.93 c 1
 17.8809 502.094 l 1
 79.3906 663.737 l 1
 451.312 663.737 l 1
 451.312 631.552 l 1
EndSplineSet
Fore
SplineSet
478 677 m 1
 242 0 l 1
 146 0 l 1
 347 539 l 1
 141 539 l 2
 85 539 62 519 42 454 c 1
 18 454 l 1
 62 677 l 1
 478 677 l 1
EndSplineSet
EndChar

StartChar: eight
Encoding: 56 56 25
Width: 499
Flags: W
HStem: -13 32<188.768 301.919> 659 29<196.28 306.452>
VStem: 28 121<76.7175 239.601> 40 128<510.354 593.808> 333 139<95.4828 210.128> 338 120<474.991 615.911>
LayerCount: 2
Back
SplineSet
304.69 531.419 m 0
 304.69 557.167 297.537 577.909 283.948 594.36 c 0
 268.212 615.102 246.041 625.115 216.716 625.115 c 0
 193.113 625.115 173.802 617.963 157.352 602.228 c 0
 141.616 586.493 133.033 565.75 133.033 539.287 c 0
 133.033 494.942 166.65 449.883 233.167 402.677 c 1
 243.896 411.26 253.193 419.843 261.775 427.71 c 0
 269.644 435.577 274.65 440.584 276.796 444.161 c 0
 295.392 468.479 304.69 497.804 304.69 531.419 c 0
317.564 133.033 m 0
 317.564 166.65 308.266 192.398 290.385 210.994 c 0
 282.518 219.576 270.358 231.021 253.193 244.61 c 0
 236.742 258.2 216.001 274.65 190.253 294.677 c 1
 177.379 281.803 168.795 272.504 163.788 267.497 c 0
 159.498 261.775 155.921 257.484 153.774 253.193 c 0
 145.908 242.464 140.186 229.59 135.895 213.14 c 0
 132.318 196.688 130.173 180.239 130.173 162.358 c 0
 130.173 127.312 139.471 97.9873 156.637 74.3848 c 0
 174.518 51.4971 199.55 39.3379 231.735 39.3379 c 0
 256.77 39.3379 277.511 48.6357 293.962 65.8018 c 0
 309.697 83.6826 317.564 105.854 317.564 133.033 c 0
413.406 156.637 m 0
 413.406 127.312 407.684 102.278 397.67 81.5371 c 0
 387.656 60.0801 373.353 42.9141 356.187 29.3242 c 0
 338.306 15.7354 317.564 5.72168 294.677 -1.43066 c 0
 271.074 -8.58301 246.041 -11.4434 219.576 -11.4434 c 0
 195.26 -11.4434 171.657 -7.86719 149.484 -0.714844 c 0
 126.597 6.4375 107.285 17.166 90.1191 31.4707 c 0
 72.9541 45.7754 59.3643 62.9404 49.3516 82.9668 c 0
 38.623 102.994 33.6162 125.881 33.6162 152.345 c 0
 33.6162 173.802 35.7617 191.683 39.3379 206.702 c 0
 43.6289 221.008 49.3516 233.882 56.5039 245.324 c 0
 63.6562 256.77 72.9541 267.497 84.3975 277.511 c 0
 95.126 287.524 108.716 298.969 123.021 311.843 c 0
 125.881 313.987 129.457 316.133 132.318 318.994 c 0
 135.895 322.571 140.901 326.146 146.624 331.153 c 1
 141.616 336.875 136.609 342.598 131.604 346.888 c 0
 126.597 351.895 122.305 356.901 117.299 361.908 c 0
 104.424 373.353 92.9805 384.796 83.6826 394.809 c 0
 73.6689 404.822 65.8018 415.551 59.3643 426.995 c 0
 52.9277 438.438 47.9209 450.598 44.3447 464.902 c 0
 41.4834 479.206 39.3379 496.372 39.3379 515.685 c 0
 39.3379 540.718 44.3447 563.605 55.0732 582.916 c 0
 65.0859 602.228 78.6758 619.394 95.8418 632.982 c 0
 113.007 646.571 132.318 657.3 154.491 664.452 c 0
 176.662 671.604 199.55 675.182 222.438 675.182 c 0
 245.324 675.182 266.782 672.319 287.524 666.599 c 0
 308.982 660.877 327.577 651.578 343.312 639.419 c 0
 359.762 627.261 372.638 611.524 381.935 592.929 c 0
 390.519 574.333 395.525 552.876 395.525 527.127 c 0
 395.525 487.075 384.796 455.604 363.339 432.002 c 0
 341.882 408.399 314.703 386.941 281.088 366.2 c 1
 285.378 362.624 289.67 358.333 294.677 354.041 c 0
 298.969 349.034 303.976 345.458 308.982 341.167 c 0
 324.717 328.292 339.021 316.133 351.895 303.976 c 0
 364.054 291.816 375.498 278.226 384.796 264.637 c 0
 394.094 250.331 400.532 234.597 405.537 217.432 c 0
 410.544 200.266 413.406 180.239 413.406 156.637 c 0
EndSplineSet
Fore
SplineSet
28 157 m 0xe8
 28 259 100 298 179 324 c 1
 79 382 40 438 40 513 c 0
 40 618 127 688 264 688 c 0
 382 688 458 631 458 543 c 0xd4
 458 479 417 438 322 404 c 1
 429 335 472 274 472 187 c 0
 472 67 379 -13 240 -13 c 0
 113 -13 28 56 28 157 c 0xe8
297 422 m 1
 331 466 338 489 338 536 c 0
 338 614 308 659 250 659 c 0
 204 659 168 623 168 576 c 0
 168 520 214 464 297 422 c 1
201 306 m 1
 160 248 149 215 149 161 c 0
 149 72 185 19 246 19 c 0
 300 19 333 60 333 127 c 0xe8
 333 201 309 233 201 306 c 1
EndSplineSet
EndChar

StartChar: nine
Encoding: 57 57 26
Width: 499
Flags: MW
HStem: -13 26<31 141.803> 253 46<157.278 274.78> 661 27<195.395 281.698>
VStem: 26 153<352.519 558.608> 316 157<335.565 532.092>
LayerCount: 2
Back
SplineSet
339.737 392.663 m 2
 339.737 547.869 303.259 625.115 230.306 625.115 c 0
 171.657 625.115 142.332 572.902 142.332 468.479 c 0
 142.332 449.883 143.762 430.57 147.338 409.114 c 0
 150.914 388.373 155.921 369.775 163.788 353.326 c 0
 171.657 336.16 182.385 322.571 195.975 311.126 c 0
 210.279 299.684 227.444 294.677 248.901 294.677 c 0
 278.941 294.677 306.836 304.69 331.153 325.432 c 1
 336.875 328.292 339.737 337.591 339.737 354.757 c 2
 339.737 392.663 l 2
458.465 394.094 m 0
 458.465 282.518 424.135 189.538 356.187 114.438 c 0
 276.796 25.0332 177.379 -19.3115 58.6494 -19.3115 c 1
 52.9277 23.6025 l 1
 85.8281 27.1787 116.583 36.4766 145.908 50.0664 c 0
 174.518 63.6562 200.98 80.8213 223.868 101.563 c 0
 247.471 123.021 268.212 146.624 285.378 173.087 c 0
 303.259 199.55 316.85 227.444 326.863 257.484 c 1
 290.385 238.174 252.478 228.16 212.426 228.16 c 0
 156.637 228.16 111.576 248.901 75.8145 290.385 c 0
 45.0596 326.863 29.3242 374.067 29.3242 430.57 c 0
 29.3242 497.804 47.2051 555.021 82.252 600.797 c 0
 101.563 625.83 124.451 644.426 151.63 657.3 c 0
 178.809 669.459 208.134 675.182 240.318 675.182 c 0
 311.843 675.182 366.915 644.426 406.969 582.916 c 0
 441.3 528.559 458.465 465.617 458.465 394.094 c 0
EndSplineSet
Fore
SplineSet
31 -13 m 1
 31 13 l 1
 174 42 256 122 299 272 c 1
 272 259 246 253 208 253 c 0
 100 253 26 334 26 453 c 0
 26 589 116 688 242 688 c 0
 381 688 473 576 473 401 c 0
 473 275 419 168 316 91 c 0
 239 32 171 7 31 -13 c 1
316 458 m 0
 316 621 285 661 239 661 c 0
 190 661 179 631 179 516 c 0
 179 357 201 299 264 299 c 0
 278 299 297 303 305 308 c 1
 310 313 316 401 316 458 c 0
EndSplineSet
EndChar

StartChar: colon
Encoding: 58 58 27
Width: 332
Flags: W
HStem: -13 170<111.188 220.812> 303 169<110.781 220.812>
VStem: 82 168<14.032 126.836 330.729 443.14>
LayerCount: 2
Back
SplineSet
35.0469 404.107 m 0
 35.0469 385.512 40.0527 369.775 50.7812 357.618 c 0
 60.7949 344.743 74.3848 338.306 90.835 338.306 c 0
 107.285 338.306 120.875 344.743 131.604 357.618 c 0
 142.332 369.775 148.053 385.512 148.053 404.107 c 0
 148.053 422.703 142.332 438.438 131.604 451.312 c 0
 120.875 464.188 107.285 469.909 90.835 469.909 c 0
 74.3848 469.909 60.7949 464.188 50.7812 451.312 c 0
 40.0527 438.438 35.0469 422.703 35.0469 404.107 c 0
35.0469 57.2188 m 0
 35.0469 38.623 40.0527 22.8877 50.7812 10.0137 c 0
 60.7949 -2.14551 74.3848 -8.58301 90.835 -8.58301 c 0
 107.285 -8.58301 120.875 -2.14551 131.604 10.0137 c 0
 142.332 22.8877 148.053 38.623 148.053 57.2188 c 0
 148.053 75.8145 142.332 91.5498 131.604 103.709 c 0
 120.875 116.583 107.285 123.021 90.835 123.021 c 0
 74.3848 123.021 60.7949 116.583 50.7812 103.709 c 0
 40.0527 91.5498 35.0469 75.8145 35.0469 57.2188 c 0
EndSplineSet
Fore
SplineSet
166 157 m 0
 212 157 250 117 250 70 c 0
 250 23 212 -13 166 -13 c 0
 119 -13 82 23 82 72 c 0
 82 117 120 157 166 157 c 0
166 472 m 0
 212 472 250 434 250 387 c 0
 250 341 212 303 166 303 c 0
 119 303 82 340 82 390 c 0
 82 434 120 472 166 472 c 0
EndSplineSet
EndChar

StartChar: semicolon
Encoding: 59 59 28
Width: 332
Flags: MW
HStem: -6 161<106.651 167.885 137.268 197.798> 303 169<110.781 220.812>
VStem: 82 168<330.729 443.14> 198 69<-47.8892 51.996>
LayerCount: 2
Back
SplineSet
114.438 120.159 m 0
 111.576 122.305 107.285 123.021 102.278 123.735 c 0
 97.9873 124.451 92.9805 124.451 87.9736 124.451 c 0
 71.5234 124.451 57.2188 118.729 44.3447 107.285 c 0
 32.1855 95.126 26.4639 80.8213 26.4639 62.9404 c 0
 26.4639 46.4902 32.1855 32.1855 44.3447 20.7422 c 0
 57.2188 8.58301 71.5234 2.86133 87.9736 2.86133 c 0
 94.4111 2.86133 102.994 3.57617 113.007 5.72168 c 1
 113.007 -1.43066 l 2
 113.007 -16.4502 107.285 -30.04 96.5566 -43.6289 c 0
 85.8281 -57.9336 74.3848 -68.6621 61.5098 -77.9609 c 0
 55.7881 -82.252 50.7812 -85.8281 47.9209 -87.2588 c 0
 44.3447 -88.6895 42.1992 -89.4043 42.1992 -89.4043 c 1
 55.7881 -127.312 l 1
 55.7881 -127.312 61.5098 -124.451 72.9541 -118.729 c 0
 85.1133 -113.007 97.9873 -103.709 113.007 -90.835 c 0
 127.312 -77.9609 140.901 -62.2256 152.345 -43.6289 c 0
 163.788 -25.0332 170.226 -2.86133 170.226 23.6025 c 0
 170.226 48.6357 164.504 69.3779 153.06 85.8281 c 0
 141.616 101.563 128.742 113.007 114.438 120.159 c 0
27.8945 409.829 m 0
 27.8945 391.233 32.9004 376.213 42.9141 363.339 c 0
 53.6426 350.465 67.2324 344.027 83.6826 344.027 c 0
 100.133 344.027 113.723 350.465 124.451 363.339 c 0
 135.18 376.213 140.901 391.233 140.901 409.829 c 0
 140.901 428.425 135.18 444.161 124.451 457.035 c 0
 113.723 469.909 100.133 476.346 83.6826 476.346 c 0
 67.2324 476.346 53.6426 469.909 42.9141 457.035 c 0
 32.9004 444.161 27.8945 428.425 27.8945 409.829 c 0
EndSplineSet
Fore
SplineSet
82 72 m 0
 82 122 116 155 166 155 c 0
 226 155 267 108 267 40 c 0
 267 -47 215 -113 100 -180 c 1
 89 -158 l 1
 164 -105 198 -64 198 -25 c 0
 198 -15 190 -4 180 -4 c 0
 165 -4 166 -6 156 -6 c 0
 118 -6 82 22 82 72 c 0
166 472 m 0
 212 472 250 434 250 387 c 0
 250 341 212 303 166 303 c 0
 119 303 82 340 82 390 c 0
 82 434 120 472 166 472 c 0
EndSplineSet
EndChar

StartChar: less
Encoding: 60 60 29
Width: 569
Flags: W
HStem: -12 21G<493.439 539>
LayerCount: 2
Back
SplineSet
522.837 -12.874 m 1
 2.86133 222.438 l 1
 2.86133 297.537 l 1
 522.837 534.995 l 1
 522.837 454.175 l 1
 97.9873 261.062 l 1
 522.837 67.2324 l 1
 522.837 -12.874 l 1
EndSplineSet
Fore
SplineSet
539 -12 m 1
 31 211 l 1
 31 294 l 1
 539 519 l 1
 539 422 l 1
 154 253 l 1
 539 83 l 1
 539 -12 l 1
EndSplineSet
EndChar

StartChar: equal
Encoding: 61 61 30
Width: 569
Flags: W
HStem: 107 88<34 538> 311 87<34 538>
LayerCount: 2
Back
SplineSet
562.174 306.12 m 1
 45.0596 306.12 l 1
 45.0596 376.213 l 1
 562.174 376.213 l 1
 562.174 306.12 l 1
562.174 120.159 m 1
 45.0596 120.159 l 1
 45.0596 190.253 l 1
 562.174 190.253 l 1
 562.174 120.159 l 1
EndSplineSet
Fore
SplineSet
538 398 m 1
 538 311 l 1
 34 311 l 1
 34 398 l 1
 538 398 l 1
538 195 m 1
 538 107 l 1
 34 107 l 1
 34 195 l 1
 538 195 l 1
EndSplineSet
EndChar

StartChar: greater
Encoding: 62 62 31
Width: 569
Flags: W
HStem: -12 21G<31 76.5605>
LayerCount: 2
Back
SplineSet
562.174 222.438 m 1
 42.1992 -12.874 l 1
 42.1992 67.2324 l 1
 465.617 261.062 l 1
 42.1992 454.175 l 1
 42.1992 534.995 l 1
 562.174 297.537 l 1
 562.174 222.438 l 1
EndSplineSet
Fore
SplineSet
31 -12 m 1
 31 83 l 1
 416 253 l 1
 31 422 l 1
 31 519 l 1
 539 294 l 1
 539 211 l 1
 31 -12 l 1
EndSplineSet
EndChar

StartChar: question
Encoding: 63 63 32
Width: 499
Flags: W
HStem: -13 170<184.078 294.649> 469 21G<105.5 144> 653 35<159.024 262.555>
VStem: 57 94<538.834 615.2> 154 170<15.2109 126.509> 223 30<231 254.461 254.461 318.755> 296 149<443.748 603.594>
LayerCount: 2
Back
SplineSet
373.353 517.114 m 0
 373.353 537.857 370.492 557.882 364.769 577.194 c 0
 359.048 596.506 349.034 615.102 335.445 632.982 c 0
 316.133 656.585 292.531 672.319 265.352 680.188 c 0
 237.457 688.771 211.709 693.062 187.392 693.062 c 0
 165.219 693.062 143.762 689.485 123.021 681.618 c 0
 102.278 674.466 84.3975 663.737 69.3779 650.148 c 0
 54.3574 636.559 42.1992 620.108 32.9004 601.513 c 0
 23.6025 582.201 19.3115 560.743 19.3115 537.857 c 0
 19.3115 512.107 25.748 493.512 38.623 481.353 c 0
 52.2119 469.193 65.8018 462.757 80.8213 462.757 c 0
 94.4111 462.757 105.854 467.049 115.868 475.631 c 0
 125.166 483.498 130.173 496.372 130.173 512.823 c 2
 130.173 517.114 l 2
 130.173 524.267 128.742 532.134 125.166 541.433 c 0
 121.59 550.731 115.868 558.599 108.716 565.75 c 0
 103.709 570.042 100.133 575.048 97.2715 580.055 c 0
 95.126 585.062 93.6953 588.637 93.6953 590.068 c 0
 93.6953 602.228 101.563 612.956 117.299 623.684 c 0
 125.166 628.69 133.749 632.268 143.047 635.129 c 0
 152.345 637.274 160.928 638.704 168.795 638.704 c 0
 197.405 638.704 220.293 627.976 236.027 606.518 c 0
 251.763 585.062 258.915 557.882 258.915 525.697 c 0
 258.915 506.386 256.77 484.93 251.763 460.61 c 0
 246.756 437.009 238.174 410.544 225.3 382.649 c 2
 199.55 321.14 l 2
 179.524 273.219 170.226 220.293 170.226 162.358 c 1
 210.994 162.358 l 1
 221.723 219.576 231.021 254.623 238.889 269.644 c 0
 247.471 285.378 256.77 299.684 267.497 313.272 c 0
 277.511 326.863 288.239 341.167 298.969 354.757 c 0
 326.146 385.512 345.458 414.836 356.901 442.015 c 0
 367.631 469.909 373.353 494.942 373.353 517.114 c 0
128.742 57.2188 m 0
 128.742 39.3379 135.18 24.3184 147.338 12.1592 c 0
 159.498 0 174.518 -5.72168 191.683 -5.72168 c 0
 209.563 -5.72168 224.583 0 237.457 12.1592 c 0
 250.331 24.3184 256.055 39.3379 256.055 57.2188 c 0
 256.055 74.3848 250.331 90.1191 237.457 102.278 c 0
 224.583 115.152 209.563 121.59 191.683 121.59 c 0
 174.518 121.59 159.498 115.152 147.338 102.278 c 0
 135.18 90.1191 128.742 74.3848 128.742 57.2188 c 0
EndSplineSet
Fore
SplineSet
151 612 m 0xf6
 151 586 187 581 187 533 c 0
 187 495 163 469 125 469 c 0
 86 469 57 501 57 545 c 0
 57 628 135 688 245 688 c 0
 365 688 445 623 445 523 c 0xf6
 445 454 415 413 324 357 c 0xf8
 261 318 253 305 253 231 c 1
 223 231 l 1
 221 261 221 267 221 277 c 0
 221 356 296 403 296 523 c 0
 296 605 265 653 212 653 c 0
 176 653 151 637 151 612 c 0xf6
239 157 m 0
 286 157 324 117 324 70 c 0
 324 23 286 -13 239 -13 c 0
 190 -13 154 23 154 72 c 0xf8
 154 117 193 157 239 157 c 0
EndSplineSet
EndChar

StartChar: at
Encoding: 64 64 33
Width: 928
Flags: W
HStem: -19 45<383.405 616.899> 144 46<386.836 482.879> 144 36<614.137 700.884> 652 39<379.35 595.778>
VStem: 108 93<214.065 447.995> 319 76<207.543 365.03> 577 32<229 406> 775 47<278.043 481.191>
LayerCount: 2
Back
SplineSet
437.724 281.088 m 0
 445.591 301.113 452.743 319.71 458.465 339.021 c 0
 464.188 358.333 467.049 377.643 467.049 396.955 c 0
 467.049 429.855 458.465 447.021 440.584 447.021 c 0
 407.684 447.021 379.789 426.995 357.618 386.941 c 0
 346.888 366.915 338.306 348.319 331.868 330.438 c 0
 325.432 312.558 322.571 293.246 322.571 273.936 c 0
 322.571 228.875 337.591 206.702 369.061 206.702 c 0
 393.379 206.702 416.267 231.735 437.724 281.088 c 0
723.817 379.074 m 0
 723.817 319.71 707.366 266.782 675.182 219.576 c 0
 639.419 163.788 590.783 135.895 529.988 135.895 c 0
 513.538 135.895 499.233 139.471 487.79 145.908 c 0
 476.346 152.345 464.902 160.928 454.175 171.657 c 0
 451.312 175.232 448.451 178.809 446.307 182.385 c 0
 443.444 185.961 441.301 189.538 439.154 193.113 c 1
 416.267 171.657 l 2
 404.107 161.644 391.233 153.06 376.928 146.624 c 0
 363.339 139.471 349.034 135.895 335.445 135.895 c 0
 303.259 135.895 277.511 148.053 257.484 170.94 c 0
 238.174 193.828 228.16 226.729 228.16 271.074 c 0
 228.16 316.85 243.896 366.2 275.365 419.128 c 0
 313.272 483.498 366.2 515.685 433.432 515.685 c 0
 451.312 515.685 464.188 511.393 472.056 504.24 c 0
 480.638 496.372 487.075 489.22 492.082 483.498 c 1
 496.372 500.664 l 1
 594.36 500.664 l 1
 525.697 241.749 l 1
 524.267 218.146 l 1
 524.267 202.412 531.419 194.543 546.439 194.543 c 0
 565.035 194.543 580.77 200.98 594.36 213.854 c 0
 608.664 226.729 620.108 242.464 629.407 261.062 c 0
 638.704 278.941 645.142 298.969 650.148 321.14 c 0
 655.155 342.598 658.016 361.193 658.016 377.643 c 0
 658.016 411.975 650.148 444.161 635.129 474.199 c 0
 620.108 503.525 600.082 529.273 575.763 551.446 c 0
 551.446 573.618 522.837 590.783 491.365 602.942 c 0
 459.896 615.102 427.71 620.823 395.525 620.823 c 0
 351.895 620.823 313.987 612.241 281.803 595.79 c 0
 250.331 578.625 223.868 555.738 203.127 526.412 c 0
 181.669 497.804 165.934 464.188 155.921 426.28 c 0
 145.908 388.373 140.901 348.319 140.901 306.12 c 0
 140.901 270.358 148.053 236.027 161.644 204.557 c 0
 175.947 172.372 195.26 145.192 218.861 122.305 c 0
 243.181 99.418 271.074 81.5371 302.544 67.9473 c 0
 334.014 55.0732 368.346 48.6357 404.107 48.6357 c 0
 464.188 48.6357 529.273 65.0859 600.797 99.418 c 1
 622.254 47.2051 l 1
 577.909 27.1787 537.141 12.874 501.379 2.86133 c 0
 466.332 -7.15234 434.147 -11.4434 405.537 -11.4434 c 0
 286.81 -11.4434 191.683 25.0332 120.159 99.418 c 0
 88.6895 131.604 66.5166 165.934 52.2119 203.127 c 0
 37.9072 239.604 30.7549 276.796 30.7549 314.703 c 0
 30.7549 418.413 65.0859 504.24 134.464 572.902 c 0
 205.987 640.85 293.246 675.182 395.525 675.182 c 0
 484.213 675.182 560.028 648.718 622.254 596.506 c 0
 690.2 541.433 723.817 469.193 723.817 379.074 c 0
EndSplineSet
Fore
SplineSet
319 259 m 0xdf
 319 368 397 519 521 519 c 0
 558 519 573 508 595 466 c 1
 606 505 l 1
 677 505 l 1
 611 246 l 1
 609 242 609 234 609 229 c 0
 609 196 623 180 647 180 c 0
 713 180 775 278 775 385 c 0
 775 529 642 652 486 652 c 0
 319 652 201 516 201 325 c 0
 201 151 324 26 499 26 c 0
 565 26 617 40 699 76 c 1
 710 41 l 1
 614 -4 561 -19 486 -19 c 0
 274 -19 108 133 108 330 c 0
 108 532 275 691 485 691 c 0
 675 691 822 560 822 390 c 0
 822 256 735 144 633 144 c 0xbf
 583 144 546 173 539 218 c 1
 504 171 456 144 413 144 c 0
 360 144 319 193 319 259 c 0xdf
577 406 m 0
 584 545 395 443 395 277 c 0
 395 224 419 190 456 190 c 0xdf
 531 190 576 338 577 406 c 0
EndSplineSet
EndChar

StartChar: A
Encoding: 65 65 34
Width: 720
Flags: W
HStem: 0 25<136.236 212 365 381.231 381.231 442.08 639.596 688> 196 40<189 384> 670 20G<321.861 365.479>
LayerCount: 2
Back
SplineSet
246.041 269.644 m 1
 424.85 269.644 l 1
 336.875 480.638 l 1
 246.041 269.644 l 1
710.228 0 m 1
 434.862 0 l 1
 434.862 42.1992 l 1
 474.916 42.1992 l 2
 483.498 42.1992 489.936 45.0596 494.227 50.0664 c 0
 498.519 54.3574 500.664 59.3643 500.664 62.9404 c 0
 500.664 70.8086 499.233 80.1064 495.657 91.5498 c 0
 492.082 102.994 488.505 113.007 483.498 123.021 c 2
 448.451 203.842 l 1
 219.576 203.842 l 1
 180.239 100.848 l 1
 175.232 91.5498 173.087 80.8213 173.087 70.0928 c 0
 173.087 51.4971 194.543 42.1992 237.457 42.1992 c 1
 237.457 0 l 1
 16.4502 0 l 1
 16.4502 42.1992 l 1
 32.9004 42.1992 47.9209 47.9209 61.5098 57.9336 c 0
 75.0996 67.9473 85.8281 80.8213 93.6953 96.5566 c 1
 332.584 662.307 l 1
 386.941 662.307 l 1
 623.684 118.729 l 2
 637.989 88.6895 650.148 67.9473 661.592 57.9336 c 0
 672.319 47.9209 688.771 42.1992 710.228 42.1992 c 1
 710.228 0 l 1
EndSplineSet
Fore
SplineSet
688 25 m 1
 688 0 l 1
 365 0 l 1
 365 25 l 1
 379 26 393 28 397 28 c 0
 432 29 445 40 445 62 c 0
 445 83 434 119 398 196 c 1
 174 196 l 1
 160 158 l 2
 138 104 130 79 130 66 c 0
 130 40 152 29 212 25 c 1
 212 0 l 1
 9 0 l 1
 9 25 l 1
 57 34 69 48 107 142 c 2
 330 690 l 1
 357 690 l 1
 580 164 l 2
 630 45 646 25 686 25 c 2
 688 25 l 1
189 236 m 1
 384 236 l 1
 283 479 l 1
 189 236 l 1
EndSplineSet
EndChar

StartChar: B
Encoding: 66 66 35
Width: 666
Flags: W
HStem: 0 25<16 89.6834 271.699 398.639> 343 31<264 378.378> 650 27<16 90.4939 270.539 377.083>
VStem: 104 160<41.444 343 374 634.946> 420 164<440.426 591.533> 447 173<109.454 265.405>
LayerCount: 2
Back
SplineSet
461.325 482.068 m 0
 461.325 562.174 409.829 602.228 307.551 602.228 c 2
 265.352 602.228 l 2
 260.345 602.228 257.484 596.506 257.484 584.347 c 2
 257.484 376.213 l 1
 335.445 377.643 l 2
 419.128 379.789 461.325 414.836 461.325 482.068 c 0
482.068 185.961 m 0
 482.068 248.187 448.451 288.239 382.649 304.69 c 0
 357.618 310.412 316.133 313.272 257.484 313.272 c 1
 257.484 89.4043 l 2
 257.484 76.5303 262.49 67.9473 272.504 62.9404 c 2
 271.074 62.9404 l 2
 281.088 60.7949 296.106 60.0801 317.564 60.0801 c 0
 426.995 60.0801 482.068 102.278 482.068 185.961 c 0
625.115 181.669 m 0
 623.684 125.166 601.513 80.8213 559.313 48.6357 c 0
 517.83 16.4502 462.042 0 394.094 0 c 2
 33.6162 0 l 1
 33.6162 43.6289 l 1
 70.8086 43.6289 95.126 48.6357 108 57.2188 c 0
 120.159 65.8018 125.881 85.8281 125.881 117.299 c 2
 125.881 545.008 l 2
 125.881 564.32 124.451 580.055 121.59 592.214 c 0
 118.729 604.373 108.716 611.524 92.2656 613.671 c 2
 33.6162 620.823 l 1
 33.6162 662.307 l 1
 331.153 662.307 l 2
 505.671 662.307 592.929 603.657 592.929 487.79 c 0
 592.929 462.042 588.637 440.584 578.625 421.988 c 0
 568.612 403.393 556.453 386.941 540.718 373.353 c 0
 535.711 368.346 529.273 364.769 521.406 361.193 c 0
 513.538 357.618 505.671 354.041 496.372 349.75 c 1
 582.201 319.71 625.115 263.922 625.115 181.669 c 0
EndSplineSet
Fore
SplineSet
426 365 m 1xf8
 456 359 620 329 620 187 c 0xf4
 620 75 507 0 338 0 c 2
 16 0 l 1
 16 25 l 1
 89 34 104 45 104 97 c 2
 104 580 l 2
 104 631 85 647 16 650 c 1
 16 677 l 1
 325 677 l 2
 492 677 584 620 584 516 c 0
 584 439 542 398 426 365 c 1xf8
264 343 m 1
 264 92 l 2
 264 48 281 32 325 32 c 0
 406 32 447 82 447 179 c 0
 447 289 397 343 294 343 c 2
 264 343 l 1
264 598 m 2
 264 374 l 1
 387 376 420 404 420 508 c 0xf8
 420 603 388 646 318 646 c 0
 278 646 264 633 264 598 c 2
EndSplineSet
EndChar

StartChar: C
Encoding: 67 67 36
Width: 720
Flags: W
HStem: -19 48<342.637 524.56> 658 33<332.109 493.907>
VStem: 48 178<205.631 460.896>
LayerCount: 2
Back
SplineSet
637.274 121.59 m 1
 629.407 108 620.108 95.126 608.664 83.6826 c 0
 597.221 71.5234 582.916 60.0801 565.75 48.6357 c 0
 537.141 28.6094 506.386 13.5898 472.056 3.57617 c 0
 438.438 -6.4375 402.677 -11.4434 364.769 -11.4434 c 0
 313.272 -11.4434 266.067 -4.29102 223.868 10.7285 c 0
 182.385 26.4639 146.624 48.6357 118.729 79.3906 c 0
 60.0801 141.616 30.7549 223.153 30.7549 324.001 c 0
 30.7549 418.413 62.2256 500.664 125.881 570.042 c 0
 155.921 602.228 190.253 625.83 227.444 641.564 c 0
 265.352 657.3 305.405 665.169 346.888 665.169 c 0
 360.479 665.169 374.782 664.452 389.803 663.022 c 0
 404.107 661.592 418.413 660.162 431.287 658.73 c 0
 444.876 657.3 455.604 655.155 464.902 653.725 c 0
 474.2 652.293 480.638 651.578 483.498 650.148 c 2
 542.147 632.982 l 1
 553.592 633.697 563.605 643.711 571.473 663.737 c 1
 620.823 663.737 l 1
 630.122 427.71 l 1
 577.194 427.71 l 1
 565.75 483.498 542.147 526.412 508.531 555.738 c 0
 474.2 585.776 431.287 600.797 379.074 600.797 c 0
 314.703 600.797 266.067 571.473 233.167 514.253 c 0
 217.432 487.79 205.272 459.181 195.975 427.71 c 0
 187.392 396.24 183.1 360.479 183.1 321.14 c 0
 183.1 282.518 187.392 248.187 195.26 216.716 c 0
 203.842 185.246 217.432 157.352 236.027 131.604 c 0
 253.193 107.285 274.65 87.9736 298.969 73.6689 c 0
 323.286 60.0801 354.041 52.9277 391.233 52.9277 c 0
 461.325 52.9277 531.419 86.543 602.228 153.774 c 1
 637.274 121.59 l 1
EndSplineSet
Fore
SplineSet
428 29 m 0
 533 29 607 98 658 152 c 1
 687 127 l 1
 637 73 561 -19 403 -19 c 0
 196 -19 48 127 48 333 c 0
 48 538 198 691 397 691 c 0
 501 691 567 642 598 642 c 0
 617 642 628 653 642 688 c 1
 669 688 l 1
 669 454 l 1
 645 454 l 1
 627 493 551 658 410 658 c 0
 290 658 226 548 226 341 c 0
 226 242 240 168 270 116 c 0
 297 64 360 29 428 29 c 0
EndSplineSet
EndChar

StartChar: D
Encoding: 68 68 37
Width: 720
Flags: W
HStem: 0 25<15 82.0583> 0 35<264.34 406.868> 642 35<261.748 400.329> 650 27<15 83.9963>
VStem: 97 162<40.8712 635.09> 516 174<217.554 469.82>
LayerCount: 2
Back
SplineSet
575.763 329.724 m 0
 575.763 420.558 548.585 488.505 494.942 534.995 c 0
 469.909 557.167 440.584 574.333 406.969 585.776 c 0
 374.067 597.936 333.299 603.657 285.378 603.657 c 0
 271.789 603.657 263.207 602.228 260.345 600.082 c 0
 256.77 597.221 254.623 589.354 254.623 575.763 c 2
 254.623 89.4043 l 2
 254.623 75.8145 260.345 67.2324 270.358 64.3711 c 0
 280.371 61.5098 290.385 60.0801 298.969 60.0801 c 0
 393.379 60.0801 463.472 82.252 508.531 127.312 c 0
 552.876 172.372 575.763 239.604 575.763 329.724 c 0
723.817 329.724 m 0
 723.817 285.378 716.665 246.041 703.791 210.279 c 0
 690.917 174.518 671.604 142.332 645.856 114.438 c 0
 578.625 37.9072 476.346 0 339.737 0 c 2
 36.4766 0 l 1
 36.4766 43.6289 l 1
 52.9277 43.6289 67.2324 45.0596 77.9609 47.2051 c 0
 88.6895 48.6357 97.2715 52.2119 103.709 57.2188 c 0
 110.861 62.2256 115.152 69.3779 118.014 79.3906 c 0
 120.159 88.6895 121.59 101.563 121.59 117.299 c 2
 121.59 546.439 l 2
 121.59 567.181 120.159 582.916 117.299 595.79 c 0
 114.438 607.949 105.14 614.387 89.4043 616.531 c 2
 36.4766 620.823 l 1
 36.4766 663.737 l 1
 325.432 663.737 l 2
 442.015 663.737 535.711 637.989 605.088 587.208 c 0
 683.765 531.419 723.817 445.591 723.817 329.724 c 0
EndSplineSet
Fore
SplineSet
97 91 m 2x8c
 97 584 l 2
 97 630 78 645 15 650 c 1
 15 677 l 1x9c
 319 677 l 2
 549 677 690 551 690 346 c 0
 690 138 546 0 330 0 c 2x6c
 15 0 l 1
 15 25 l 1
 72 26 97 47 97 91 c 2x8c
516 330 m 0
 516 470 476 642 318 642 c 0
 278 642 259 630 259 606 c 2
 259 92 l 2
 259 48 272 35 316 35 c 0x6c
 436 35 516 114 516 330 c 0
EndSplineSet
EndChar

StartChar: E
Encoding: 69 69 38
Width: 666
Flags: W
HStem: 0 25<16 89.6834 274.751 474.895> 330 33<267 365.157> 642 35<270.3 479.247> 650 27<16 90.4939>
VStem: 104 163<41.2173 330 363 634.946> 428 26<174 261.583 430.367 513>
LayerCount: 2
Back
SplineSet
635.844 187.392 m 1
 585.776 0 l 1
 36.4766 0 l 1
 36.4766 43.6289 l 1
 68.6621 43.6289 90.835 49.3516 101.563 59.3643 c 0
 113.007 69.3779 118.729 88.6895 118.729 117.299 c 2
 118.729 546.439 l 2
 118.729 568.612 117.299 585.062 114.438 594.36 c 0
 111.576 604.373 102.278 610.81 86.543 613.671 c 2
 36.4766 620.823 l 1
 36.4766 663.737 l 1
 580.055 663.737 l 1
 580.055 499.233 l 1
 524.267 499.233 l 1
 517.83 548.585 504.956 577.909 486.359 588.637 c 0
 467.049 598.65 434.862 603.657 391.233 603.657 c 2
 273.936 603.657 l 2
 266.782 603.657 261.775 600.797 258.2 594.36 c 0
 255.338 588.637 253.193 582.201 253.193 575.763 c 2
 253.193 380.505 l 1
 377.643 380.505 l 2
 413.406 380.505 434.862 385.512 444.161 394.094 c 0
 455.604 404.107 464.188 429.855 469.909 471.339 c 1
 528.559 471.339 l 1
 528.559 223.868 l 1
 469.909 223.868 l 1
 464.188 266.782 456.319 292.531 447.021 300.398 c 0
 437.724 308.982 414.836 313.272 377.643 313.272 c 2
 253.193 313.272 l 1
 253.193 90.835 l 2
 253.193 82.252 256.77 75.0996 263.207 69.3779 c 0
 268.929 64.3711 281.088 61.5098 297.537 61.5098 c 2
 374.782 61.5098 l 2
 430.57 61.5098 470.624 68.6621 494.942 83.6826 c 0
 509.963 92.2656 524.267 105.14 537.857 122.305 c 0
 551.446 139.471 563.605 160.928 574.333 187.392 c 1
 635.844 187.392 l 1
EndSplineSet
Fore
SplineSet
349 31 m 0xec
 515 31 569 112 612 208 c 1
 642 208 l 1
 601 0 l 1
 16 0 l 1
 16 25 l 1
 89 34 104 44 104 97 c 2
 104 580 l 2
 104 631 85 647 16 650 c 1
 16 677 l 1
 593 677 l 1xdc
 593 475 l 1
 568 475 l 1
 543 608 494 642 331 642 c 0
 278 642 267 633 267 595 c 2
 267 363 l 1
 374 362 413 398 428 513 c 1
 454 513 l 1
 454 174 l 1
 428 174 l 1
 416 290 375 330 267 330 c 1
 267 86 l 2
 267 44 286 31 349 31 c 0xec
EndSplineSet
EndChar

StartChar: F
Encoding: 70 70 39
Width: 610
Flags: W
HStem: 0 25<16 89.6834 280.432 376> 330 33<267 356.52> 642 35<270.693 467.921> 650 27<16 90.4939>
VStem: 104 163<41.5 330 363 634.946> 419 25<174 260.979>
LayerCount: 2
Back
SplineSet
584.347 499.233 m 1
 527.127 499.233 l 1
 521.406 547.154 508.531 576.479 489.22 587.208 c 0
 469.909 597.221 438.438 602.228 395.525 602.228 c 2
 266.782 602.228 l 2
 256.77 602.228 251.763 594.36 251.763 580.055 c 2
 251.763 380.505 l 1
 373.353 380.505 l 2
 406.969 380.505 429.855 386.941 442.015 399.101 c 0
 454.89 411.26 462.757 434.862 465.617 469.909 c 1
 521.406 469.909 l 1
 521.406 222.438 l 1
 465.617 222.438 l 1
 462.757 258.915 454.89 283.232 441.3 296.822 c 0
 428.425 309.697 405.537 316.133 373.353 316.133 c 2
 251.763 316.133 l 1
 251.763 117.299 l 2
 251.763 88.6895 257.484 69.3779 269.644 59.3643 c 0
 281.088 49.3516 303.259 43.6289 335.445 43.6289 c 1
 335.445 0 l 1
 35.0469 0 l 1
 35.0469 43.6289 l 1
 72.9541 43.6289 97.2715 50.0664 107.285 61.5098 c 0
 113.723 71.5234 117.299 93.6953 117.299 128.742 c 2
 117.299 545.008 l 2
 117.299 560.743 115.868 572.902 113.723 581.486 c 0
 110.861 590.068 108 597.221 103.709 602.228 c 0
 100.133 607.234 96.5566 610.095 92.9805 611.524 c 0
 89.4043 612.956 87.2588 613.671 85.1133 613.671 c 2
 35.0469 620.823 l 1
 35.0469 662.307 l 1
 581.486 662.307 l 1
 584.347 499.233 l 1
EndSplineSet
Fore
SplineSet
560 475 m 1xdc
 537 570 521 642 330 642 c 0xec
 278 642 267 631 267 595 c 2
 267 363 l 1
 366 363 401 398 419 513 c 1
 444 513 l 1
 444 174 l 1
 419 174 l 1
 404 290 368 327 267 330 c 1
 267 97 l 2
 267 41 284 29 376 25 c 1
 376 0 l 1
 16 0 l 1
 16 25 l 1
 89 34 104 44 104 97 c 2
 104 580 l 2
 104 631 85 647 16 650 c 1
 16 677 l 1
 583 677 l 1
 583 475 l 1
 560 475 l 1xdc
EndSplineSet
EndChar

StartChar: G
Encoding: 71 71 40
Width: 777
Flags: W
HStem: -19 34<325.59 495.121> 262 25<412 499.697 684.902 754> 658 33<319.915 480.103>
VStem: 37 177<203.917 459.303> 513 156<42 86 86 245>
LayerCount: 2
Back
SplineSet
711.658 318.994 m 1
 680.903 316.133 663.737 313.272 660.877 310.412 c 0
 650.863 301.113 645.856 282.518 645.856 256.055 c 2
 645.856 67.2324 l 2
 645.856 61.5098 641.564 55.0732 633.697 49.3516 c 0
 625.115 42.9141 614.387 37.1924 601.513 31.4707 c 0
 587.923 26.4639 572.902 21.457 555.737 17.166 c 0
 538.572 12.1592 522.121 8.58301 505.671 4.29102 c 0
 480.638 -0.714844 460.61 -4.29102 444.161 -7.15234 c 0
 426.995 -10.0137 411.975 -11.4434 398.386 -11.4434 c 0
 277.511 -11.4434 183.814 22.8877 117.299 92.2656 c 0
 83.6826 127.312 61.5098 164.504 50.7812 204.557 c 0
 39.3379 243.896 33.6162 287.524 33.6162 335.445 c 0
 33.6162 431.287 66.5166 509.963 131.604 572.902 c 0
 163.073 602.942 200.266 625.83 242.464 641.564 c 0
 284.663 657.3 330.438 665.169 379.074 665.169 c 0
 388.373 665.169 398.386 664.452 409.114 664.452 c 0
 420.558 663.737 431.287 663.022 442.015 661.592 c 0
 453.458 660.162 463.472 658.73 472.056 657.3 c 0
 481.353 655.155 488.505 653.725 493.512 651.578 c 2
 552.161 632.982 l 1
 565.035 632.982 574.333 643.711 581.486 665.169 c 1
 634.412 665.169 l 1
 641.564 439.154 l 1
 590.068 439.154 l 1
 548.585 547.869 482.783 602.228 394.094 602.228 c 0
 356.901 602.228 325.432 595.075 300.398 580.77 c 0
 274.65 566.466 252.478 543.578 233.167 512.823 c 0
 216.001 485.645 204.557 455.604 196.688 423.418 c 0
 189.538 391.233 185.961 355.472 185.961 316.133 c 0
 185.961 278.226 190.253 243.181 199.55 210.994 c 0
 208.134 178.809 222.438 151.63 241.749 128.742 c 0
 265.352 102.278 288.955 82.9668 312.558 69.3779 c 0
 336.875 56.5039 366.915 50.0664 404.107 50.0664 c 0
 414.836 50.0664 426.995 50.7812 439.869 52.9277 c 0
 453.458 54.3574 465.617 57.2188 477.776 60.0801 c 0
 507.101 67.9473 521.406 78.6758 521.406 92.2656 c 2
 521.406 246.041 l 2
 521.406 268.212 519.975 284.663 516.399 294.677 c 0
 512.823 303.976 504.24 311.126 489.22 314.703 c 0
 480.638 317.564 464.188 318.994 439.154 318.994 c 1
 439.154 367.631 l 1
 711.658 367.631 l 1
 711.658 318.994 l 1
EndSplineSet
Fore
SplineSet
214 338 m 0
 214 98 295 15 417 15 c 0
 483 15 513 37 513 86 c 2
 513 192 l 2
 513 246 498 256 412 262 c 1
 412 287 l 1
 754 287 l 1
 754 262 l 1
 680 253 669 242 669 170 c 2
 669 42 l 1
 605 4 497 -19 393 -19 c 0
 183 -19 37 125 37 331 c 0
 37 538 186 691 385 691 c 0
 488 691 556 642 586 642 c 0
 605 642 617 653 630 688 c 1
 658 688 l 1
 658 454 l 1
 631 454 l 1
 598 530 574 564 532 602 c 0
 486 640 444 658 398 658 c 0
 277 658 214 546 214 338 c 0
EndSplineSet
EndChar

StartChar: H
Encoding: 72 72 41
Width: 777
Flags: W
HStem: 0 25<21 90.373 284.647 357 419 492.079 686.807 759> 327 47<268 508> 650 27<21 91.4584 283.354 357 419 493.319 685.924 759>
VStem: 105 163<42.7685 327 374 633.802> 508 163<42.7685 327 374 634.199>
LayerCount: 2
Back
SplineSet
732.4 622.254 m 1
 732.4 663.737 l 1
 426.28 663.737 l 1
 426.28 622.254 l 1
 426.995 622.254 432.002 622.254 440.584 621.538 c 0
 449.883 621.538 459.896 620.108 471.339 617.248 c 0
 483.498 615.102 491.365 611.524 496.372 606.518 c 0
 503.525 600.797 507.816 592.929 510.678 583.632 c 0
 512.823 574.333 514.253 560.028 514.253 540.718 c 2
 514.253 370.492 l 1
 257.484 370.492 l 1
 257.484 540.718 l 2
 257.484 560.028 258.915 574.333 261.775 583.632 c 0
 263.922 592.929 268.212 600.797 273.936 606.518 c 0
 279.656 611.524 288.239 615.102 300.398 617.248 c 0
 311.843 620.108 321.856 621.538 330.438 621.538 c 0
 338.306 622.254 343.312 622.254 344.027 622.254 c 1
 344.027 663.737 l 1
 37.9072 663.737 l 1
 37.9072 622.254 l 1
 40.0527 622.254 45.0596 622.254 54.3574 621.538 c 0
 62.9404 621.538 73.6689 620.108 86.543 617.248 c 0
 99.418 615.102 108 611.524 113.007 606.518 c 0
 118.014 601.513 120.875 594.36 122.305 585.062 c 0
 123.735 575.763 124.451 568.612 124.451 562.174 c 2
 124.451 125.881 l 2
 124.451 108.716 123.735 94.4111 123.021 84.3975 c 0
 122.305 73.6689 118.014 65.0859 111.576 57.2188 c 0
 107.285 52.9277 99.418 50.0664 86.543 48.6357 c 0
 73.6689 46.4902 62.9404 45.0596 54.3574 44.3447 c 0
 45.0596 44.3447 40.0527 43.6289 37.9072 43.6289 c 1
 37.9072 0 l 1
 344.027 0 l 1
 344.027 43.6289 l 1
 342.598 43.6289 336.875 44.3447 328.292 44.3447 c 0
 318.994 45.0596 308.266 46.4902 296.106 48.6357 c 0
 283.232 50.0664 274.65 52.9277 271.074 57.2188 c 0
 266.067 62.2256 262.49 69.3779 261.062 78.6758 c 0
 258.915 87.9736 257.484 105.854 257.484 133.033 c 2
 257.484 303.259 l 1
 514.253 303.259 l 1
 514.253 133.033 l 2
 514.253 105.854 512.823 87.9736 510.678 78.6758 c 0
 507.816 69.3779 504.24 62.2256 499.233 57.2188 c 0
 495.657 52.9277 487.075 50.0664 474.916 48.6357 c 0
 462.042 46.4902 451.312 45.0596 442.015 44.3447 c 0
 433.432 44.3447 428.425 43.6289 426.28 43.6289 c 1
 426.28 0 l 1
 732.4 0 l 1
 732.4 43.6289 l 1
 731.686 43.6289 725.962 44.3447 716.665 44.3447 c 0
 708.081 45.0596 697.354 46.4902 684.479 48.6357 c 0
 672.319 50.0664 664.452 52.9277 660.877 57.2188 c 0
 653.01 65.0859 648.718 73.6689 647.288 84.3975 c 0
 646.571 94.4111 645.856 108.716 645.856 125.881 c 2
 645.856 556.453 l 2
 645.856 561.459 646.571 570.042 648.003 581.486 c 0
 649.433 592.929 653.01 601.513 658.016 606.518 c 0
 662.307 611.524 671.604 615.102 683.765 617.248 c 0
 696.639 620.108 708.081 621.538 716.665 621.538 c 0
 725.962 622.254 731.686 622.254 732.4 622.254 c 1
EndSplineSet
Fore
SplineSet
508 327 m 1
 268 327 l 1
 268 97 l 2
 268 47 286 34 357 25 c 1
 357 0 l 1
 21 0 l 1
 21 25 l 1
 91 34 105 47 105 97 c 2
 105 580 l 2
 105 630 88 645 21 650 c 1
 21 677 l 1
 357 677 l 1
 357 650 l 1
 289 646 268 630 268 580 c 2
 268 374 l 1
 508 374 l 1
 508 580 l 2
 508 630 489 646 419 650 c 1
 419 677 l 1
 759 677 l 1
 759 650 l 1
 691 646 671 630 671 580 c 2
 671 97 l 2
 671 47 687 34 759 25 c 1
 759 0 l 1
 419 0 l 1
 419 25 l 1
 492 34 508 47 508 97 c 2
 508 327 l 1
EndSplineSet
EndChar

StartChar: I
Encoding: 73 73 42
Width: 388
Flags: W
HStem: 0 25<21 97.2209 289.176 371> 650 27<21 98.5129 289.822 371>
VStem: 113 162<42.1977 633.604>
LayerCount: 2
Back
SplineSet
334.014 0 m 1
 27.8945 0 l 1
 27.8945 43.6289 l 1
 62.2256 43.6289 85.1133 48.6357 96.5566 57.9336 c 0
 108.716 67.2324 114.438 87.2588 114.438 117.299 c 2
 114.438 545.008 l 2
 114.438 576.479 110.861 596.506 103.709 606.518 c 0
 99.418 612.956 89.4043 617.248 75.0996 617.963 c 0
 61.5098 619.394 45.0596 619.394 27.8945 619.394 c 1
 27.8945 662.307 l 1
 334.014 662.307 l 1
 334.014 619.394 l 1
 314.703 619.394 298.252 619.394 284.663 617.963 c 0
 271.789 617.248 262.49 612.956 257.484 606.518 c 0
 250.331 597.936 246.041 577.194 246.041 545.008 c 2
 246.041 117.299 l 2
 246.041 85.8281 251.763 65.8018 263.922 57.2188 c 0
 275.365 48.6357 298.969 43.6289 334.014 43.6289 c 1
 334.014 0 l 1
EndSplineSet
Fore
SplineSet
113 97 m 2
 113 580 l 2
 113 631 92 646 21 650 c 1
 21 677 l 1
 371 677 l 1
 371 650 l 1
 296 647 275 631 275 580 c 2
 275 97 l 2
 275 44 294 29 371 25 c 1
 371 0 l 1
 21 0 l 1
 21 25 l 1
 95 32 113 45 113 97 c 2
EndSplineSet
EndChar

StartChar: J
Encoding: 74 74 43
Width: 499
Flags: W
HStem: -97 34<121.233 213.991> 650 27<127 214.859 405.195 479>
VStem: 3 116<-39.1895 48.3474> 229 161<9.35706 23 23 634.125>
LayerCount: 2
Back
SplineSet
389.803 619.394 m 1
 341.882 619.394 314.703 608.664 308.982 587.208 c 0
 306.12 577.909 304.69 563.605 304.69 546.439 c 2
 304.69 188.821 l 2
 304.69 130.173 291.816 82.9668 265.352 47.2051 c 0
 234.597 7.86719 190.253 -11.4434 130.173 -11.4434 c 0
 102.994 -11.4434 80.8213 -6.4375 62.9404 4.29102 c 0
 36.4766 20.0264 23.6025 41.4834 23.6025 68.6621 c 0
 23.6025 82.252 28.6094 95.8418 39.3379 110.146 c 0
 50.0664 123.735 63.6562 130.173 80.8213 130.173 c 0
 103.709 130.173 120.875 123.021 130.888 108 c 0
 141.616 92.2656 146.624 76.5303 146.624 60.0801 c 0
 146.624 54.3574 147.338 50.7812 149.484 50.0664 c 0
 151.63 48.6357 153.06 48.6357 155.206 48.6357 c 0
 168.795 48.6357 175.947 65.0859 175.947 99.418 c 2
 175.947 546.439 l 2
 175.947 577.909 170.226 597.936 158.066 606.518 c 0
 146.624 615.102 123.735 619.394 89.4043 619.394 c 1
 89.4043 663.737 l 1
 389.803 663.737 l 1
 389.803 619.394 l 1
EndSplineSet
Fore
SplineSet
390 560 m 2
 390 123 l 2
 390 -21 316 -97 176 -97 c 0
 136 -97 97 -86 70 -73 c 0
 31 -50 3 -4 3 37 c 0
 3 75 37 108 73 108 c 0
 111 108 146 73 146 34 c 0
 146 -3 119 -4 119 -31 c 0
 119 -50 138 -63 164 -63 c 0
 209 -63 229 -38 229 23 c 2
 229 580 l 2
 229 634 208 647 127 650 c 1
 127 677 l 1
 479 677 l 1
 479 650 l 1
 404 646 390 631 390 560 c 2
EndSplineSet
EndChar

StartChar: K
Encoding: 75 75 44
Width: 777
Flags: W
HStem: 0 25<29 103.034 294.035 368 434 449.208 449.208 512.989 721.516 769> 650 27<29 104.14 294.035 368 447 465.277 465.277 530.563 644.907 735>
VStem: 117 161<42.9915 291 346 633>
LayerCount: 2
Back
SplineSet
745.274 0 m 1
 421.988 0 l 1
 421.988 43.6289 l 1
 443.444 43.6289 459.181 44.3447 468.479 45.0596 c 0
 478.491 46.4902 484.93 48.6357 487.79 52.9277 c 0
 488.505 53.6426 489.22 56.5039 489.22 60.0801 c 0
 489.22 65.8018 486.359 72.9541 480.638 81.5371 c 0
 474.916 89.4043 467.764 97.9873 459.896 107.285 c 2
 275.365 300.398 l 1
 265.352 290.385 l 1
 265.352 117.299 l 2
 265.352 103.709 266.067 91.5498 267.497 81.5371 c 0
 268.929 70.8086 271.789 63.6562 276.796 58.6494 c 0
 284.663 50.7812 296.106 46.4902 310.412 45.0596 c 0
 325.432 44.3447 338.306 43.6289 349.75 43.6289 c 1
 349.75 0 l 1
 43.6289 0 l 1
 43.6289 43.6289 l 1
 83.6826 43.6289 110.146 50.0664 123.021 62.9404 c 0
 125.881 65.8018 128.027 72.9541 128.742 85.1133 c 0
 130.173 96.5566 130.173 111.576 130.173 128.742 c 2
 130.173 545.008 l 2
 130.173 574.333 124.451 593.644 113.007 604.373 c 0
 100.848 614.387 77.9609 619.394 43.6289 619.394 c 1
 43.6289 663.737 l 1
 353.326 663.737 l 1
 353.326 619.394 l 1
 336.16 619.394 321.14 618.678 306.12 615.816 c 0
 291.816 613.671 281.088 609.38 275.365 603.657 c 0
 270.358 598.65 267.497 591.499 266.782 581.486 c 0
 265.352 571.473 265.352 559.313 265.352 545.008 c 2
 265.352 380.505 l 1
 445.591 545.008 l 2
 470.624 569.327 483.498 588.637 483.498 602.228 c 0
 483.498 613.671 460.61 619.394 416.267 619.394 c 1
 416.267 663.737 l 1
 698.784 663.737 l 1
 698.784 619.394 l 1
 685.194 619.394 672.319 619.394 660.162 617.963 c 0
 648.003 617.248 635.129 613.671 622.254 607.949 c 0
 611.524 602.942 600.797 595.79 589.354 585.776 c 0
 578.625 576.479 565.035 563.605 549.3 547.869 c 2
 374.782 376.213 l 1
 659.445 70.0928 l 2
 667.313 62.2256 678.758 56.5039 695.207 51.4971 c 0
 710.943 46.4902 728.108 43.6289 745.274 43.6289 c 1
 745.274 0 l 1
EndSplineSet
Fore
SplineSet
769 25 m 1
 769 0 l 1
 434 0 l 1
 434 25 l 1
 447 26 460 26 464 26 c 0
 498 28 513 34 513 45 c 0
 513 57 507 66 488 89 c 2
 306 316 l 1
 278 291 l 1
 278 97 l 2
 278 47 294 34 368 25 c 1
 368 0 l 1
 29 0 l 1
 29 25 l 1
 103 34 117 45 117 97 c 2
 117 580 l 2
 117 631 100 647 29 650 c 1
 29 677 l 1
 368 677 l 1
 368 650 l 1
 294 646 278 630 278 560 c 2
 278 346 l 1
 497 562 l 2
 527 595 532 602 532 618 c 0
 532 639 519 646 483 647 c 1
 478 649 464 650 447 650 c 1
 447 677 l 1
 735 677 l 1
 735 650 l 1
 639 643 603 618 415 423 c 1
 721 45 l 2
 732 31 744 26 769 25 c 1
EndSplineSet
EndChar

StartChar: L
Encoding: 76 76 45
Width: 666
Flags: W
HStem: 0 25<19 91.5898 274.67 468.836> 650 27<19 91.6614 282.305 368>
VStem: 105 162<41.2268 633.937>
LayerCount: 2
Back
SplineSet
638.704 193.113 m 1
 585.776 0 l 1
 37.9072 0 l 1
 37.9072 43.6289 l 1
 70.0928 43.6289 92.2656 49.3516 102.994 59.3643 c 0
 114.438 69.3779 120.159 88.6895 120.159 117.299 c 2
 120.159 546.439 l 2
 120.159 562.174 119.444 575.763 117.299 586.493 c 0
 115.152 597.936 111.576 604.373 107.285 606.518 c 2
 37.9072 620.823 l 1
 37.9072 663.737 l 1
 344.027 663.737 l 1
 344.027 620.823 l 1
 288.239 615.102 l 2
 281.803 614.387 275.365 611.524 269.644 606.518 c 0
 259.63 597.936 254.623 577.909 254.623 546.439 c 2
 254.623 90.835 l 2
 254.623 85.1133 255.338 80.8213 256.055 78.6758 c 0
 257.484 75.8145 259.63 72.9541 263.922 68.6621 c 0
 265.352 67.2324 271.074 65.0859 280.371 63.6562 c 0
 289.67 62.2256 298.252 61.5098 306.12 61.5098 c 2
 335.445 61.5098 l 2
 376.213 61.5098 409.114 62.9404 434.147 65.8018 c 0
 459.181 68.6621 477.776 72.9541 489.22 79.3906 c 0
 505.671 87.2588 522.121 100.133 537.857 118.729 c 0
 552.876 137.325 567.896 162.358 581.486 193.113 c 1
 638.704 193.113 l 1
EndSplineSet
Fore
SplineSet
347 31 m 0
 508 31 558 107 609 227 c 1
 639 227 l 1
 598 0 l 1
 19 0 l 1
 19 25 l 1
 92 34 105 45 105 97 c 2
 105 580 l 2
 105 631 86 647 19 650 c 1
 19 677 l 1
 368 677 l 1
 368 650 l 1
 281 647 267 634 267 560 c 2
 267 86 l 2
 267 44 286 31 347 31 c 0
EndSplineSet
EndChar

StartChar: M
Encoding: 77 77 46
Width: 943
Flags: W
HStem: 0 25<15 90.054 169.231 248 589 663.931 849.314 921> 650 27<16 92.3792 848.445 921>
VStem: 105 41<48.084 593.391> 678 155<42.3115 607.618>
LayerCount: 2
Back
SplineSet
905.486 0 m 1
 599.367 0 l 1
 599.367 43.6289 l 1
 619.394 43.6289 636.559 45.0596 649.433 47.9209 c 0
 663.022 50.0664 671.604 54.3574 676.611 60.0801 c 0
 683.765 70.0928 687.34 92.9805 687.34 128.742 c 2
 687.34 493.512 l 1
 464.188 0 l 1
 430.57 0 l 1
 212.426 474.916 l 1
 212.426 153.774 l 2
 212.426 110.861 216.001 82.252 222.438 68.6621 c 0
 232.45 52.2119 258.915 43.6289 303.259 43.6289 c 1
 303.259 0 l 1
 39.3379 0 l 1
 39.3379 43.6289 l 1
 85.1133 43.6289 111.576 50.7812 118.729 64.3711 c 0
 128.742 80.1064 133.033 110.146 133.033 153.774 c 2
 133.033 543.578 l 2
 133.033 574.333 128.742 595.075 118.729 605.088 c 0
 116.583 607.234 113.723 608.664 110.146 609.38 c 0
 105.854 610.095 102.278 611.524 97.9873 612.241 c 2
 42.1992 619.394 l 1
 42.1992 662.307 l 1
 263.922 662.307 l 1
 474.916 197.405 l 1
 678.043 662.307 l 1
 905.486 662.307 l 1
 905.486 617.963 l 1
 871.871 617.963 849.698 612.956 838.255 602.228 c 0
 827.525 591.499 821.804 571.473 821.804 543.578 c 2
 821.804 117.299 l 2
 821.804 77.9609 832.532 55.0732 853.99 48.6357 c 1
 905.486 42.1992 l 1
 905.486 0 l 1
EndSplineSet
Fore
SplineSet
678 609 m 1
 426 0 l 1
 398 0 l 1
 146 595 l 1
 146 125 l 2
 146 50 166 31 248 25 c 1
 248 0 l 1
 15 0 l 1
 15 25 l 1
 92 34 105 45 105 105 c 2
 105 580 l 2
 105 631 89 645 16 650 c 1
 16 677 l 1
 270 677 l 1
 469 204 l 1
 669 677 l 1
 921 677 l 1
 921 650 l 1
 848 646 833 631 833 560 c 2
 833 117 l 2
 833 45 844 35 921 25 c 1
 921 0 l 1
 589 0 l 1
 589 25 l 1
 664 32 678 44 678 100 c 2
 678 609 l 1
EndSplineSet
EndChar

StartChar: N
Encoding: 78 78 47
Width: 720
Flags: W
HStem: 0 25<16 87.375 172.383 243> 650 27<19 58.863 486 557.516 637.75 702>
VStem: 104 44<49.2746 526> 579 44<248 628.467>
LayerCount: 2
Back
SplineSet
748.85 619.394 m 1
 728.108 619.394 710.943 617.248 697.354 611.524 c 0
 683.765 606.518 674.466 599.367 669.459 591.499 c 0
 659.445 576.479 654.439 548.585 654.438 508.531 c 2
 654.438 -8.58301 l 1
 609.38 -8.58301 l 1
 208.134 492.082 l 1
 208.134 155.206 l 2
 208.134 111.576 211.709 82.252 218.146 68.6621 c 0
 226.729 52.2119 253.193 43.6289 297.537 43.6289 c 1
 297.537 0 l 1
 35.0469 0 l 1
 35.0469 43.6289 l 1
 80.1064 43.6289 107.285 52.9277 117.299 70.0928 c 0
 125.166 82.252 128.742 110.146 128.742 155.206 c 2
 128.742 577.194 l 1
 105.14 605.803 74.3848 619.394 35.0469 619.394 c 1
 35.0469 663.737 l 1
 230.306 663.737 l 1
 575.763 226.729 l 1
 575.763 508.531 l 2
 575.763 530.704 575.763 548.585 575.048 562.174 c 0
 574.333 576.479 572.188 586.493 568.612 592.929 c 0
 557.882 610.81 529.988 619.394 484.93 619.394 c 1
 484.93 663.737 l 1
 748.85 663.737 l 1
 748.85 619.394 l 1
EndSplineSet
Fore
SplineSet
230 677 m 1
 579 248 l 1
 579 552 l 2
 579 623 560 645 486 650 c 1
 486 677 l 1
 702 677 l 1
 702 650 l 1
 636 642 623 628 623 571 c 2
 623 -18 l 1
 595 -18 l 1
 148 526 l 1
 148 125 l 2
 148 53 166 34 243 25 c 1
 243 0 l 1
 16 0 l 1
 16 25 l 1
 89 34 104 48 104 105 c 2
 104 579 l 1
 56 636 40 650 19 650 c 1
 19 677 l 1
 230 677 l 1
EndSplineSet
EndChar

StartChar: O
Encoding: 79 79 48
Width: 777
Flags: W
HStem: -19 34<314.139 464.875> 658 33<316.418 459.531>
VStem: 35 177<208.056 461.802> 565 178<209.172 461.25>
LayerCount: 2
Back
SplineSet
37.9072 331.153 m 0
 37.9072 283.232 46.4902 238.174 63.6562 196.688 c 0
 80.8213 155.206 103.709 119.444 133.033 88.6895 c 0
 162.358 57.9336 197.405 33.6162 237.457 15.7354 c 0
 277.511 -2.86133 319.71 -11.4434 364.769 -11.4434 c 0
 410.544 -11.4434 453.458 -2.86133 492.797 15.7354 c 0
 532.134 33.6162 567.181 57.9336 597.221 88.6895 c 0
 626.545 119.444 650.148 155.206 667.313 196.688 c 0
 684.479 238.174 693.062 283.232 693.062 331.153 c 0
 693.062 379.074 684.479 423.418 667.313 464.902 c 0
 650.148 506.386 626.545 542.862 597.221 574.333 c 0
 567.181 605.803 532.134 630.122 492.797 648.003 c 0
 453.458 665.884 410.544 675.182 364.769 675.182 c 0
 319.71 675.182 277.511 665.884 237.457 648.003 c 0
 197.405 630.122 162.358 605.803 133.033 574.333 c 0
 103.709 542.862 80.8213 506.386 63.6562 464.902 c 0
 46.4902 423.418 37.9072 379.074 37.9072 331.153 c 0
180.239 331.153 m 0
 180.239 369.775 185.246 406.254 194.543 439.869 c 0
 204.557 474.199 217.432 502.811 234.597 527.844 c 0
 251.048 552.876 270.358 572.902 293.246 587.208 c 0
 315.418 602.228 339.737 609.38 366.2 609.38 c 0
 391.233 609.38 415.551 602.228 437.724 587.208 c 0
 460.61 572.902 479.923 552.876 496.372 527.844 c 0
 512.823 502.811 526.412 474.199 536.426 439.869 c 0
 545.725 406.254 550.731 369.775 550.731 331.153 c 0
 550.731 291.816 545.725 255.338 536.426 221.008 c 0
 526.412 186.676 512.823 157.352 496.372 132.318 c 0
 479.923 108 460.61 87.9736 437.724 72.9541 c 0
 415.551 58.6494 391.233 51.4971 366.2 51.4971 c 0
 339.737 51.4971 315.418 58.6494 293.246 72.9541 c 0
 270.358 87.9736 251.048 108 234.597 132.318 c 0
 217.432 157.352 204.557 186.676 194.543 221.008 c 0
 185.246 255.338 180.239 291.816 180.239 331.153 c 0
EndSplineSet
Fore
SplineSet
393 691 m 0
 595 691 743 541 743 335 c 0
 743 129 596 -19 390 -19 c 0
 182 -19 35 127 35 335 c 0
 35 543 185 691 393 691 c 0
393 658 m 0
 275 658 212 542 212 327 c 0
 212 125 274 15 390 15 c 0
 504 15 565 125 565 330 c 0
 565 538 502 658 393 658 c 0
EndSplineSet
EndChar

StartChar: P
Encoding: 80 80 49
Width: 610
Flags: W
HStem: 0 29<20.2531 82.4843 277.541 350> 303 35<262 380.585> 642 35<264.662 383.076> 650 27<16 84.25>
VStem: 100 162<42.9939 303 338 633.281> 428 173<409.157 575.671>
LayerCount: 2
Back
SplineSet
434.862 476.346 m 0
 434.862 517.83 421.988 550.015 396.24 571.473 c 0
 370.492 592.929 329.007 603.657 272.504 603.657 c 0
 262.49 603.657 256.055 602.228 252.478 600.082 c 0
 249.616 597.221 247.471 591.499 247.471 582.916 c 2
 247.471 344.027 l 1
 251.763 343.312 257.484 342.598 265.352 342.598 c 2
 291.816 342.598 l 2
 386.941 342.598 434.862 386.941 434.862 476.346 c 0
575.763 477.776 m 0
 575.763 442.015 567.181 411.26 550.015 384.796 c 0
 532.851 357.618 509.246 335.445 479.206 317.564 c 0
 455.604 303.976 429.141 293.962 399.101 287.524 c 0
 369.061 281.803 336.16 278.226 298.969 278.226 c 2
 247.471 278.226 l 1
 247.471 117.299 l 2
 247.471 87.9736 254.623 68.6621 268.212 58.6494 c 0
 281.803 48.6357 305.405 43.6289 338.306 43.6289 c 1
 338.306 0 l 1
 36.4766 0 l 1
 36.4766 43.6289 l 1
 55.0732 43.6289 70.8086 45.0596 82.9668 47.9209 c 0
 95.126 50.0664 102.994 53.6426 107.285 58.6494 c 0
 111.576 64.3711 114.438 72.9541 115.868 84.3975 c 0
 116.583 95.126 117.299 110.146 117.299 128.742 c 2
 117.299 546.439 l 2
 117.299 575.763 112.292 595.075 101.563 605.088 c 0
 91.5498 614.387 70.0928 619.394 36.4766 619.394 c 1
 36.4766 663.737 l 1
 308.982 663.737 l 2
 375.499 663.737 433.432 651.578 482.068 627.261 c 0
 544.293 593.644 575.763 543.578 575.763 477.776 c 0
EndSplineSet
Fore
SplineSet
262 303 m 1xec
 262 117 l 2
 262 44 271 35 350 25 c 1
 350 0 l 1
 16 0 l 1
 16 25 l 1
 26 26 37 29 40 29 c 0
 86 35 100 56 100 117 c 2
 100 560 l 2
 100 628 86 645 16 650 c 1
 16 677 l 1xdc
 338 677 l 2
 505 677 601 609 601 494 c 0
 601 417 557 356 475 325 c 0
 431 308 397 305 262 303 c 1xec
262 338 m 1
 376 338 428 356 428 489 c 0
 428 598 395 642 312 642 c 0xec
 278 642 262 628 262 606 c 2
 262 338 l 1
EndSplineSet
EndChar

StartChar: Q
Encoding: 81 81 50
Width: 777
Flags: MW
HStem: -176 47<523.919 696.281> -1 16<272 390> 658 33<314.78 462.26>
VStem: 35 177<207.236 456.833> 565 178<207.569 461.212>
LayerCount: 2
Back
SplineSet
23.6025 332.584 m 0
 23.6025 293.246 29.3242 256.055 40.0527 221.008 c 0
 51.4971 185.961 67.2324 153.774 87.2588 125.166 c 0
 107.285 96.5566 130.888 71.5234 158.066 50.7812 c 0
 185.246 29.3242 216.001 12.874 248.901 1.43066 c 1
 278.226 -40.7686 l 1
 309.697 -77.9609 348.319 -106.57 394.809 -126.597 c 0
 441.3 -146.624 494.942 -156.637 555.021 -156.637 c 2
 642.996 -156.637 l 1
 642.996 -113.007 l 1
 625.115 -113.007 607.234 -111.576 587.208 -109.431 c 0
 567.896 -106.57 548.585 -101.563 528.559 -93.6953 c 0
 509.246 -85.8281 489.936 -75.0996 470.624 -60.7949 c 0
 452.028 -46.4902 434.862 -28.6094 420.558 -5.72168 c 1
 457.75 2.86133 491.365 17.8809 522.837 37.9072 c 0
 554.307 58.6494 580.77 83.6826 603.657 113.723 c 0
 625.83 143.047 643.711 176.662 657.3 213.854 c 0
 670.175 251.048 676.611 290.385 676.611 332.584 c 0
 676.611 380.505 668.029 425.564 650.863 467.049 c 0
 633.697 509.246 610.81 546.439 580.77 577.909 c 0
 550.731 609.38 516.399 634.412 477.062 652.293 c 0
 437.009 670.891 394.809 679.473 349.75 679.473 c 0
 305.405 679.473 263.207 670.891 223.153 652.293 c 0
 183.814 634.412 149.484 609.38 119.444 577.909 c 0
 89.4043 546.439 66.5166 509.246 49.3516 467.049 c 0
 32.1855 425.564 23.6025 380.505 23.6025 332.584 c 0
168.795 331.153 m 0
 168.795 369.061 173.087 404.822 182.385 438.438 c 0
 191.683 472.056 204.557 501.379 221.008 526.412 c 0
 237.457 551.446 257.484 571.473 279.656 585.776 c 0
 302.544 600.797 326.146 607.949 351.895 607.949 c 0
 376.928 607.949 400.532 600.797 422.703 585.776 c 0
 444.876 571.473 464.188 551.446 480.638 526.412 c 0
 497.087 501.379 509.963 472.056 519.26 438.438 c 0
 528.559 404.822 532.851 369.061 532.851 331.153 c 0
 532.851 293.246 528.559 256.77 519.26 223.153 c 0
 509.963 189.538 497.087 160.213 480.638 135.18 c 0
 464.188 110.861 444.876 90.835 422.703 75.8145 c 0
 400.532 61.5098 376.928 54.3574 351.895 54.3574 c 0
 326.146 54.3574 302.544 61.5098 279.656 75.8145 c 0
 257.484 90.835 237.457 110.861 221.008 135.18 c 0
 204.557 160.213 191.683 189.538 182.385 223.153 c 0
 173.087 256.77 168.795 293.246 168.795 331.153 c 0
EndSplineSet
Fore
SplineSet
491 -6 m 1
 505 -36 548 -129 664 -129 c 0
 683 -129 699 -126 729 -117 c 1
 735 -141 l 1
 661 -168 618 -176 557 -176 c 0
 469 -176 385 -144 330 -88 c 0
 306 -64 294 -45 272 -1 c 1
 196 26 166 45 125 92 c 0
 66 157 35 240 35 331 c 0
 35 539 185 691 390 691 c 0
 595 691 743 542 743 334 c 0
 743 237 710 151 649 86 c 0
 606 40 571 21 491 -6 c 1
390 658 m 0
 275 658 212 541 212 331 c 0
 212 123 272 15 390 15 c 0
 504 15 565 125 565 330 c 0
 565 538 502 658 390 658 c 0
EndSplineSet
EndChar

StartChar: R
Encoding: 82 82 51
Width: 720
Flags: W
HStem: 0 25<26 99.25 291.588 365 694.738 715> 313 33<275 303> 642 35<300.879 413.37> 650 27<26 98.9184>
VStem: 114 161<43.3169 313 346 615.068> 458 172<419.323 578.088>
LayerCount: 2
Back
SplineSet
442.015 484.93 m 0
 442.015 524.267 429.855 553.592 404.822 573.618 c 0
 379.789 593.644 344.743 603.657 298.969 603.657 c 0
 276.081 603.657 263.922 602.228 261.062 600.797 c 0
 256.055 597.936 253.193 590.783 253.193 580.055 c 2
 253.193 356.187 l 1
 281.088 356.187 303.259 357.618 321.856 361.193 c 0
 339.737 364.769 356.187 369.061 370.492 374.782 c 0
 418.413 394.809 442.015 431.287 442.015 484.93 c 0
688.771 0 m 1
 505.671 0 l 1
 276.796 296.106 l 1
 253.193 294.677 l 1
 253.193 117.299 l 2
 253.193 88.6895 258.915 69.3779 271.074 59.3643 c 0
 282.518 49.3516 305.405 43.6289 338.306 43.6289 c 1
 338.306 0 l 1
 37.9072 0 l 1
 37.9072 43.6289 l 1
 57.9336 43.6289 73.6689 45.7754 85.8281 49.3516 c 0
 97.9873 52.2119 105.854 56.5039 110.146 60.0801 c 0
 115.868 65.8018 118.729 88.6895 118.729 128.742 c 2
 118.729 546.439 l 2
 118.729 560.743 118.014 573.618 116.583 583.632 c 0
 115.152 593.644 112.292 600.797 108.716 605.088 c 0
 98.7021 614.387 75.0996 619.394 37.9072 619.394 c 1
 37.9072 663.737 l 1
 324.001 663.737 l 2
 496.372 663.737 582.916 603.657 582.916 483.498 c 0
 582.916 397.67 527.844 340.452 417.696 311.843 c 1
 602.228 85.1133 l 2
 613.671 70.0928 626.545 60.0801 640.135 53.6426 c 0
 653.725 47.2051 670.176 43.6289 688.771 43.6289 c 1
 688.771 0 l 1
EndSplineSet
Fore
SplineSet
715 25 m 1xec
 715 0 l 1
 510 0 l 1
 303 313 l 1
 275 313 l 1
 275 117 l 2
 275 45 286 35 365 25 c 1
 365 0 l 1
 26 0 l 1
 26 25 l 1
 104 34 114 44 114 117 c 2
 114 560 l 2
 114 631 100 646 26 650 c 1
 26 677 l 1xdc
 349 677 l 2
 532 677 630 612 630 498 c 0
 630 364 490 335 473 330 c 1
 674 44 l 2
 684 31 697 25 715 25 c 1xec
275 346 m 1
 396 346 458 361 458 494 c 0
 458 599 422 642 330 642 c 0xec
 305 642 289 637 283 627 c 0
 280 621 275 606 275 601 c 2
 275 346 l 1
EndSplineSet
EndChar

StartChar: S
Encoding: 83 83 52
Width: 555
Flags: MW
HStem: -19 34<182.567 349.08> 661 30<191.307 341.316>
VStem: 44 108<450.25 587.09> 394 119<100.444 228.631>
LayerCount: 2
Back
SplineSet
493.512 173.087 m 0
 493.512 118.014 470.624 72.2383 424.85 35.0469 c 0
 404.107 20.7422 381.22 9.29785 355.472 1.43066 c 0
 329.007 -6.4375 302.544 -10.0137 273.936 -10.0137 c 0
 263.207 -10.0137 251.048 -9.29785 236.742 -7.15234 c 0
 222.438 -5.72168 206.702 -2.14551 190.253 2.86133 c 0
 159.498 13.5898 138.04 19.3115 127.312 19.3115 c 0
 118.014 19.3115 113.007 9.29785 113.007 -10.0137 c 1
 64.3711 -10.0137 l 1
 35.0469 215.286 l 1
 79.3906 215.286 l 1
 102.278 158.066 128.027 115.152 155.206 87.2588 c 0
 182.385 59.3643 216.001 45.0596 254.623 45.0596 c 0
 282.518 45.0596 305.405 54.3574 325.432 72.2383 c 0
 344.743 90.835 354.757 113.007 354.757 140.901 c 0
 354.757 175.947 339.021 207.419 307.551 236.027 c 0
 301.113 241.749 288.955 250.331 273.219 261.062 c 0
 256.77 271.789 236.027 283.948 210.994 298.969 c 0
 160.928 329.007 125.881 354.757 105.14 374.782 c 0
 72.2383 409.114 55.7881 450.598 55.7881 499.233 c 0
 55.7881 525.697 60.7949 550.015 70.0928 571.473 c 0
 80.1064 592.929 93.6953 611.524 111.576 627.261 c 0
 128.742 642.281 149.484 654.439 172.372 663.022 c 0
 195.26 670.891 219.576 675.182 246.041 675.182 c 0
 256.055 675.182 267.497 673.751 280.371 671.604 c 0
 293.962 669.459 309.697 665.169 329.724 659.445 c 2
 380.505 642.996 l 1
 387.656 645.856 393.379 656.585 398.386 675.182 c 1
 444.161 675.182 l 1
 465.617 445.591 l 1
 417.696 445.591 l 1
 411.26 470.624 404.107 492.797 394.809 512.823 c 0
 385.512 532.134 373.353 550.015 359.048 565.75 c 0
 328.292 595.79 293.246 610.81 253.193 610.81 c 0
 231.021 610.81 213.14 603.657 200.98 589.354 c 0
 188.106 575.763 181.669 556.453 181.669 532.851 c 0
 181.669 499.233 205.987 465.617 254.623 432.002 c 2
 405.537 332.584 l 2
 464.188 293.246 493.512 240.318 493.512 173.087 c 0
EndSplineSet
Fore
SplineSet
264 691 m 0
 351 691 390 658 422 658 c 0
 439 658 447 666 454 691 c 1
 483 691 l 1
 483 475 l 1
 456 475 l 1
 437 541 420 568 387 603 c 0
 350 642 308 661 264 661 c 0
 195 661 152 623 152 560 c 0
 152 513 174 486 256 447 c 2
 403 374 l 2
 467 341 513 267 513 192 c 0
 513 66 413 -19 265 -19 c 0
 175 -19 120 15 94 15 c 0
 78 15 70 6 64 -19 c 1
 35 -19 l 1
 35 229 l 1
 64 229 l 1
 72 197 105 15 268 15 c 0
 346 15 394 59 394 127 c 0
 394 180 371 207 283 248 c 2
 215 280 l 2
 97 337 44 400 44 488 c 0
 44 614 127 691 264 691 c 0
EndSplineSet
EndChar

StartChar: T
Encoding: 84 84 53
Width: 666
Flags: W
HStem: 0 25<157 238.098 430.129 513> 645 32<149.378 253 415 518.096>
VStem: 31 29<475 551.484> 253 162<41.3884 645> 606 30<475 555.406>
LayerCount: 2
Back
SplineSet
610.81 474.916 m 1
 556.452 474.916 l 1
 545.725 529.988 532.134 563.605 515.685 575.763 c 0
 504.956 582.201 492.797 587.922 479.206 592.214 c 0
 465.617 597.221 447.021 599.367 423.418 599.367 c 2
 385.512 599.367 l 1
 385.512 117.299 l 2
 385.512 87.9736 390.519 68.6621 401.962 58.6494 c 0
 413.406 48.6357 436.294 43.6289 471.339 43.6289 c 1
 471.339 0 l 1
 165.219 0 l 1
 165.219 43.6289 l 1
 188.106 43.6289 204.557 45.7754 215.286 49.3516 c 0
 226.015 52.2119 234.597 56.5039 240.318 61.5098 c 1
 238.889 61.5098 l 1
 246.756 69.3779 250.331 91.5498 250.331 128.742 c 2
 250.331 599.367 l 1
 213.854 599.367 l 2
 189.538 599.367 170.226 597.221 155.206 593.644 c 0
 140.901 590.783 128.742 585.062 120.159 577.194 c 0
 103.709 564.32 89.4043 529.988 77.9609 474.916 c 1
 25.0332 474.916 l 1
 32.1855 663.737 l 1
 603.657 663.737 l 1
 610.81 474.916 l 1
EndSplineSet
Fore
SplineSet
253 117 m 2
 253 645 l 1
 129 640 78 595 60 475 c 1
 31 475 l 1
 34 677 l 1
 634 677 l 1
 636 475 l 1
 606 475 l 1
 590 595 538 640 415 645 c 1
 415 117 l 2
 415 41 426 31 513 25 c 1
 513 0 l 1
 157 0 l 1
 157 25 l 1
 242 32 253 42 253 117 c 2
EndSplineSet
EndChar

StartChar: U
Encoding: 85 85 54
Width: 720
Flags: W
HStem: -19 48<319.829 486.481> 650 27<16 84.3261 305.856 354 480 556.616 639.239 702>
VStem: 98 158<103.463 635.262> 579 44<122.427 627.858>
LayerCount: 2
Back
SplineSet
735.261 620.823 m 1
 689.485 617.963 663.022 608.664 656.585 592.929 c 0
 649.433 579.34 645.856 551.446 645.856 508.531 c 2
 645.856 257.484 l 2
 645.856 223.868 642.996 192.398 637.989 164.504 c 0
 632.268 136.609 624.4 113.007 613.671 93.6953 c 0
 592.929 58.6494 562.889 32.1855 522.121 14.3047 c 0
 481.353 -2.86133 432.717 -11.4434 374.782 -11.4434 c 0
 290.385 -11.4434 225.3 9.29785 181.669 52.2119 c 0
 138.04 94.4111 115.868 158.781 115.868 244.61 c 2
 115.868 546.439 l 2
 115.868 575.763 109.431 595.075 97.2715 605.088 c 0
 85.1133 614.387 62.2256 619.394 27.8945 619.394 c 1
 27.8945 663.737 l 1
 336.875 663.737 l 1
 336.875 619.394 l 1
 301.829 619.394 278.226 615.102 266.067 606.518 c 0
 253.908 597.936 247.471 577.909 247.471 546.439 c 2
 247.471 237.457 l 2
 247.471 115.152 298.969 54.3574 402.677 54.3574 c 0
 469.909 54.3574 519.26 77.9609 549.3 124.451 c 0
 562.174 143.762 568.612 185.246 568.612 247.471 c 2
 568.612 508.531 l 2
 568.612 552.876 564.32 580.77 556.452 591.499 c 0
 543.578 610.095 517.83 619.394 477.776 619.394 c 1
 477.776 663.737 l 1
 735.261 663.737 l 1
 735.261 620.823 l 1
EndSplineSet
Fore
SplineSet
623 565 m 2
 623 248 l 2
 623 154 598 78 552 40 c 0
 508 3 439 -19 365 -19 c 0
 291 -19 229 -1 180 34 c 0
 119 78 98 127 98 226 c 2
 98 560 l 2
 98 631 86 645 16 650 c 1
 16 677 l 1
 354 677 l 1
 354 650 l 1
 306 649 290 645 278 636 c 1
 264 621 256 599 256 560 c 2
 256 226 l 2
 256 89 302 29 404 29 c 0
 523 29 579 100 579 248 c 2
 579 552 l 2
 579 625 560 645 480 650 c 1
 480 677 l 1
 702 677 l 1
 702 650 l 1
 637 642 623 625 623 565 c 2
EndSplineSet
EndChar

StartChar: V
Encoding: 86 86 55
Width: 720
Flags: W
HStem: -18 21G<347.467 389.816> 650 27<16 73.6315 270.151 335.269 335.269 352 488 569.699 643.602 702>
LayerCount: 2
Back
SplineSet
711.658 620.823 m 1
 693.062 620.823 680.903 619.394 675.182 616.531 c 0
 662.307 611.524 653.725 605.803 648.718 599.367 c 0
 643.711 592.214 640.85 586.493 638.704 581.486 c 2
 405.537 -8.58301 l 1
 357.618 -8.58301 l 1
 115.868 527.127 l 1
 108 547.154 100.133 563.605 92.2656 577.194 c 0
 84.3975 590.783 77.9609 600.082 72.9541 605.088 c 0
 64.3711 612.956 55.0732 617.248 45.0596 618.678 c 0
 35.7617 620.108 25.0332 620.823 12.874 620.823 c 1
 12.874 663.737 l 1
 304.69 663.737 l 1
 304.69 620.823 l 1
 269.644 620.823 246.756 617.963 237.457 612.241 c 0
 235.312 611.524 233.882 609.38 233.882 606.518 c 0
 233.167 603.657 233.167 600.797 233.167 597.936 c 0
 233.167 593.644 236.027 583.632 243.181 567.896 c 0
 250.331 551.446 259.63 529.273 272.504 500.664 c 2
 402.677 205.272 l 1
 531.419 528.559 l 2
 535.711 538.572 539.287 548.585 542.147 557.882 c 0
 545.008 567.896 547.154 577.909 549.3 588.637 c 0
 549.3 610.095 525.697 620.823 479.206 620.823 c 1
 479.206 663.737 l 1
 711.658 663.737 l 1
 711.658 620.823 l 1
EndSplineSet
Fore
SplineSet
702 677 m 1
 702 650 l 1
 649 645 636 631 611 568 c 2
 382 -18 l 1
 356 -18 l 1
 100 582 l 2
 75 636 66 645 16 650 c 1
 16 677 l 1
 352 677 l 1
 352 650 l 1
 337 650 324 649 319 649 c 0
 281 647 267 636 267 612 c 0
 267 598 270 586 289 541 c 2
 428 207 l 1
 554 536 l 2
 571 579 574 590 574 606 c 0
 574 639 560 646 488 650 c 1
 488 677 l 1
 702 677 l 1
EndSplineSet
EndChar

StartChar: W
Encoding: 87 87 56
Width: 998
Flags: W
HStem: -15 21G<292.957 335.815 678.773 718.678> 650 27<19 68.8017 252.065 313 387 451.248 629.3 699 798 864.691 934.567 981>
LayerCount: 2
Back
SplineSet
975.58 622.254 m 1
 951.262 617.963 934.096 611.524 924.082 605.088 c 0
 914.785 597.936 905.486 586.493 897.619 570.042 c 1
 691.632 -8.58301 l 1
 644.426 -8.58301 l 1
 631.552 27.1787 612.956 77.9609 588.638 142.332 c 0
 564.32 206.702 534.28 283.232 497.804 371.922 c 1
 357.618 -8.58301 l 1
 316.133 -8.58301 l 1
 125.881 515.685 l 1
 111.576 557.882 100.848 582.201 95.126 588.637 c 0
 82.252 607.234 58.6494 617.963 23.6025 620.823 c 1
 23.6025 663.737 l 1
 297.537 663.737 l 1
 297.537 619.394 l 1
 286.81 619.394 278.226 619.394 273.219 618.678 c 0
 267.497 618.678 263.207 617.963 258.915 616.531 c 0
 252.478 615.816 244.61 612.956 236.027 609.38 c 1
 236.027 601.513 236.027 594.36 236.742 587.208 c 0
 236.742 580.77 239.604 571.473 244.61 560.743 c 1
 371.922 231.735 l 1
 461.325 467.049 l 1
 432.002 542.147 l 2
 418.413 575.048 407.684 595.79 399.815 603.657 c 0
 389.088 614.387 366.2 619.394 331.153 619.394 c 1
 331.153 663.737 l 1
 627.261 663.737 l 1
 627.261 619.394 l 1
 577.909 619.394 552.876 612.241 550.731 597.936 c 1
 555.021 578.625 l 1
 691.632 230.306 l 1
 801.062 522.837 l 2
 806.069 536.426 809.645 548.585 811.791 559.313 c 0
 813.222 570.042 814.651 580.055 814.651 588.637 c 0
 814.651 601.513 810.361 610.095 802.493 613.671 c 1
 748.85 620.823 l 1
 748.85 663.737 l 1
 975.58 663.737 l 1
 975.58 622.254 l 1
EndSplineSet
Fore
SplineSet
981 677 m 1
 981 650 l 1
 948 647 924 627 913 587 c 2
 712 -15 l 1
 686 -15 l 1
 514 461 l 1
 328 -15 l 1
 300 -15 l 1
 88 587 l 2
 70 636 62 645 19 650 c 1
 19 677 l 1
 313 677 l 1
 313 650 l 1
 261 647 249 639 249 609 c 0
 249 601 250 592 256 576 c 2
 376 212 l 1
 494 520 l 1
 458 617 l 2
 448 640 428 649 387 650 c 1
 387 677 l 1
 699 677 l 1
 699 650 l 1
 686 650 l 2
 642 647 627 639 627 614 c 0
 627 605 631 590 642 558 c 2
 749 223 l 1
 861 565 l 2
 866 579 869 595 869 606 c 0
 869 639 853 647 798 650 c 1
 798 677 l 1
 981 677 l 1
EndSplineSet
EndChar

StartChar: X
Encoding: 88 88 57
Width: 720
Flags: W
HStem: 0 25<16 83.833 191.531 267 359 373.185 373.185 437.2 650.405 699> 650 27<18 69.7874 285.351 347.769 347.769 363 438 508.064 611.33 688>
LayerCount: 2
Back
SplineSet
748.85 0 m 1
 426.28 0 l 1
 426.28 42.1992 l 1
 454.89 44.3447 474.199 47.9209 484.93 52.9277 c 0
 495.657 57.9336 500.664 62.2256 500.664 65.8018 c 0
 500.664 73.6689 497.804 82.9668 490.65 94.4111 c 0
 484.213 105.854 473.485 122.305 458.465 143.762 c 2
 379.074 265.352 l 1
 276.796 139.471 l 2
 246.756 100.133 231.735 75.8145 231.735 65.8018 c 0
 231.735 51.4971 255.338 43.6289 303.259 43.6289 c 1
 303.259 0 l 1
 43.6289 0 l 1
 43.6289 42.1992 l 1
 59.3643 44.3447 72.9541 46.4902 85.1133 48.6357 c 0
 96.5566 50.0664 105.14 54.3574 110.146 60.0801 c 2
 146.624 99.418 l 1
 145.192 99.418 l 1
 331.153 328.292 l 1
 231.735 474.916 l 2
 185.246 543.578 152.345 585.776 131.604 600.797 c 0
 125.881 605.803 116.583 609.38 102.994 612.241 c 0
 90.1191 615.102 73.6689 617.963 54.3574 620.823 c 1
 54.3574 663.737 l 1
 382.649 663.737 l 1
 382.649 619.394 l 1
 364.769 619.394 349.75 619.394 337.591 618.678 c 0
 325.432 618.678 318.279 617.963 316.133 616.531 c 0
 313.272 614.387 310.412 612.956 306.836 610.81 c 0
 303.259 608.664 301.829 606.518 301.829 603.657 c 0
 301.829 594.36 309.697 578.625 325.432 555.738 c 0
 341.167 532.851 361.908 502.811 388.373 465.617 c 2
 416.267 424.85 l 1
 543.578 580.055 l 2
 548.585 587.208 550.731 594.36 550.731 602.228 c 0
 550.731 613.671 528.559 619.394 483.498 619.394 c 1
 483.498 663.737 l 1
 746.705 663.737 l 1
 746.705 619.394 l 1
 728.824 619.394 711.658 616.531 695.924 610.095 c 0
 680.188 603.657 670.891 599.367 668.029 597.936 c 0
 663.737 595.79 656.585 588.637 644.426 575.763 c 0
 632.982 562.889 620.823 549.3 607.949 534.995 c 2
 467.049 363.339 l 1
 638.704 110.146 l 2
 652.293 88.6895 668.744 72.2383 687.34 61.5098 c 0
 705.221 50.7812 725.962 44.3447 748.85 42.1992 c 1
 748.85 0 l 1
EndSplineSet
Fore
SplineSet
510 614 m 0
 510 636 502 650 438 650 c 1
 438 677 l 1
 688 677 l 1
 688 650 l 1
 614 645 587 625 499 505 c 2
 420 394 l 1
 602 111 l 2
 650 40 665 26 699 25 c 1
 699 0 l 1
 359 0 l 1
 359 25 l 1
 372 26 382 26 387 26 c 0
 422 29 439 38 439 56 c 0
 439 66 431 89 417 108 c 2
 316 271 l 1
 278 220 l 2
 205 120 185 88 185 66 c 0
 185 41 205 31 267 25 c 1
 267 0 l 1
 16 0 l 1
 16 25 l 1
 66 31 89 44 120 81 c 2
 294 302 l 1
 97 593 l 2
 66 639 53 647 18 650 c 1
 18 677 l 1
 363 677 l 1
 363 650 l 1
 349 650 337 649 333 649 c 0
 296 647 284 639 284 618 c 0
 284 606 286 601 299 582 c 2
 395 431 l 1
 455 515 510 575 510 614 c 0
EndSplineSet
EndChar

StartChar: Y
Encoding: 89 89 58
Width: 720
Flags: W
HStem: 0 25<185 262.25 454.75 532> 650 27<15 68.4178 270.867 350 479 557.957>
VStem: 278 161<42.9449 264>
LayerCount: 2
Back
SplineSet
699 677 m 1
 699 650 l 1
 665 646 646 636 631 612 c 1
 439 300 l 1
 439 117 l 2
 439 42 450 34 532 25 c 1
 532 0 l 1
 185 0 l 1
 185 25 l 1
 267 34 278 44 278 117 c 2
 278 264 l 1
 95 596 l 1
 75 630 48 649 15 650 c 1
 15 677 l 1
 350 677 l 1
 350 650 l 1
 325 650 l 2
 284 650 270 642 270 620 c 0
 270 609 272 598 287 573 c 2
 287 573 291 564 293 561 c 1
 413 330 l 1
 524 514 l 2
 549 555 562 590 562 609 c 0
 562 639 546 646 479 650 c 1
 479 677 l 1
 699 677 l 1
EndSplineSet
Fore
SplineSet
699 677 m 1
 699 650 l 1
 665 646 646 636 631 612 c 2
 439 300 l 1
 439 117 l 2
 439 42 450 34 532 25 c 1
 532 0 l 1
 185 0 l 1
 185 25 l 1
 267 34 278 44 278 117 c 2
 278 264 l 1
 95 596 l 2
 75 630 48 649 15 650 c 1
 15 677 l 1
 350 677 l 1
 350 650 l 1
 325 650 l 2
 284 650 270 642 270 620 c 0
 270 597 293 561 293 561 c 1
 413 330 l 1
 524 514 l 2
 549 555 562 590 562 609 c 0
 562 639 546 646 479 650 c 1
 479 677 l 1
 699 677 l 1
EndSplineSet
EndChar

StartChar: Z
Encoding: 90 90 59
Width: 666
Flags: W
HStem: 0 35<226 472.114> 470 21G<59 110.5> 639 38<194.673 367.923 367.923 410>
LayerCount: 2
Back
SplineSet
640.135 194.543 m 1
 612.241 0 l 1
 39.3379 0 l 1
 39.3379 29.3242 l 1
 449.883 603.657 l 1
 258.915 603.657 l 2
 202.412 603.657 163.788 591.499 142.332 567.181 c 0
 132.318 557.167 122.305 526.412 111.576 474.916 c 1
 58.6494 474.916 l 1
 80.8213 663.737 l 1
 617.963 663.737 l 1
 617.963 634.412 l 1
 216.716 61.5098 l 1
 436.294 61.5098 l 2
 489.22 61.5098 527.127 73.6689 549.3 97.9873 c 0
 554.307 105.14 560.028 116.583 567.896 132.318 c 0
 575.048 148.768 582.201 169.511 590.068 194.543 c 1
 640.135 194.543 l 1
EndSplineSet
Fore
SplineSet
634 242 m 1
 608 0 l 1
 28 0 l 1
 28 16 l 1
 410 642 l 1
 374 640 338 639 327 639 c 0
 179 640 135 609 86 470 c 1
 59 470 l 1
 81 677 l 1
 603 677 l 1
 603 661 l 1
 226 35 l 1
 299 35 l 2
 395 35 478 50 511 75 c 0
 558 107 582 146 608 242 c 1
 634 242 l 1
EndSplineSet
EndChar

StartChar: bracketleft
Encoding: 91 91 60
Width: 332
Flags: W
HStem: -149 33<174.72 300 67 300 221 221> 645 33<178.002 300>
VStem: 67 104<-112.568 638.197>
LayerCount: 2
Back
SplineSet
248.901 -123.021 m 1
 33.6162 -123.021 l 1
 33.6162 711.658 l 1
 248.901 711.658 l 1
 248.901 662.307 l 1
 153.774 662.307 l 2
 135.895 662.307 127.312 651.578 127.312 630.122 c 2
 127.312 -33.6162 l 2
 127.312 -60.0801 138.04 -72.9541 158.066 -72.9541 c 2
 248.901 -72.9541 l 1
 248.901 -123.021 l 1
EndSplineSet
Fore
SplineSet
300 -116 m 1
 300 -149 l 1
 67 -149 l 1
 67 678 l 1
 300 678 l 1
 300 645 l 1
 237 645 l 2
 182 645 171 633 171 576 c 2
 171 -63 l 2
 171 -105 180 -116 221 -116 c 2
 300 -116 l 1
EndSplineSet
EndChar

StartChar: backslash
Encoding: 92 92 61
Width: 276
Flags: MW
HStem: -19 21G<204.352 303> 671 20G<-25 73.6479>
LayerCount: 2
Back
SplineSet
356.187 -171.657 m 1
 278.226 -171.657 l 1
 4.29102 698.784 l 1
 80.8213 698.784 l 1
 356.187 -171.657 l 1
EndSplineSet
Fore
SplineSet
211 -19 m 1
 -25 691 l 1
 67 691 l 1
 303 -19 l 1
 211 -19 l 1
EndSplineSet
EndChar

StartChar: bracketright
Encoding: 93 93 62
Width: 332
Flags: MW
HStem: -149 33<32 159.6> 645 33<32 155.599>
VStem: 163 104<-112.57 638.197>
LayerCount: 2
Back
SplineSet
216.716 -123.021 m 1
 1.43066 -123.021 l 1
 1.43066 -72.9541 l 1
 95.126 -72.9541 l 2
 113.723 -72.9541 123.021 -62.9404 123.021 -42.1992 c 2
 123.021 622.254 l 2
 123.021 648.718 113.007 662.307 92.2656 662.307 c 2
 1.43066 662.307 l 1
 1.43066 711.658 l 1
 216.716 711.658 l 1
 216.716 -123.021 l 1
EndSplineSet
Fore
SplineSet
32 -149 m 1
 32 -116 l 1
 111 -116 l 2
 154 -116 163 -107 163 -63 c 2
 163 576 l 2
 163 633 151 645 95 645 c 2
 32 645 l 1
 32 678 l 1
 267 678 l 1
 267 -149 l 1
 32 -149 l 1
EndSplineSet
EndChar

StartChar: asciicircum
Encoding: 94 94 63
Width: 580
Flags: W
HStem: 311 366<163 250 250 250>
VStem: 73 435<311 311 311 311>
LayerCount: 2
Back
SplineSet
465.617 283.948 m 1
 380.505 283.948 l 1
 243.181 563.605 l 1
 105.14 283.948 l 1
 20.7422 283.948 l 1
 205.272 658.016 l 1
 281.088 658.016 l 1
 465.617 283.948 l 1
EndSplineSet
Fore
SplineSet
163 311 m 1
 73 311 l 1
 250 677 l 1
 331 677 l 1
 508 311 l 1
 420 311 l 1
 291 583 l 1
 163 311 l 1
EndSplineSet
EndChar

StartChar: underscore
Encoding: 95 95 64
Width: 499
Flags: W
HStem: -125 50<0 499>
VStem: 0 499<-125 -75 -125 -75 -125 -125>
LayerCount: 2
Back
SplineSet
514.253 -82.252 m 1
 1.43066 -82.252 l 1
 1.43066 -30.7549 l 1
 514.253 -30.7549 l 1
 514.253 -82.252 l 1
EndSplineSet
Fore
SplineSet
499 -125 m 1
 0 -125 l 1
 0 -75 l 1
 499 -75 l 1
 499 -125 l 1
EndSplineSet
EndChar

StartChar: quotesglleft
Encoding: 96 -1 65
Width: 292
Flags: W
HStem: 413 259<92 217>
VStem: 70 182<434 577>
LayerCount: 2
Back
SplineSet
191.683 298.969 m 1
 135.895 298.969 l 1
 39.3379 359.048 l 2
 25.748 365.485 17.8809 376.928 16.4502 392.663 c 0
 16.4502 411.975 27.1787 421.988 48.6357 421.988 c 0
 59.3643 421.988 70.8086 416.267 83.6826 405.537 c 1
 191.683 298.969 l 1
EndSplineSet
Fore
SplineSet
217 413 m 1
 166 467 83 557 70 577 c 0
 50 614 57 652 92 672 c 0
 126 691 161 680 183 642 c 0
 195 623 231 504 252 434 c 1
 217 413 l 1
EndSplineSet
EndChar

StartChar: a
Encoding: 97 97 66
Width: 499
Flags: MW
HStem: -15 72<130.488 225.764 379.064 452.101> 245 35<189.828 284.248> 441 32<151.525 272.353>
VStem: 25 146<68.665 159.581> 44 102<332.126 409.611> 294 137<100 245 280 404.582>
LayerCount: 2
Back
SplineSet
294.677 275.365 m 1
 199.55 242.464 152.345 200.266 152.345 149.484 c 0
 152.345 128.742 158.781 110.861 171.657 95.126 c 0
 175.947 90.1191 181.669 85.8281 186.676 82.9668 c 0
 192.398 79.3906 199.55 77.9609 209.563 77.9609 c 0
 244.61 77.9609 271.074 89.4043 288.239 113.007 c 0
 290.385 115.868 291.816 120.159 293.246 126.597 c 0
 293.962 133.033 294.677 138.04 294.677 142.332 c 2
 294.677 275.365 l 1
480.638 50.0664 m 1
 447.021 11.4434 411.975 -7.15234 374.782 -7.15234 c 0
 331.153 -7.15234 305.405 12.874 297.537 52.9277 c 1
 243.896 12.874 197.405 -7.15234 158.066 -7.15234 c 0
 122.305 -7.15234 92.2656 3.57617 69.3779 25.748 c 0
 46.4902 47.9209 35.0469 75.8145 35.0469 111.576 c 0
 35.0469 165.219 59.3643 208.849 108.716 243.181 c 0
 118.014 248.901 138.756 258.915 169.511 273.219 c 0
 200.266 287.524 241.749 305.405 294.677 328.292 c 1
 294.677 385.512 l 2
 294.677 434.147 272.504 458.465 228.16 458.465 c 0
 190.253 458.465 170.226 444.876 166.65 417.696 c 0
 166.65 414.836 168.08 408.399 170.226 399.815 c 0
 171.657 391.233 173.087 384.081 173.087 379.074 c 0
 173.087 374.782 171.657 368.346 170.226 361.193 c 0
 168.08 354.041 163.788 346.173 156.637 338.306 c 0
 151.63 332.584 144.478 328.292 135.18 325.432 c 0
 125.881 322.571 118.014 321.14 111.576 321.14 c 0
 94.4111 321.14 80.8213 325.432 70.0928 335.445 c 0
 59.3643 345.458 54.3574 359.762 54.3574 379.074 c 0
 54.3574 419.128 75.8145 452.743 120.159 479.206 c 0
 136.609 489.936 154.491 497.087 174.518 501.379 c 0
 193.828 506.386 214.569 508.531 237.457 508.531 c 0
 298.969 508.531 342.598 494.227 367.631 464.902 c 0
 393.379 436.294 405.537 390.519 405.537 328.292 c 2
 405.537 123.021 l 2
 405.537 91.5498 411.26 75.8145 421.988 75.8145 c 0
 426.995 75.8145 434.147 79.3906 443.444 85.1133 c 0
 452.028 90.835 464.902 100.848 480.638 114.438 c 1
 480.638 50.0664 l 1
EndSplineSet
Fore
SplineSet
146 404 m 0
 146 389 177 374 177 338 c 0
 177 305 149 281 108 281 c 0
 67 281 44 306 44 347 c 0
 44 422 120 473 233 473 c 0
 354 473 431 420 431 335 c 2
 431 75 l 2
 431 59 438 50 453 50 c 0
 457 50 460 51 463 54 c 2
 473 64 l 1
 488 42 l 1
 450 1 419 -15 376 -15 c 0
 327 -15 305 4 294 56 c 1
 239 6 193 -15 136 -15 c 0
 72 -15 25 31 25 92 c 0
 25 189 128 232 294 280 c 1
 294 353 l 2
 294 415 268 441 209 441 c 0
 174 441 146 425 146 404 c 0
293 100 m 1
 293 245 l 1
 212 224 171 182 171 125 c 0
 171 83 192 57 223 57 c 0
 246 57 267 69 293 100 c 1
EndSplineSet
EndChar

StartChar: b
Encoding: 98 98 67
Width: 555
Flags: W
HStem: -15 33<229.354 331.361> 419 54<253.024 388.009> 657 20G<18 211>
VStem: 72 139<43.1174 360 417 642.647> 374 147<125.489 353.19>
LayerCount: 2
Back
SplineSet
426.28 230.306 m 0
 426.28 256.055 424.85 280.371 421.273 301.829 c 0
 417.696 323.286 411.26 342.598 402.677 360.479 c 0
 381.22 404.107 349.75 426.28 308.982 426.28 c 0
 286.81 426.28 266.782 419.843 250.331 406.969 c 0
 230.306 391.233 219.576 374.782 219.576 356.187 c 2
 219.576 89.4043 l 2
 219.576 82.252 223.153 76.5303 229.59 71.5234 c 0
 235.312 67.2324 243.181 62.9404 251.763 59.3643 c 0
 261.062 55.7881 270.358 53.6426 279.656 52.2119 c 0
 289.67 50.7812 297.537 50.0664 304.69 50.0664 c 0
 385.512 50.0664 426.28 110.146 426.28 230.306 c 0
549.3 268.212 m 0
 549.3 236.742 544.293 205.987 533.565 176.662 c 0
 523.552 146.624 508.531 118.729 489.22 92.2656 c 0
 440.584 25.748 371.207 -7.15234 281.088 -7.15234 c 0
 262.49 -7.15234 244.61 -6.4375 227.444 -4.29102 c 0
 210.994 -2.14551 193.828 2.14551 177.379 10.0137 c 0
 153.774 20.7422 135.895 30.7549 123.021 38.623 c 0
 110.146 47.2051 103.709 57.9336 103.709 71.5234 c 2
 103.709 625.115 l 2
 103.709 648.003 102.994 660.162 100.848 662.307 c 0
 95.8418 667.313 89.4043 669.459 80.8213 669.459 c 2
 35.0469 665.169 l 1
 35.0469 705.937 l 1
 51.4971 710.943 75.0996 718.095 104.424 727.394 c 0
 134.464 736.691 166.65 746.705 202.412 757.434 c 1
 219.576 751.712 l 1
 219.576 465.617 l 1
 236.027 481.353 256.055 494.227 279.656 502.811 c 0
 303.259 512.107 325.432 517.114 346.888 517.114 c 0
 413.406 517.114 464.902 489.936 500.664 436.294 c 0
 516.399 411.975 528.559 386.227 537.141 358.333 c 0
 545.008 330.438 549.3 300.398 549.3 268.212 c 0
EndSplineSet
Fore
SplineSet
211 677 m 1
 211 417 l 1
 248 456 286 473 333 473 c 0
 444 473 521 376 521 239 c 0
 521 89 428 -15 294 -15 c 0
 245 -15 209 1 163 42 c 1
 83 -13 l 1
 72 -13 l 1
 72 595 l 2
 72 634 63 643 18 652 c 1
 18 677 l 1
 211 677 l 1
211 360 m 1
 211 97 l 2
 211 48 237 18 280 18 c 0
 344 18 374 83 374 221 c 0
 374 352 343 419 281 419 c 0
 248 419 229 403 211 360 c 1
EndSplineSet
EndChar

StartChar: c
Encoding: 99 99 68
Width: 443
Flags: W
HStem: -15 68<179.35 333.83> 442 31<204.945 276.704>
VStem: 25 141<147.831 330.989> 291 125<313.946 420.594>
LayerCount: 2
Back
SplineSet
462.757 173.087 m 1
 406.969 52.9277 333.299 -7.15234 240.318 -7.15234 c 0
 208.849 -7.15234 180.239 -1.43066 153.774 10.7285 c 0
 127.312 22.8877 104.424 42.9141 85.1133 70.0928 c 0
 69.3779 92.9805 56.5039 118.014 47.2051 145.908 c 0
 37.1924 173.802 32.1855 204.557 32.1855 238.889 c 0
 32.1855 311.843 54.3574 374.782 97.9873 427.71 c 0
 143.762 481.353 203.842 508.531 278.226 508.531 c 0
 298.969 508.531 317.564 506.386 335.445 502.094 c 0
 353.326 498.519 369.775 491.365 385.512 482.068 c 0
 404.822 471.339 419.843 457.75 429.855 440.584 c 0
 439.869 424.135 445.591 407.684 445.591 391.233 c 0
 445.591 374.782 439.869 360.479 428.425 348.319 c 0
 416.981 336.875 402.677 331.153 384.081 331.153 c 0
 368.346 331.153 354.757 336.875 343.312 347.604 c 0
 332.584 359.048 324.001 373.353 318.994 389.803 c 0
 313.272 413.406 306.836 429.855 300.398 439.154 c 0
 293.246 449.168 280.371 454.175 261.062 454.175 c 0
 223.868 454.175 193.113 434.862 170.226 396.955 c 0
 149.484 364.054 139.471 324.717 139.471 279.656 c 0
 139.471 226.729 151.63 183.814 177.379 149.484 c 0
 205.272 110.146 241.034 90.835 283.948 90.835 c 0
 315.418 90.835 342.598 100.133 364.769 118.729 c 0
 372.638 124.451 381.935 133.749 391.948 145.908 c 0
 401.962 158.066 414.121 174.518 427.71 194.543 c 1
 462.757 173.087 l 1
EndSplineSet
Fore
SplineSet
412 108 m 1
 431 91 l 1
 372 18 316 -15 239 -15 c 0
 116 -15 25 85 25 223 c 0
 25 368 125 473 261 473 c 0
 349 473 416 425 416 363 c 0
 416 324 390 300 349 300 c 0
 311 300 293 324 291 372 c 0
 291 415 291 415 287 423 c 0
 281 434 267 442 250 442 c 0
 198 442 166 379 166 275 c 0
 166 141 221 53 308 53 c 0
 349 53 375 67 412 108 c 1
EndSplineSet
EndChar

StartChar: d
Encoding: 100 100 69
Width: 555
Flags: W
HStem: -15 57<153.433 286.195> 417 56<210.661 291.136> 652 25<261 329.58>
VStem: 25 148<104.968 339.656> 335 140<100.717 101 111 354 412 642.502>
LayerCount: 2
Back
SplineSet
344.027 367.631 m 1
 341.167 397.67 330.438 422.703 311.843 440.584 c 0
 303.976 448.451 294.677 454.175 283.232 457.75 c 0
 272.504 461.325 261.062 462.757 248.901 462.757 c 0
 226.729 462.757 207.419 457.035 192.398 445.591 c 0
 177.379 433.432 165.219 418.413 156.637 400.532 c 0
 148.053 382.649 141.616 362.624 138.04 341.167 c 0
 133.749 319.71 131.604 298.969 131.604 279.656 c 0
 131.604 256.055 133.749 232.45 138.756 207.419 c 0
 143.047 182.385 150.199 160.213 160.213 140.186 c 0
 170.94 120.159 184.531 102.994 201.695 90.1191 c 0
 218.146 77.2451 239.604 70.0928 265.352 70.0928 c 0
 306.836 70.0928 333.299 88.6895 344.027 124.451 c 1
 344.027 367.631 l 1
529.988 48.6357 m 1
 363.339 -8.58301 l 1
 344.027 1.43066 l 1
 344.027 35.0469 l 1
 311.126 7.15234 270.358 -7.15234 221.008 -7.15234 c 0
 177.379 -7.15234 136.609 5.72168 99.418 30.7549 c 0
 72.9541 48.6357 52.9277 75.0996 38.623 112.292 c 0
 24.3184 148.768 17.8809 191.683 17.8809 241.749 c 0
 17.8809 316.133 37.1924 378.359 75.8145 429.141 c 0
 120.159 487.79 177.379 517.114 247.471 517.114 c 0
 281.088 517.114 313.272 507.101 344.027 487.79 c 1
 344.027 625.115 l 2
 344.027 645.856 343.312 657.3 341.167 659.445 c 0
 337.591 665.169 329.724 668.029 318.994 668.029 c 2
 275.365 663.737 l 1
 275.365 705.937 l 1
 301.113 713.805 322.571 720.24 339.737 725.247 c 0
 357.618 730.254 371.922 734.546 384.081 738.121 c 0
 395.525 742.413 405.537 745.274 414.121 748.85 c 0
 437.724 757.434 l 1
 459.896 751.712 l 1
 459.896 134.464 l 2
 459.896 115.152 462.042 102.278 466.332 95.8418 c 0
 470.624 89.4043 480.638 86.543 496.372 86.543 c 2
 529.988 89.4043 l 1
 529.988 48.6357 l 1
EndSplineSet
Fore
SplineSet
338 -13 m 1
 338 53 l 1
 291 1 259 -15 207 -15 c 0
 101 -15 25 85 25 221 c 0
 25 366 107 473 217 473 c 0
 264 473 293 457 335 412 c 1
 335 595 l 2
 335 640 327 647 261 652 c 1
 261 677 l 1
 475 677 l 1
 475 101 l 2
 475 59 488 45 535 42 c 1
 535 21 l 1
 472 12 l 2
 410 4 385 0 338 -13 c 1
335 111 m 2
 335 354 l 1
 322 393 291 417 258 417 c 0
 201 417 173 357 173 229 c 0
 173 103 198 42 250 42 c 0
 272 42 294 53 313 76 c 0
 327 89 335 105 335 111 c 2
EndSplineSet
EndChar

StartChar: e
Encoding: 101 101 70
Width: 443
Flags: W
HStem: -15 74<224.816 323.314> 245 38<168 297> 442 31<192.033 276.54>
VStem: 25 143<134.485 245 283 344.591>
LayerCount: 2
Back
SplineSet
236.027 447.021 m 0
 186.676 447.021 154.491 414.836 138.04 351.895 c 1
 318.994 351.895 l 1
 310.412 414.836 282.518 447.021 236.027 447.021 c 0
476.346 184.531 m 1
 465.617 142.332 444.161 104.424 413.406 70.0928 c 0
 364.054 18.5957 306.836 -7.15234 240.318 -7.15234 c 0
 181.669 -7.15234 135.18 10.0137 100.133 44.3447 c 0
 65.8018 79.3906 43.6289 125.881 35.0469 184.531 c 0
 34.3311 191.683 33.6162 199.55 33.6162 208.134 c 0
 33.6162 216.716 33.6162 226.729 33.6162 238.889 c 0
 33.6162 311.126 51.4971 371.922 87.9736 421.988 c 0
 130.173 479.206 186.676 508.531 257.484 508.531 c 0
 320.425 508.531 368.346 489.22 401.962 450.598 c 0
 435.577 411.975 452.743 359.048 452.743 291.816 c 1
 131.604 291.816 l 1
 134.464 155.921 185.246 87.9736 283.948 87.9736 c 0
 337.591 87.9736 389.803 126.597 440.584 203.842 c 1
 476.346 184.531 l 1
EndSplineSet
Fore
SplineSet
168 245 m 1
 174 158 192 59 289 59 c 0
 331 59 362 76 401 125 c 1
 426 111 l 1
 360 18 312 -15 231 -15 c 0
 107 -15 25 82 25 229 c 0
 25 374 108 473 234 473 c 0
 289 473 335 453 368 415 c 0
 400 376 415 330 420 245 c 1
 168 245 l 1
297 297 m 2
 296 370 296 442 234 442 c 0
 185 442 167 401 164 283 c 1
 297 283 l 1
 297 297 l 2
EndSplineSet
EndChar

StartChar: f
Encoding: 102 102 71
Width: 332
Flags: W
HStem: 0 23<15 62.7835 220.389 291> 417 44<15 70 209 297> 661 30<220.581 287.997>
VStem: 70 139<34.906 417 461 606.806> 289 101<563.63 646.377>
LayerCount: 2
Back
SplineSet
423.418 678.043 m 0
 423.418 661.592 418.413 648.003 408.399 637.274 c 0
 399.101 626.545 384.081 620.823 363.339 620.823 c 0
 354.757 620.823 345.458 623.684 336.16 630.122 c 0
 326.863 635.844 318.279 645.142 310.412 658.016 c 0
 294.677 685.91 281.088 700.214 268.212 700.214 c 0
 236.027 700.214 219.576 672.319 219.576 616.531 c 2
 219.576 507.101 l 1
 345.458 507.101 l 1
 345.458 448.451 l 1
 221.008 448.451 l 1
 221.008 123.021 l 2
 221.008 107.285 221.723 94.4111 222.438 83.6826 c 0
 223.868 72.9541 226.015 65.0859 230.306 60.0801 c 0
 239.604 47.2051 268.212 40.7686 316.133 40.7686 c 1
 316.133 0 l 1
 20.7422 0 l 1
 20.7422 40.7686 l 1
 50.0664 42.9141 69.3779 45.0596 78.6758 47.9209 c 0
 87.9736 50.0664 92.9805 52.2119 95.126 54.3574 c 0
 102.994 65.0859 107.285 87.9736 107.285 123.021 c 2
 107.285 448.451 l 1
 22.1719 448.451 l 1
 22.1719 507.101 l 1
 107.285 507.101 l 1
 110.146 673.751 175.947 757.434 304.69 757.434 c 0
 318.279 757.434 331.153 756.002 341.882 754.572 c 0
 353.326 752.427 364.769 748.135 376.213 740.982 c 0
 407.684 723.817 423.418 702.359 423.418 678.043 c 0
EndSplineSet
Fore
SplineSet
267 584 m 0
 267 607 289 628 289 642 c 0
 289 653 278 661 261 661 c 0
 226 661 209 639 209 583 c 2
 209 461 l 1
 297 461 l 1
 297 417 l 1
 209 417 l 1
 209 103 l 2
 209 38 223 26 291 23 c 1
 291 0 l 1
 15 0 l 1
 15 23 l 1
 60 29 70 41 70 83 c 2
 70 417 l 1
 15 417 l 1
 15 461 l 1
 70 461 l 1
 70 546 78 587 100 623 c 0
 127 666 179 691 246 691 c 0
 330 691 390 650 390 590 c 0
 390 554 365 529 327 529 c 0
 293 529 267 554 267 584 c 0
EndSplineSet
EndChar

StartChar: g
Encoding: 103 103 72
Width: 499
Flags: W
HStem: -207 33<143.42 367.869> -53 120<156.802 394.645> 155 27<194.922 285.21> 398 53<401 482> 442 31<196.094 284.948>
VStem: 28 88<-148.532 -66.96> 37 137<237.377 388.037> 42 112<37.4973 117.185> 306 135<224.248 376.859> 404 79<-128.781 -21.2445>
LayerCount: 2
Back
SplineSet
326.863 310.412 m 0
 326.863 341.167 321.14 369.775 310.412 398.386 c 0
 296.106 440.584 272.504 461.325 240.318 461.325 c 0
 200.266 461.325 180.239 434.862 180.239 382.649 c 0
 180.239 276.796 209.563 223.868 268.212 223.868 c 0
 306.836 223.868 326.863 253.193 326.863 310.412 c 0
432.002 -27.8945 m 0
 432.002 -20.0264 428.425 -12.874 421.273 -7.15234 c 0
 414.121 -1.43066 404.822 2.86133 394.094 5.72168 c 0
 379.074 10.7285 363.339 13.5898 345.458 14.3047 c 0
 328.292 15.7354 311.126 16.4502 294.677 16.4502 c 2
 203.842 16.4502 l 2
 188.821 16.4502 175.947 17.8809 165.219 20.7422 c 1
 139.471 -14.3047 125.881 -40.0527 125.881 -55.7881 c 0
 125.881 -94.4111 171.657 -114.438 262.49 -114.438 c 0
 281.088 -114.438 298.969 -112.292 316.133 -108.716 c 0
 334.014 -104.424 351.895 -99.418 369.061 -93.6953 c 0
 411.26 -79.3906 432.002 -57.2188 432.002 -27.8945 c 0
494.942 417.696 m 1
 417.696 417.696 l 1
 426.995 391.233 432.002 364.054 432.002 336.875 c 0
 432.002 288.239 416.267 248.901 384.081 218.861 c 0
 351.895 189.538 310.412 174.518 261.062 174.518 c 0
 251.048 174.518 241.034 174.518 231.021 175.232 c 0
 220.293 175.232 211.709 176.662 205.272 178.809 c 2
 202.412 178.809 l 2
 198.12 178.809 194.543 176.662 190.968 173.087 c 0
 187.392 168.795 183.814 164.504 178.809 159.498 c 0
 165.219 145.192 158.066 134.464 158.066 128.742 c 0
 158.066 120.875 180.954 115.868 226.729 113.007 c 2
 353.326 105.14 l 2
 391.233 103.709 422.703 92.2656 448.451 70.8086 c 0
 473.485 50.0664 486.359 22.1719 486.359 -12.874 c 0
 486.359 -43.6289 477.062 -70.0928 458.465 -92.9805 c 0
 439.869 -115.868 416.981 -135.18 389.088 -150.914 c 0
 361.193 -166.65 331.868 -178.094 301.113 -185.961 c 0
 270.358 -193.828 242.464 -197.405 216.716 -197.405 c 0
 199.55 -197.405 179.524 -195.975 158.066 -192.398 c 0
 136.609 -189.538 116.583 -183.1 97.2715 -174.518 c 0
 78.6758 -165.219 62.2256 -153.774 49.3516 -140.186 c 0
 35.7617 -125.881 29.3242 -108 29.3242 -86.543 c 0
 29.3242 -51.4971 57.9336 -11.4434 115.868 33.6162 c 1
 102.278 43.6289 91.5498 52.2119 83.6826 60.7949 c 0
 75.8145 69.3779 71.5234 78.6758 71.5234 89.4043 c 0
 71.5234 114.438 97.9873 150.914 150.914 197.405 c 1
 95.8418 228.16 68.6621 273.219 68.6621 334.014 c 0
 68.6621 360.479 73.6689 384.796 82.9668 406.969 c 0
 92.2656 429.855 105.14 449.168 121.59 464.902 c 0
 138.04 481.353 158.066 493.512 180.239 502.094 c 0
 202.412 511.393 226.729 515.685 253.193 515.685 c 0
 266.782 515.685 282.518 513.538 299.684 509.963 c 0
 316.85 505.671 335.445 499.949 356.187 492.082 c 0
 372.638 486.359 389.088 483.498 405.537 483.498 c 2
 494.942 483.498 l 1
 494.942 417.696 l 1
EndSplineSet
Fore
SplineSet
161 160 m 1xf1
 122 177 37 216 37 312 c 0
 37 407 122 473 240 473 c 0xea
 280 473 308 467 352 451 c 1
 482 451 l 1
 482 398 l 1
 401 398 l 1
 429 371 441 340 441 300 c 0
 441 239 402 154 267 154 c 2
 223 155 l 2
 182 155 154 133 154 103 c 0xf180
 154 75 174 67 253 67 c 2
 319 67 l 2
 420 67 483 22 483 -56 c 0
 483 -154 395 -207 229 -207 c 0
 103 -207 28 -171 28 -114 c 0xf440
 28 -73 62 -48 125 -40 c 1
 60 -16 42 1 42 42 c 0
 42 95 82 133 161 160 c 1xf1
324 -53 m 2
 151 -53 l 1
 123 -75 116 -86 116 -107 c 0
 116 -151 163 -174 250 -174 c 0
 349 -174 404 -148 404 -103 c 0xe440
 404 -69 378 -53 324 -53 c 2
240 442 m 0xea80
 193 442 174 404 174 311 c 0
 174 218 192 182 240 182 c 0
 287 182 306 218 306 311 c 0
 306 404 287 442 240 442 c 0xea80
EndSplineSet
EndChar

StartChar: h
Encoding: 104 104 73
Width: 555
Flags: W
HStem: 0 23<299 338.458 492.174 535> 406 67<271.862 383.142> 657 20G<16 208>
VStem: 69 139<32.9456 354.887 395 643.571> 346 139<31.2153 393.486>
LayerCount: 2
Back
SplineSet
562.174 0 m 1
 314.703 0 l 1
 314.703 37.9072 l 1
 331.868 40.0527 344.743 42.1992 354.041 45.0596 c 0
 363.339 48.6357 369.775 51.4971 374.782 55.7881 c 0
 379.789 59.3643 382.649 67.2324 384.081 79.3906 c 0
 384.796 90.835 385.512 105.14 385.512 121.59 c 2
 385.512 334.014 l 2
 385.512 401.247 363.339 434.862 318.994 434.862 c 0
 288.955 434.862 255.338 414.836 218.146 374.782 c 1
 218.146 121.59 l 2
 218.146 105.14 218.861 90.835 220.293 79.3906 c 0
 221.723 67.2324 225.3 59.3643 230.306 54.3574 c 0
 231.735 52.2119 237.457 50.0664 246.041 47.9209 c 0
 254.623 45.0596 268.929 41.4834 288.239 36.4766 c 1
 288.239 0 l 1
 35.0469 0 l 1
 35.0469 37.9072 l 1
 68.6621 42.1992 88.6895 50.0664 95.126 62.9404 c 0
 100.133 68.6621 102.278 88.6895 102.278 121.59 c 2
 102.278 658.016 l 1
 94.4111 662.307 87.2588 665.169 79.3906 665.169 c 2
 36.4766 662.307 l 1
 36.4766 704.506 l 1
 200.98 757.434 l 1
 218.146 745.274 l 1
 218.146 455.604 l 1
 257.484 496.372 303.976 517.114 357.618 517.114 c 0
 454.175 517.114 502.094 456.319 502.094 335.445 c 2
 502.094 121.59 l 2
 502.094 90.1191 504.24 70.8086 508.531 62.9404 c 0
 511.393 57.9336 517.83 52.9277 527.127 48.6357 c 0
 537.141 43.6289 548.585 38.623 562.174 33.6162 c 1
 562.174 0 l 1
EndSplineSet
Fore
SplineSet
294 406 m 0
 248 406 208 353 208 349 c 2
 208 81 l 2
 208 44 220 29 256 23 c 1
 256 0 l 1
 16 0 l 1
 16 23 l 1
 62 34 69 42 69 83 c 2
 69 595 l 2
 69 636 62 643 16 652 c 1
 16 677 l 1
 208 677 l 1
 208 395 l 1
 261 453 297 473 350 473 c 0
 432 473 485 417 485 333 c 2
 485 83 l 2
 485 42 498 26 535 23 c 1
 535 0 l 1
 299 0 l 1
 299 23 l 1
 333 28 346 44 346 81 c 2
 346 324 l 2
 346 379 330 406 294 406 c 0
EndSplineSet
EndChar

StartChar: i
Encoding: 105 105 74
Width: 276
Flags: MW
HStem: 0 21G<16 255> 441 20G<16 208> 536 155<84.395 191.695>
VStem: 60 155<558.782 666.648> 69 139<33.7051 427.586>
LayerCount: 2
Back
SplineSet
282.518 0 m 1
 282.518 37.9072 l 1
 243.896 43.6289 222.438 50.0664 218.146 55.7881 c 0
 214.569 60.7949 211.709 69.3779 210.279 81.5371 c 0
 208.849 93.6953 208.134 106.57 208.134 120.159 c 2
 208.134 514.253 l 1
 191.683 519.975 l 1
 23.6025 452.743 l 1
 23.6025 416.267 l 1
 77.9609 423.418 l 1
 90.1191 422.703 96.5566 404.822 96.5566 370.492 c 2
 96.5566 120.159 l 2
 96.5566 88.6895 92.2656 67.9473 82.9668 56.5039 c 0
 73.6689 45.0596 52.2119 39.3379 19.3115 39.3379 c 1
 19.3115 0 l 1
 282.518 0 l 1
82.252 691.632 m 0
 82.252 671.604 87.9736 655.155 100.133 642.281 c 0
 112.292 629.407 128.742 622.254 148.053 622.254 c 0
 166.65 622.254 181.669 629.407 193.828 642.281 c 0
 205.987 655.155 212.426 671.604 212.426 691.632 c 0
 212.426 710.943 205.987 726.679 193.828 739.553 c 0
 181.669 752.427 166.65 758.863 148.053 758.863 c 0
 128.742 758.863 112.292 752.427 100.133 739.553 c 0
 87.9736 726.679 82.252 710.943 82.252 691.632 c 0
EndSplineSet
Fore
SplineSet
208 461 m 1
 208 81 l 2
 208 42 220 29 255 23 c 1
 255 0 l 1
 16 0 l 1
 16 23 l 1
 62 35 69 42 69 83 c 2
 69 378 l 2
 69 419 60 428 16 437 c 1
 16 461 l 1
 208 461 l 1
138 691 m 0
 182 691 215 656 215 612 c 0
 215 568 182 536 138 536 c 0
 92 536 60 568 60 614 c 0
 60 656 95 691 138 691 c 0
EndSplineSet
EndChar

StartChar: j
Encoding: 106 106 75
Width: 332
Flags: W
HStem: -204 33<46.9878 110.183> 437 24<59 114.34> 536 155<131.691 239.648>
VStem: -57 98<-159.933 -80.3047> 108 156<560.395 666.648> 122 139<-112.485 -97 -97 428.088>
LayerCount: 2
Back
SplineSet
294.677 518.545 m 1
 278.226 524.267 l 1
 107.285 457.035 l 1
 107.285 419.128 l 1
 162.358 426.28 l 1
 175.232 425.564 181.669 407.684 181.669 373.353 c 2
 181.669 -32.1855 l 2
 181.669 -92.9805 180.239 -128.027 177.379 -138.04 c 0
 174.518 -147.338 170.226 -155.206 163.788 -161.644 c 0
 158.066 -168.08 152.345 -171.657 146.624 -171.657 c 0
 143.762 -171.657 138.04 -168.795 130.173 -163.073 c 0
 122.305 -158.066 115.868 -150.199 110.146 -139.471 c 0
 102.278 -125.166 92.9805 -116.583 83.6826 -112.292 c 0
 73.6689 -108 63.6562 -105.14 52.9277 -105.14 c 0
 50.7812 -105.14 45.7754 -106.57 37.1924 -109.431 c 0
 29.3242 -111.576 22.8877 -114.438 19.3115 -118.729 c 0
 8.58301 -129.457 2.86133 -142.332 2.86133 -158.066 c 0
 2.86133 -177.379 11.4434 -195.26 29.3242 -210.279 c 0
 47.2051 -225.3 72.9541 -233.167 107.285 -233.167 c 0
 167.365 -233.167 213.854 -213.14 246.041 -174.518 c 0
 278.226 -135.18 294.677 -75.8145 294.677 2.86133 c 2
 294.677 518.545 l 1
166.65 695.924 m 0
 166.65 675.896 173.087 660.162 185.961 647.288 c 0
 198.835 634.412 214.569 628.69 233.167 628.69 c 0
 251.763 628.69 266.782 634.412 279.656 647.288 c 0
 292.531 660.162 298.969 675.896 298.969 695.924 c 0
 298.969 715.234 292.531 731.686 279.656 744.56 c 0
 266.782 758.148 251.763 764.586 233.167 764.586 c 0
 214.569 764.586 198.835 758.148 185.961 744.56 c 0
 173.087 731.686 166.65 715.234 166.65 695.924 c 0
EndSplineSet
Fore
SplineSet
64 -97 m 0xf4
 64 -116 41 -143 41 -155 c 0
 41 -166 54 -171 73 -171 c 0
 105 -171 122 -149 122 -97 c 2
 122 378 l 2
 122 420 108 434 59 437 c 1
 59 461 l 1
 261 461 l 1
 261 1 l 2
 261 -158 175 -204 83 -204 c 0
 1 -204 -57 -163 -57 -103 c 0
 -57 -67 -32 -42 4 -42 c 0
 37 -42 64 -66 64 -97 c 0xf4
185 691 m 0
 229 691 264 656 264 612 c 0
 264 570 229 536 185 536 c 0
 141 536 108 568 108 614 c 0xf8
 108 656 142 691 185 691 c 0
EndSplineSet
EndChar

StartChar: k
Encoding: 107 107 76
Width: 555
Flags: W
HStem: 0 23<22 62.0744 529.536 543> 438 23<299 356.431 444.378 513> 652 25<22 62.6661>
VStem: 70 139<30.6951 198 245 644.701>
LayerCount: 2
Back
SplineSet
584.347 0 m 1
 329.724 0 l 1
 329.724 42.1992 l 1
 356.187 42.1992 l 2
 362.624 42.1992 366.2 43.6289 366.2 47.2051 c 0
 366.2 47.9209 365.485 50.0664 363.339 54.3574 c 2
 228.16 236.027 l 1
 228.16 83.6826 l 2
 228.16 60.0801 243.896 47.2051 273.936 43.6289 c 2
 307.551 40.7686 l 1
 307.551 0 l 1
 35.0469 0 l 1
 35.0469 40.7686 l 1
 72.9541 45.7754 92.9805 49.3516 95.126 51.4971 c 0
 100.133 56.5039 103.709 62.2256 107.285 69.3779 c 0
 110.146 77.2451 111.576 87.2588 111.576 100.848 c 2
 111.576 615.102 l 2
 111.576 637.989 110.146 650.863 107.285 654.439 c 0
 105.14 658.016 102.278 660.162 99.418 663.022 c 0
 96.5566 665.169 91.5498 666.599 83.6826 666.599 c 2
 35.0469 662.307 l 1
 35.0469 701.646 l 1
 208.134 754.572 l 1
 228.16 748.85 l 1
 228.16 324.001 l 1
 348.319 432.002 l 2
 354.757 437.724 359.048 442.729 362.624 446.307 c 0
 366.2 449.168 367.631 452.743 367.631 455.604 c 0
 367.631 461.325 349.75 464.188 314.703 464.188 c 1
 314.703 507.101 l 1
 556.452 507.101 l 1
 556.452 462.757 l 1
 534.995 462.757 517.83 461.325 504.956 458.465 c 0
 491.365 455.604 479.923 451.312 469.909 447.021 c 0
 462.042 442.729 451.312 435.577 437.009 425.564 c 0
 423.418 415.551 407.684 403.393 391.233 389.803 c 2
 303.259 311.843 l 1
 458.465 114.438 l 2
 476.346 91.5498 494.942 74.3848 515.685 62.2256 c 0
 536.426 50.0664 559.313 43.6289 584.347 42.1992 c 1
 584.347 0 l 1
EndSplineSet
Fore
SplineSet
357 412 m 0
 357 422 349 434 299 438 c 1
 299 461 l 1
 513 461 l 1
 513 438 l 1
 450 431 423 412 324 308 c 1
 519 40 l 2
 527 26 532 23 543 23 c 1
 543 0 l 1
 309 0 l 1
 309 23 l 1
 337 25 352 31 352 42 c 0
 352 51 344 63 327 88 c 2
 231 223 l 1
 209 198 l 1
 209 83 l 2
 209 37 214 31 261 23 c 1
 261 0 l 1
 22 0 l 1
 22 23 l 1
 56 26 70 45 70 83 c 2
 70 595 l 2
 70 631 56 649 22 652 c 1
 22 677 l 1
 209 677 l 1
 209 245 l 1
 337 374 l 2
 349 384 357 401 357 412 c 0
EndSplineSet
EndChar

StartChar: l
Encoding: 108 108 77
Width: 276
Flags: W
HStem: 0 23<16 57.2383 215.543 255 16 255 16 16> 652 25<16 58.877>
VStem: 67 140<32.5801 643.467>
LayerCount: 2
Back
SplineSet
285.378 0 m 1
 25.0332 0 l 1
 25.0332 37.9072 l 1
 52.9277 42.1992 72.9541 48.6357 84.3975 57.9336 c 0
 95.126 67.2324 100.848 82.9668 100.848 105.14 c 2
 100.848 615.102 l 2
 100.848 639.419 100.133 653.725 97.9873 658.016 c 0
 95.126 664.452 87.9736 668.029 75.8145 668.029 c 2
 22.1719 663.737 l 1
 22.1719 705.937 l 1
 30.7549 708.081 43.6289 711.658 61.5098 716.665 c 0
 79.3906 722.387 97.9873 728.108 118.014 734.546 c 0
 138.04 740.982 156.637 746.705 174.518 752.427 c 0
 191.683 757.434 203.842 761.009 210.994 763.155 c 1
 210.994 103.709 l 2
 210.994 60.7949 236.027 39.3379 285.378 39.3379 c 1
 285.378 0 l 1
EndSplineSet
Fore
SplineSet
207 677 m 1
 207 83 l 2
 207 44 223 25 255 23 c 1
 255 0 l 1
 16 0 l 1
 16 23 l 1
 50 26 67 47 67 83 c 2
 67 595 l 2
 67 631 51 649 16 652 c 1
 16 677 l 1
 207 677 l 1
EndSplineSet
EndChar

StartChar: m
Encoding: 109 109 78
Width: 832
Flags: W
HStem: 0 23<300 342.732 493.107 535 576 619.011 770.221 814> 406 67<271.049 377.366 551.106 662.021> 437 24<16 63.4397>
VStem: 70 139<33.0628 375.528 387 428.915> 349 137<31.239 373.822> 625 140<29.1206 396.608>
LayerCount: 2
Back
SplineSet
880.453 0 m 1
 617.963 0 l 1
 617.963 39.3379 l 1
 665.169 39.3379 688.771 62.9404 688.771 110.146 c 2
 688.771 325.432 l 2
 688.771 360.479 685.194 385.512 679.473 399.815 c 0
 670.175 420.558 651.578 430.57 625.115 430.57 c 0
 582.201 430.57 547.869 411.975 521.406 374.782 c 1
 521.406 110.146 l 2
 521.406 87.2588 526.412 70.0928 537.141 57.9336 c 0
 547.154 45.7754 567.181 39.3379 597.936 39.3379 c 1
 597.936 0 l 1
 329.724 0 l 1
 329.724 39.3379 l 1
 356.187 39.3379 374.782 45.7754 386.227 57.9336 c 0
 396.955 70.0928 402.677 87.2588 402.677 110.146 c 2
 402.677 331.153 l 2
 402.677 397.67 382.649 430.57 342.598 430.57 c 0
 312.558 430.57 286.093 421.273 263.922 402.677 c 0
 243.896 388.373 234.597 379.789 234.597 377.643 c 2
 234.597 110.146 l 2
 234.597 87.2588 239.604 70.0928 250.331 57.9336 c 0
 261.062 45.7754 280.371 39.3379 307.551 39.3379 c 1
 307.551 0 l 1
 40.7686 0 l 1
 40.7686 39.3379 l 1
 90.835 39.3379 115.868 62.9404 115.868 110.146 c 2
 115.868 385.512 l 2
 115.868 401.962 112.292 413.406 105.14 420.558 c 0
 104.424 421.273 101.563 421.988 96.5566 421.988 c 0
 91.5498 421.988 84.3975 421.273 75.0996 420.558 c 0
 66.5166 419.128 55.7881 417.696 43.6289 416.267 c 1
 43.6289 458.465 l 1
 68.6621 466.332 89.4043 472.771 105.854 477.776 c 0
 123.021 482.068 138.04 487.075 149.484 490.65 c 0
 160.928 494.942 170.94 497.804 179.524 499.949 c 0
 187.392 502.811 195.975 505.671 203.842 508.531 c 1
 228.16 508.531 l 1
 228.16 439.154 l 1
 259.63 459.181 283.232 472.771 298.252 481.353 c 0
 313.272 489.22 323.286 494.942 328.292 496.372 c 0
 347.604 504.24 365.485 508.531 380.505 508.531 c 0
 436.294 508.531 476.346 483.498 500.664 433.432 c 1
 552.876 483.498 608.664 508.531 668.029 508.531 c 0
 761.009 508.531 806.784 441.301 806.784 307.551 c 2
 806.784 110.146 l 2
 806.784 87.2588 812.507 70.0928 823.95 57.9336 c 0
 835.393 45.7754 853.99 39.3379 880.453 39.3379 c 1
 880.453 0 l 1
EndSplineSet
Fore
SplineSet
294 406 m 0xdc
 258 406 209 360 209 349 c 2
 209 81 l 2
 209 42 221 29 256 23 c 1
 256 0 l 1
 16 0 l 1
 16 23 l 1
 60 32 70 42 70 83 c 2
 70 378 l 2
 70 419 60 431 16 437 c 1
 16 461 l 1
 207 461 l 1xbc
 207 387 l 1
 245 445 291 473 354 473 c 0
 417 473 453 450 482 387 c 1
 535 450 573 473 628 473 c 0
 710 473 765 417 765 333 c 2
 765 81 l 2
 765 38 775 26 814 23 c 1
 814 0 l 1
 576 0 l 1
 576 23 l 1
 614 26 625 40 625 81 c 2
 625 324 l 2
 625 382 609 406 573 406 c 0
 533 406 486 357 486 349 c 2
 486 81 l 2
 486 42 499 28 535 23 c 1
 535 0 l 1
 300 0 l 1
 300 23 l 1
 337 26 349 40 349 81 c 2
 349 324 l 2
 349 382 333 406 294 406 c 0xdc
EndSplineSet
EndChar

StartChar: n
Encoding: 110 110 79
Width: 555
Flags: W
HStem: 0 23<305 344.149 496.093 539> 406 67<274.611 388.222> 437 24<21 68.1457>
VStem: 75 137<33.5592 354.534 387 428.56> 352 139<31.239 393.486>
LayerCount: 2
Back
SplineSet
559.313 0 m 1
 317.564 0 l 1
 317.564 37.9072 l 1
 344.027 42.1992 360.479 46.4902 366.2 51.4971 c 0
 376.928 59.3643 382.649 80.8213 382.649 115.868 c 2
 382.649 335.445 l 2
 382.649 394.094 360.479 423.418 317.564 423.418 c 0
 293.246 423.418 263.207 406.969 226.729 373.353 c 1
 226.729 83.6826 l 2
 226.729 59.3643 249.616 43.6289 294.677 37.9072 c 1
 294.677 0 l 1
 47.2051 0 l 1
 47.2051 37.9072 l 1
 53.6426 37.9072 60.7949 38.623 67.9473 39.3379 c 0
 75.0996 40.7686 82.252 42.1992 87.9736 45.0596 c 0
 104.424 52.9277 113.007 73.6689 113.007 107.285 c 2
 113.007 367.631 l 2
 113.007 391.233 110.861 406.969 107.285 414.836 c 0
 105.854 416.267 102.994 417.696 98.7021 418.413 c 0
 94.4111 418.413 89.4043 419.128 83.6826 419.128 c 0
 79.3906 419.128 73.6689 417.696 65.8018 416.267 c 0
 57.9336 414.121 50.7812 411.975 43.6289 409.829 c 1
 43.6289 458.465 l 1
 55.7881 461.325 68.6621 464.902 83.6826 468.479 c 0
 97.9873 472.771 113.007 477.062 128.027 482.068 c 0
 143.047 487.075 157.352 491.365 170.226 495.657 c 0
 182.385 499.949 192.398 504.24 199.55 507.101 c 1
 223.868 507.101 l 1
 223.868 439.154 l 1
 233.882 449.883 243.181 459.181 251.048 465.617 c 0
 259.63 472.771 266.782 478.491 273.936 483.498 c 0
 287.524 492.082 301.829 498.519 316.133 501.379 c 0
 331.153 504.956 346.888 507.101 363.339 507.101 c 0
 453.458 507.101 497.804 449.883 497.804 336.875 c 2
 497.804 97.9873 l 2
 497.804 86.543 498.519 76.5303 498.519 68.6621 c 0
 499.233 60.7949 502.094 55.0732 507.101 51.4971 c 0
 511.393 47.2051 529.273 42.1992 559.313 36.4766 c 1
 559.313 0 l 1
EndSplineSet
Fore
SplineSet
299 406 m 0xd8
 250 406 212 352 212 349 c 2
 212 81 l 2
 212 44 226 29 262 23 c 1
 262 0 l 1
 21 0 l 1
 21 23 l 1
 66 34 75 42 75 83 c 2
 75 378 l 2
 75 420 64 431 21 437 c 1
 21 461 l 1
 212 461 l 1xb8
 212 387 l 1
 249 445 294 473 354 473 c 0
 437 473 491 417 491 333 c 2
 491 81 l 2
 491 40 499 26 539 23 c 1
 539 0 l 1
 305 0 l 1
 305 23 l 1
 338 28 352 44 352 81 c 2
 352 324 l 2
 352 379 334 406 299 406 c 0xd8
EndSplineSet
EndChar

StartChar: o
Encoding: 111 111 80
Width: 499
Flags: W
HStem: -15 33<202.035 297.406> 442 31<203.387 298.133>
VStem: 25 146<121.516 333.353> 330 146<121.02 336.89>
LayerCount: 2
Back
SplineSet
32.1855 250.331 m 0
 32.1855 215.286 37.9072 182.385 50.0664 150.914 c 0
 61.5098 119.444 77.9609 92.2656 99.418 68.6621 c 0
 120.875 45.0596 146.624 27.1787 175.947 12.874 c 0
 205.272 -0.714844 237.457 -7.15234 273.936 -7.15234 c 0
 309.697 -7.15234 343.312 -0.714844 372.638 12.874 c 0
 402.677 27.1787 428.425 45.0596 449.883 68.6621 c 0
 471.339 92.2656 487.79 119.444 499.949 150.914 c 0
 512.107 182.385 518.545 215.286 518.545 250.331 c 0
 518.545 285.378 512.107 318.994 499.949 349.75 c 0
 487.79 381.22 471.339 408.399 449.883 432.002 c 0
 428.425 455.604 402.677 474.199 372.638 487.79 c 0
 343.312 501.379 309.697 508.531 273.936 508.531 c 0
 237.457 508.531 205.272 501.379 175.947 487.79 c 0
 146.624 474.199 120.875 455.604 99.418 432.002 c 0
 77.9609 408.399 61.5098 381.22 50.0664 349.75 c 0
 37.9072 318.994 32.1855 285.378 32.1855 250.331 c 0
152.345 248.901 m 0
 152.345 277.511 154.491 303.976 159.498 328.292 c 0
 164.504 352.611 172.372 374.067 182.385 393.379 c 0
 192.398 412.689 205.272 426.995 220.293 437.724 c 0
 235.312 448.451 253.193 454.175 273.936 454.175 c 0
 295.392 454.175 313.987 448.451 329.007 437.724 c 0
 344.027 426.995 356.187 412.689 366.2 393.379 c 0
 376.213 374.067 383.366 352.611 388.373 328.292 c 0
 393.379 303.976 395.525 277.511 395.525 248.901 c 0
 395.525 221.008 393.379 193.828 389.088 169.511 c 0
 384.796 144.478 377.643 122.305 367.631 102.994 c 0
 357.618 84.3975 345.458 69.3779 329.724 58.6494 c 0
 313.987 47.9209 295.392 42.1992 273.936 42.1992 c 0
 253.193 42.1992 235.312 47.9209 220.293 58.6494 c 0
 205.272 69.3779 192.398 84.3975 182.385 102.994 c 0
 172.372 122.305 164.504 144.478 159.498 169.511 c 0
 154.491 193.828 152.345 221.008 152.345 248.901 c 0
EndSplineSet
Fore
SplineSet
250 473 m 0
 379 473 476 369 476 229 c 0
 476 89 379 -15 250 -15 c 0
 120 -15 25 89 25 231 c 0
 25 368 125 473 250 473 c 0
252 442 m 0
 190 442 171 390 171 214 c 0
 171 67 192 18 250 18 c 0
 309 18 330 69 330 223 c 0
 330 387 311 442 252 442 c 0
EndSplineSet
EndChar

StartChar: p
Encoding: 112 112 81
Width: 555
Flags: W
HStem: -205 20<230 291> -13 55<259.085 339.083> 416 57<260.253 343.542> 437 24<21 68.1457>
VStem: 75 139<-167.229 47 103 346 378 380.478 393 428.56> 376 148<115.726 356.066>
LayerCount: 2
Back
SplineSet
212.426 -108.716 m 2
 212.426 20.7422 l 1
 241.034 2.14551 271.789 -7.15234 306.12 -7.15234 c 0
 343.312 -7.15234 376.213 0.714844 404.822 16.4502 c 0
 434.147 31.4707 457.75 52.9277 477.776 79.3906 c 0
 497.087 105.14 512.107 135.18 522.121 169.511 c 0
 532.134 203.127 537.857 237.457 537.857 273.936 c 0
 537.857 303.259 533.565 332.584 526.412 361.193 c 0
 519.26 389.803 507.816 415.551 492.797 438.438 c 0
 477.776 461.325 458.465 479.923 434.862 494.227 c 0
 411.26 508.531 384.081 515.685 353.326 515.685 c 0
 325.432 515.685 300.398 510.678 276.796 501.379 c 0
 253.193 492.082 231.021 477.776 209.563 457.035 c 1
 208.134 467.764 207.419 478.491 207.419 488.505 c 0
 206.702 498.519 206.702 509.246 206.702 519.975 c 1
 177.379 509.246 148.053 498.519 118.729 488.505 c 0
 89.4043 478.491 59.3643 468.479 29.3242 458.465 c 1
 29.3242 420.558 l 1
 75.8145 423.418 l 2
 85.8281 423.418 92.2656 419.843 95.126 413.406 c 0
 97.2715 405.537 97.9873 391.233 97.9873 371.922 c 2
 97.9873 -117.299 l 2
 97.9873 -136.609 92.9805 -150.914 83.6826 -158.781 c 0
 73.6689 -167.365 54.3574 -171.657 26.4639 -171.657 c 1
 26.4639 -213.854 l 1
 303.259 -213.854 l 1
 303.259 -168.795 l 1
 260.345 -168.795 234.597 -165.219 226.729 -158.066 c 0
 217.432 -151.63 212.426 -134.464 212.426 -108.716 c 2
421.988 240.318 m 0
 421.988 189.538 413.406 146.624 396.955 111.576 c 0
 378.359 70.0928 348.319 50.0664 307.551 50.0664 c 0
 291.1 50.0664 271.074 55.7881 247.471 67.2324 c 0
 223.868 79.3906 212.426 92.2656 212.426 107.285 c 2
 212.426 367.631 l 1
 216.001 384.081 227.444 398.386 246.041 409.114 c 0
 264.637 420.558 283.948 426.28 303.259 426.28 c 0
 324.717 426.28 343.312 420.558 358.333 409.114 c 0
 373.353 398.386 385.512 383.366 394.809 365.485 c 0
 404.107 347.604 410.544 327.577 415.551 305.405 c 0
 419.843 283.232 421.988 261.775 421.988 240.318 c 0
EndSplineSet
Fore
SplineSet
212 461 m 1xdc
 212 393 l 1
 243 450 278 473 338 473 c 0xec
 450 473 524 378 524 239 c 0
 524 91 444 -13 333 -13 c 0
 289 -13 262 0 214 47 c 1
 214 -94 l 2
 214 -161 231 -182 291 -185 c 1
 291 -205 l 1
 19 -205 l 1
 19 -182 l 1
 67 -173 75 -164 75 -123 c 2
 75 378 l 2
 75 420 64 431 21 437 c 1
 21 461 l 1
 212 461 l 1xdc
300 416 m 0
 255 416 214 364 214 346 c 2
 214 103 l 1
 229 64 258 42 291 42 c 0
 349 42 376 101 376 226 c 0
 376 356 352 416 300 416 c 0
EndSplineSet
EndChar

StartChar: q
Encoding: 113 113 82
Width: 555
Flags: W
HStem: -15 55<165.839 297.668> 441 32<225.651 321.766>
VStem: 34 146<104.857 333.831> 341 139<-165.638 42 57.4275 414.742>
LayerCount: 2
Back
SplineSet
529.988 -226.729 m 1
 529.988 -185.961 l 1
 485.645 -178.094 462.757 -161.644 462.757 -135.895 c 2
 462.757 505.671 l 1
 451.312 517.114 l 1
 436.294 514.253 l 1
 384.081 480.638 l 1
 361.193 492.797 340.452 502.094 321.856 507.816 c 0
 302.544 512.823 283.948 515.685 265.352 515.685 c 0
 226.729 515.685 193.113 508.531 162.358 493.512 c 0
 132.318 479.206 106.57 459.181 85.8281 433.432 c 0
 64.3711 408.399 48.6357 378.359 36.4766 344.743 c 0
 25.0332 311.126 19.3115 276.081 19.3115 238.889 c 0
 19.3115 207.419 22.1719 176.662 29.3242 147.338 c 0
 36.4766 117.299 47.2051 90.835 61.5098 67.9473 c 0
 75.8145 45.0596 95.126 27.1787 118.729 12.874 c 0
 142.332 -0.714844 170.94 -7.15234 205.272 -7.15234 c 0
 218.861 -7.15234 234.597 -5.72168 253.193 -1.43066 c 0
 271.789 2.14551 288.955 8.58301 304.69 17.8809 c 0
 312.558 22.1719 320.425 27.8945 328.292 32.9004 c 0
 336.16 38.623 343.312 43.6289 349.75 48.6357 c 1
 349.75 -113.007 l 2
 349.75 -158.781 318.279 -181.669 254.623 -181.669 c 1
 254.623 -226.729 l 1
 529.988 -226.729 l 1
342.598 111.576 m 1
 325.432 90.835 296.106 80.8213 256.055 80.8213 c 0
 234.597 80.8213 216.001 86.543 200.98 97.9873 c 0
 185.246 110.146 172.372 124.451 163.073 143.047 c 0
 153.774 160.928 147.338 180.954 143.047 203.842 c 0
 138.756 226.015 135.895 247.471 135.895 268.212 c 0
 135.895 290.385 138.756 313.272 143.047 336.16 c 0
 147.338 359.048 153.774 379.789 163.073 398.386 c 0
 172.372 416.981 185.246 432.002 201.695 444.161 c 0
 217.432 455.604 237.457 461.325 261.062 461.325 c 0
 320.425 461.325 349.75 430.57 349.75 369.061 c 2
 349.75 152.345 l 1
 342.598 111.576 l 1
EndSplineSet
Fore
SplineSet
341 -97 m 2
 341 42 l 1
 300 1 267 -15 220 -15 c 0
 110 -15 34 82 34 220 c 0
 34 368 126 473 256 473 c 0
 306 473 337 458 388 416 c 1
 466 472 l 1
 480 472 l 1
 480 -123 l 2
 480 -163 491 -171 536 -182 c 1
 536 -205 l 1
 270 -205 l 1
 270 -180 l 1
 334 -168 341 -160 341 -97 c 2
341 98 m 1
 341 360 l 2
 341 409 315 441 275 441 c 0
 212 441 180 371 180 236 c 0
 180 105 211 40 272 40 c 0
 308 40 333 62 341 98 c 1
EndSplineSet
EndChar

StartChar: r
Encoding: 114 114 83
Width: 443
Flags: MW
HStem: 0 23<234.165 294> 387 86<276.5 354.807> 437 24<29 75.5499>
VStem: 83 140<34.9653 365.072 379 427.909>
LayerCount: 2
Back
SplineSet
396.955 439.154 m 0
 396.955 419.843 391.948 405.537 381.935 395.525 c 0
 371.207 385.512 359.048 380.505 344.027 380.505 c 0
 325.432 380.505 309.697 387.656 296.106 401.247 c 0
 291.816 405.537 288.955 409.114 286.81 413.406 c 0
 285.378 416.981 281.088 419.128 275.365 419.128 c 0
 263.922 419.128 251.048 409.829 237.457 392.663 c 0
 223.868 374.782 216.716 359.048 216.716 344.027 c 2
 216.716 108.716 l 2
 216.716 62.2256 245.324 39.3379 303.259 39.3379 c 1
 303.259 0 l 1
 30.7549 0 l 1
 30.7549 36.4766 l 1
 48.6357 40.7686 62.9404 43.6289 73.6689 47.2051 c 0
 85.1133 50.0664 92.2656 52.2119 95.126 54.3574 c 0
 97.2715 56.5039 98.7021 61.5098 100.133 70.0928 c 0
 101.563 79.3906 102.278 89.4043 102.278 100.848 c 2
 102.278 364.769 l 2
 102.278 397.67 96.5566 414.836 85.1133 414.836 c 2
 33.6162 409.829 l 1
 33.6162 448.451 l 1
 65.8018 459.896 96.5566 470.624 125.881 481.353 c 0
 155.206 491.365 179.524 500.664 197.405 508.531 c 1
 216.716 508.531 l 1
 216.716 440.584 l 1
 251.763 485.645 288.955 508.531 328.292 508.531 c 0
 374.067 508.531 396.955 485.645 396.955 439.154 c 0
EndSplineSet
Fore
SplineSet
371 328 m 0
 314 328 310 387 283 387 c 0
 250 387 223 344 223 291 c 2
 223 103 l 2
 223 41 234 28 294 23 c 1
 294 0 l 1
 29 0 l 1
 29 23 l 1
 73 32 83 42 83 83 c 2
 83 378 l 2
 83 417 72 431 29 437 c 1
 29 461 l 1
 218 461 l 1
 218 379 l 1
 265 445 303 473 353 473 c 0
 400 473 434 439 434 395 c 0
 434 356 409 328 371 328 c 0
EndSplineSet
EndChar

StartChar: s
Encoding: 115 115 84
Width: 388
Flags: MW
HStem: -15 36<117.016 247.89> 439 34<142.066 257.507>
VStem: 26 101<252.973 404.737> 265 95<55.723 214.816>
LayerCount: 2
Back
SplineSet
370.492 138.04 m 0
 370.492 90.835 354.757 55.0732 324.001 30.04 c 0
 292.531 5.00684 254.623 -7.15234 209.563 -7.15234 c 0
 193.828 -7.15234 171.657 -4.29102 142.332 1.43066 c 2
 89.4043 11.4434 l 2
 85.1133 11.4434 80.8213 7.86719 74.3848 0 c 1
 42.1992 0 l 1
 42.1992 185.961 l 1
 86.543 185.961 l 1
 90.1191 161.644 94.4111 143.047 97.9873 130.888 c 0
 102.278 118.729 108.716 102.994 117.299 83.6826 c 0
 125.166 67.2324 136.609 55.0732 151.63 48.6357 c 0
 166.65 41.4834 183.814 37.9072 202.412 37.9072 c 0
 248.901 37.9072 272.504 59.3643 272.504 100.848 c 0
 272.504 127.312 257.484 150.199 226.729 168.795 c 0
 200.98 185.961 178.809 200.266 161.644 210.994 c 0
 144.478 221.723 130.888 231.021 120.159 238.174 c 0
 109.431 245.324 101.563 251.048 95.8418 255.338 c 0
 90.835 260.345 86.543 263.922 83.6826 268.212 c 0
 71.5234 281.803 62.2256 296.106 54.3574 311.843 c 0
 46.4902 327.577 42.1992 346.173 42.1992 367.631 c 0
 42.1992 389.088 47.2051 408.399 55.7881 425.564 c 0
 64.3711 442.729 75.8145 457.035 90.1191 469.193 c 0
 104.424 481.353 120.875 491.365 140.186 497.804 c 0
 158.781 504.956 178.809 508.531 199.55 508.531 c 0
 216.716 508.531 230.306 507.101 240.318 505.671 c 0
 250.331 503.525 256.055 501.379 258.915 499.233 c 2
 293.246 486.359 l 1
 293.246 486.359 295.392 491.365 300.398 500.664 c 1
 334.014 500.664 l 1
 339.737 331.153 l 1
 297.537 331.153 l 1
 279.656 416.981 246.041 459.896 195.975 459.896 c 0
 177.379 459.896 162.358 455.604 150.199 446.307 c 0
 138.04 437.009 131.604 421.988 131.604 401.247 c 0
 131.604 385.512 134.464 373.353 140.901 364.769 c 0
 146.624 356.187 155.921 347.604 168.795 339.737 c 2
 279.656 272.504 l 2
 296.106 262.49 309.697 253.908 319.71 245.324 c 0
 330.438 236.742 338.306 228.875 344.027 221.008 c 0
 361.908 199.55 370.492 171.657 370.492 138.04 c 0
EndSplineSet
Fore
SplineSet
185 473 m 0
 234 473 272 451 294 451 c 0
 306 451 312 456 318 472 c 1
 340 472 l 1
 340 327 l 1
 315 327 l 1
 298 376 266 439 193 439 c 0
 155 439 127 415 127 382 c 0
 127 283 360 304 360 138 c 0
 360 48 297 -15 207 -15 c 0
 150 -15 91 15 76 15 c 0
 67 15 62 7 50 -13 c 1
 25 -13 l 1
 25 152 l 1
 53 152 l 1
 75 64 120 21 190 21 c 0
 234 21 265 45 265 85 c 0
 265 179 26 169 26 327 c 0
 26 412 92 473 185 473 c 0
EndSplineSet
EndChar

StartChar: t
Encoding: 116 116 85
Width: 332
Flags: MW
HStem: -12 71<166.11 261.582> 417 44<211 305>
VStem: 72 139<63.8188 417>
LayerCount: 2
Back
SplineSet
313.272 86.543 m 1
 301.829 60.0801 283.232 37.9072 256.77 20.0264 c 0
 231.021 1.43066 205.272 -7.15234 180.239 -7.15234 c 0
 111.576 -7.15234 77.9609 40.7686 77.9609 138.04 c 2
 77.9609 444.161 l 1
 26.4639 444.161 l 1
 16.4502 467.049 l 1
 25.0332 474.916 33.6162 482.783 42.9141 490.65 c 0
 52.2119 498.519 60.7949 507.101 68.6621 515.685 c 0
 85.1133 532.851 101.563 552.876 118.014 575.763 c 0
 133.749 597.936 151.63 625.115 171.657 658.016 c 1
 185.961 612.241 l 1
 185.961 504.24 l 1
 288.239 504.24 l 1
 288.239 444.161 l 1
 185.961 444.161 l 1
 185.961 153.774 l 2
 185.961 97.9873 198.835 70.0928 223.868 70.0928 c 0
 241.034 70.0928 261.062 85.1133 285.378 114.438 c 1
 313.272 86.543 l 1
EndSplineSet
Fore
SplineSet
305 461 m 1
 305 417 l 1
 211 417 l 1
 211 116 l 2
 211 76 223 59 250 59 c 0
 271 59 287 73 308 111 c 1
 333 100 l 1
 291 18 250 -12 185 -12 c 0
 116 -12 72 28 72 92 c 2
 72 417 l 1
 21 417 l 1
 21 444 l 1
 85 499 125 543 186 630 c 1
 211 630 l 1
 211 461 l 1
 305 461 l 1
EndSplineSet
EndChar

StartChar: u
Encoding: 117 117 86
Width: 555
Flags: MW
HStem: -15 66<164.609 281.721> 437 24<280 334.296>
VStem: 64 140<60.4561 429.301> 341 139<95 428.088>
LayerCount: 2
Back
SplineSet
547.869 39.3379 m 1
 539.287 37.9072 528.559 35.0469 515.685 32.9004 c 0
 502.811 30.7549 489.936 27.1787 476.346 22.1719 c 2
 377.643 -11.4434 l 1
 373.353 61.5098 l 1
 351.895 39.3379 l 2
 334.73 23.6025 316.85 12.1592 298.252 4.29102 c 0
 278.941 -3.57617 257.484 -7.15234 234.597 -7.15234 c 0
 217.432 -7.15234 201.695 -5.00684 185.961 -0.714844 c 0
 170.226 3.57617 155.921 10.0137 142.332 19.3115 c 0
 123.735 30.7549 110.861 47.2051 103.709 68.6621 c 0
 97.2715 90.1191 93.6953 113.723 93.6953 139.471 c 2
 93.6953 404.107 l 2
 93.6953 425.564 88.6895 440.584 79.3906 448.451 c 0
 74.3848 452.028 67.9473 454.89 60.7949 457.035 c 0
 53.6426 459.181 42.9141 459.896 29.3242 459.896 c 1
 29.3242 497.804 l 1
 208.134 497.804 l 1
 208.134 145.192 l 2
 208.134 133.033 210.994 121.59 216.001 109.431 c 0
 221.723 97.2715 229.59 88.6895 240.318 83.6826 c 0
 245.324 81.5371 251.048 80.1064 257.484 79.3906 c 0
 264.637 77.9609 271.074 77.9609 276.796 77.9609 c 0
 303.976 77.9609 331.868 89.4043 360.479 113.007 c 0
 365.485 118.014 367.631 131.604 367.631 153.774 c 2
 367.631 402.677 l 2
 367.631 425.564 361.908 439.869 350.465 446.307 c 0
 339.737 452.028 318.994 455.604 290.385 455.604 c 1
 290.385 497.804 l 1
 484.93 497.804 l 1
 484.93 125.881 l 2
 484.93 106.57 488.505 93.6953 496.372 87.9736 c 0
 504.24 82.252 521.406 79.3906 547.869 79.3906 c 1
 547.869 39.3379 l 1
EndSplineSet
Fore
SplineSet
343 -13 m 1
 343 53 l 1
 286 1 250 -15 198 -15 c 0
 116 -15 64 38 64 126 c 2
 64 378 l 2
 64 420 57 429 16 437 c 1
 16 461 l 1
 204 461 l 1
 204 122 l 2
 204 70 220 51 261 51 c 0
 289 51 309 62 341 95 c 1
 341 378 l 2
 341 420 330 434 280 437 c 1
 280 461 l 1
 480 461 l 1
 480 101 l 2
 480 59 494 45 538 42 c 1
 538 21 l 1
 475 13 l 2
 410 6 387 1 343 -13 c 1
EndSplineSet
EndChar

StartChar: v
Encoding: 118 118 87
Width: 499
Flags: W
HStem: -15 21G<233.946 275.111> 437 24<21 55.7187 218.202 261.885 261.885 271 334 388.431 443.914 485 21 485 21 21>
LayerCount: 2
Back
SplineSet
518.545 457.035 m 1
 508.531 457.035 499.233 455.604 489.937 452.028 c 0
 480.638 448.451 474.916 442.729 471.339 434.862 c 2
 290.385 -19.3115 l 1
 248.901 5.72168 l 1
 72.9541 424.85 l 1
 71.5234 427.71 69.3779 431.287 66.5166 435.577 c 0
 64.3711 439.869 60.7949 443.444 57.2188 445.591 c 0
 51.4971 449.883 45.0596 453.458 39.3379 454.89 c 0
 33.6162 456.319 25.0332 457.035 12.874 457.035 c 1
 12.874 497.804 l 1
 244.61 497.804 l 1
 244.61 458.465 l 1
 233.882 457.75 225.3 456.319 218.146 455.604 c 0
 211.709 454.89 205.272 451.312 200.98 447.021 c 0
 197.405 444.161 195.975 439.154 195.975 433.432 c 0
 195.975 428.425 198.12 421.273 202.412 411.26 c 2
 298.969 170.226 l 1
 396.955 416.267 l 2
 399.101 421.988 399.815 426.28 399.815 429.141 c 0
 399.815 437.009 397.67 443.444 392.663 448.451 c 0
 388.373 453.458 383.366 455.604 376.928 456.319 c 0
 370.492 457.035 360.479 457.035 345.458 457.035 c 1
 345.458 497.804 l 1
 518.545 497.804 l 1
 518.545 457.035 l 1
EndSplineSet
Fore
SplineSet
485 461 m 1
 485 437 l 1
 454 434 445 426 428 382 c 2
 267 -15 l 1
 242 -15 l 1
 122 283 l 2
 105 324 59 423 56 422 c 1
 50 431 44 434 21 437 c 1
 21 461 l 1
 271 461 l 1
 271 437 l 1
 264 437 255 435 253 435 c 0
 229 434 218 426 218 412 c 0
 218 404 220 398 227 379 c 2
 306 177 l 1
 378 359 l 2
 385 376 390 393 390 404 c 0
 390 428 376 435 334 437 c 1
 334 461 l 1
 485 461 l 1
EndSplineSet
EndChar

StartChar: w
Encoding: 119 119 88
Width: 720
Flags: MW
HStem: -15 20<229 252 229 229 479 502 479 479> 437 24<294 336.891 573 618.007>
LayerCount: 2
Back
SplineSet
766.016 459.896 m 1
 747.42 454.89 732.4 438.438 720.957 409.829 c 2
 549.3 -16.4502 l 1
 511.393 14.3047 l 1
 408.399 266.782 l 1
 278.226 -16.4502 l 1
 234.597 14.3047 l 1
 65.8018 430.57 l 2
 59.3643 446.307 45.0596 455.604 25.0332 458.465 c 1
 25.0332 497.804 l 1
 243.181 497.804 l 1
 243.181 458.465 l 1
 210.279 455.604 193.113 447.736 193.113 434.862 c 0
 193.113 425.564 200.266 401.962 213.854 364.769 c 1
 291.816 165.219 l 1
 373.353 341.167 l 1
 341.167 430.57 l 2
 338.306 439.154 330.438 446.307 317.564 451.312 c 0
 305.405 456.319 291.816 458.465 278.226 458.465 c 1
 278.226 497.804 l 1
 522.837 497.804 l 1
 522.837 459.896 l 1
 468.479 447.021 l 1
 464.188 442.015 461.325 436.294 461.325 430.57 c 0
 461.325 426.995 468.479 404.822 483.498 364.769 c 2
 555.021 165.219 l 1
 635.844 364.769 l 2
 638.704 372.638 641.564 381.935 643.711 392.663 c 0
 646.571 403.393 647.288 412.689 647.288 420.558 c 0
 647.288 445.591 634.412 458.465 609.38 458.465 c 1
 609.38 497.804 l 1
 766.016 497.804 l 1
 766.016 459.896 l 1
EndSplineSet
Fore
SplineSet
707 461 m 1
 707 437 l 1
 681 432 672 423 658 387 c 2
 502 -15 l 1
 479 -15 l 1
 376 296 l 1
 252 -15 l 1
 229 -15 l 1
 81 360 l 2
 53 426 48 432 23 437 c 1
 23 461 l 1
 245 461 l 1
 245 437 l 1
 217 434 207 425 207 409 c 0
 207 387 262 252 267 240 c 2
 291 176 l 1
 359 347 l 1
 353 366 l 2
 334 432 333 434 294 437 c 1
 294 461 l 1
 527 461 l 1
 527 437 l 1
 491 434 480 429 480 413 c 0
 480 387 522 268 541 180 c 1
 576 274 l 2
 606 353 620 390 620 401 c 0
 620 425 609 434 573 437 c 1
 573 461 l 1
 707 461 l 1
EndSplineSet
EndChar

StartChar: x
Encoding: 120 120 89
Width: 499
Flags: MW
HStem: 0 23<15 65.6426 133.243 183> 437 24<12 51.8069 215.01 262 309 319.638 319.638 359.994>
LayerCount: 2
Back
SplineSet
549.3 0 m 1
 310.412 0 l 1
 310.412 36.4766 l 1
 344.027 42.1992 l 2
 348.319 43.6289 349.75 47.9209 349.75 55.7881 c 0
 349.75 57.9336 349.034 60.7949 347.604 65.0859 c 0
 346.173 69.3779 343.312 75.0996 338.306 82.252 c 2
 265.352 194.543 l 1
 193.113 83.6826 l 2
 181.669 65.8018 175.232 52.9277 174.518 45.0596 c 0
 173.087 42.1992 176.662 40.0527 184.531 38.623 c 0
 192.398 37.1924 203.127 36.4766 216.716 36.4766 c 1
 216.716 0 l 1
 37.9072 0 l 1
 37.9072 36.4766 l 1
 50.0664 38.623 58.6494 40.7686 65.0859 42.1992 c 0
 71.5234 44.3447 75.8145 46.4902 79.3906 48.6357 c 0
 91.5498 56.5039 104.424 70.0928 117.299 89.4043 c 2
 231.735 256.055 l 1
 139.471 399.815 l 2
 118.014 432.002 l 0
 110.861 442.729 102.278 449.168 92.2656 451.312 c 2
 45.0596 457.035 l 1
 45.0596 497.804 l 1
 290.385 497.804 l 1
 290.385 457.035 l 1
 259.63 457.035 244.61 453.458 244.61 445.591 c 0
 244.61 435.577 261.062 405.537 294.677 354.757 c 1
 311.126 379.789 324.001 399.815 334.014 415.551 c 0
 344.027 430.57 348.319 440.584 348.319 445.591 c 0
 348.319 453.458 334.73 457.035 307.551 457.035 c 1
 307.551 497.804 l 1
 499.233 497.804 l 1
 499.233 457.035 l 1
 459.181 457.035 430.57 444.161 413.406 417.696 c 2
 329.724 297.537 l 1
 461.325 96.5566 l 2
 472.056 80.1064 484.93 66.5166 498.519 55.7881 c 0
 512.823 45.0596 529.988 38.623 549.3 36.4766 c 1
 549.3 0 l 1
EndSplineSet
Fore
SplineSet
286 303 m 1
 319 352 360 383 360 413 c 0
 360 428 352 434 330 435 c 0
 327 435 318 437 309 437 c 1
 309 461 l 1
 478 461 l 1
 478 437 l 1
 445 432 426 420 407 398 c 2
 306 272 l 1
 454 44 l 2
 461 34 469 29 483 23 c 1
 483 0 l 1
 243 0 l 1
 243 23 l 1
 274 26 289 32 289 44 c 0
 289 56 278 75 255 108 c 2
 212 171 l 1
 211 169 133 75 133 48 c 0
 133 34 146 26 183 23 c 1
 183 0 l 1
 15 0 l 1
 15 23 l 1
 67 27 85 64 192 201 c 1
 64 398 l 2
 44 428 38 434 12 437 c 1
 12 461 l 1
 262 461 l 1
 262 437 l 1
 229 437 215 431 215 417 c 0
 215 404 242 362 272 319 c 0
 275 316 280 311 286 303 c 1
EndSplineSet
EndChar

StartChar: y
Encoding: 121 121 90
Width: 499
Flags: W
HStem: -205 57<99.2127 182.367> 437 24<16 50.7194 212.366 267 330 382.616 439.164 480>
VStem: 16 119<-147.098 -98.7101 -120.708 -76.7126>
LayerCount: 2
Back
SplineSet
335.445 -10.0137 m 1
 497.804 426.28 l 2
 507.816 452.743 524.981 465.617 549.3 465.617 c 1
 549.3 507.101 l 1
 379.074 507.101 l 1
 379.074 465.617 l 1
 399.101 465.617 412.689 463.472 420.558 458.465 c 0
 426.28 454.89 429.141 449.168 429.141 442.015 c 1
 338.306 174.518 l 1
 228.16 420.558 l 2
 223.868 432.002 221.008 440.584 221.008 447.021 c 0
 221.008 459.181 241.749 465.617 282.518 465.617 c 1
 282.518 507.101 l 1
 39.3379 507.101 l 1
 39.3379 465.617 l 1
 70.0928 459.896 87.9736 451.312 93.6953 439.154 c 2
 278.226 27.8945 l 1
 247.471 -51.4971 l 2
 230.306 -97.9873 210.279 -121.59 188.821 -121.59 c 0
 185.246 -121.59 180.954 -120.875 175.947 -118.729 c 0
 170.94 -116.583 165.934 -114.438 160.928 -113.007 c 0
 153.06 -108.716 145.908 -105.854 138.756 -103.709 c 0
 130.888 -102.278 122.305 -100.848 113.007 -100.848 c 0
 90.1191 -100.848 73.6689 -108 62.9404 -122.305 c 0
 52.2119 -136.609 47.2051 -151.63 47.2051 -168.795 c 0
 47.2051 -188.821 54.3574 -205.987 69.3779 -218.861 c 0
 84.3975 -232.45 108 -238.889 139.471 -238.889 c 0
 212.426 -238.889 277.511 -162.358 335.445 -10.0137 c 1
EndSplineSet
Fore
SplineSet
138 -111 m 0
 138 -126 135 -124 135 -130 c 0
 135 -141 144 -148 152 -148 c 0
 174 -148 201 -116 218 -66 c 2
 236 -13 l 1
 116 283 l 2
 100 324 54 422 51 422 c 1
 45 431 40 434 16 437 c 1
 16 461 l 1
 267 461 l 1
 267 437 l 1
 250 437 l 2
 226 434 212 425 212 412 c 0
 212 403 212 403 233 352 c 2
 305 167 l 1
 374 359 l 2
 382 384 384 393 384 404 c 0
 384 428 372 435 330 437 c 1
 330 461 l 1
 480 461 l 1
 480 437 l 1
 450 434 439 423 422 382 c 2
 272 -15 l 2
 226 -136 201 -205 113 -205 c 0
 56 -205 16 -171 16 -126 c 0
 16 -88 42 -62 81 -62 c 0
 114 -62 138 -82 138 -111 c 0
EndSplineSet
EndChar

StartChar: z
Encoding: 122 122 91
Width: 443
Flags: MW
HStem: 0 32<185 323.777> 429 32<111.804 255>
LayerCount: 2
Back
SplineSet
471.339 160.928 m 1
 457.035 0 l 1
 39.3379 0 l 1
 39.3379 29.3242 l 1
 306.12 439.154 l 1
 184.531 439.154 l 2
 155.921 439.154 137.325 430.57 128.027 413.406 c 0
 118.729 395.525 113.007 373.353 111.576 346.888 c 1
 61.5098 346.888 l 1
 67.2324 497.804 l 1
 457.035 497.804 l 1
 457.035 465.617 l 1
 187.392 57.2188 l 1
 306.12 57.2188 l 2
 346.173 57.2188 374.782 65.0859 391.948 82.252 c 0
 409.114 98.7021 420.558 129.457 427.71 174.518 c 1
 471.339 160.928 l 1
EndSplineSet
Fore
SplineSet
420 160 m 1
 404 0 l 1
 21 0 l 1
 21 25 l 1
 255 429 l 1
 116 431 89 415 64 319 c 1
 38 319 l 1
 45 461 l 1
 416 461 l 1
 416 435 l 1
 185 32 l 1
 214 32 l 2
 294 32 327 45 359 89 c 0
 375 110 382 127 393 160 c 1
 420 160 l 1
EndSplineSet
EndChar

StartChar: braceleft
Encoding: 123 123 92
Width: 392
Flags: W
VStem: 129 105<-119.359 216.252 306.148 640.885>
LayerCount: 2
Back
SplineSet
294.677 -177.379 m 1
 263.207 -177.379 236.742 -175.232 214.569 -171.657 c 0
 192.398 -167.365 175.232 -160.213 162.358 -149.484 c 0
 131.604 -125.166 115.868 -83.6826 115.868 -25.0332 c 2
 115.868 148.053 l 2
 115.868 179.524 108 203.127 92.2656 218.861 c 0
 76.5303 235.312 47.2051 249.616 4.29102 262.49 c 1
 46.4902 273.936 75.0996 288.239 91.5498 304.69 c 0
 108 321.14 115.868 344.027 115.868 373.353 c 2
 115.868 552.161 l 2
 115.868 610.81 131.604 651.578 162.358 673.751 c 0
 186.676 693.062 231.021 703.074 294.677 703.074 c 1
 294.677 668.029 l 1
 262.49 660.162 240.318 648.003 228.16 631.552 c 0
 216.716 614.387 210.994 590.068 210.994 556.453 c 2
 210.994 389.803 l 2
 210.994 349.75 205.272 318.994 194.543 297.537 c 1
 183.1 281.088 168.795 268.929 150.914 262.49 c 1
 175.232 249.616 191.683 233.882 199.55 216.001 c 0
 206.702 198.12 210.994 170.226 210.994 133.033 c 2
 210.994 -30.7549 l 2
 210.994 -63.6562 216.716 -88.6895 229.59 -104.424 c 0
 241.749 -120.875 263.207 -133.749 294.677 -143.762 c 1
 294.677 -177.379 l 1
EndSplineSet
Fore
SplineSet
129 -34 m 2
 129 145 l 2
 129 215 107 240 22 261 c 1
 107 283 129 306 129 376 c 2
 129 557 l 2
 129 611 145 647 179 669 c 0
 211 690 250 697 340 699 c 1
 340 686 l 1
 261 669 234 639 234 562 c 2
 234 391 l 2
 234 308 209 281 116 261 c 1
 209 242 234 215 234 130 c 2
 234 -40 l 2
 234 -116 261 -146 340 -163 c 1
 340 -174 l 1
 242 -174 198 -164 168 -138 c 0
 141 -116 129 -83 129 -34 c 2
EndSplineSet
EndChar

StartChar: bar
Encoding: 124 124 93
Width: 219
Flags: W
HStem: -19 710<66 154 66 154 66 66>
VStem: 66 88<-19 691>
LayerCount: 2
Back
SplineSet
68.6621 -171.657 m 1
 17.8809 -171.657 l 1
 17.8809 698.784 l 1
 68.6621 698.784 l 1
 68.6621 -171.657 l 1
EndSplineSet
Fore
SplineSet
66 -19 m 1
 66 691 l 1
 154 691 l 1
 154 -19 l 1
 66 -19 l 1
EndSplineSet
EndChar

StartChar: braceright
Encoding: 125 125 94
Width: 392
Flags: W
VStem: 160 105<-118.048 216.852 307.252 640.885>
LayerCount: 2
Back
SplineSet
263.922 248.901 m 1
 237.457 241.034 218.861 230.306 208.849 215.286 c 0
 198.835 200.98 193.113 178.094 193.113 148.053 c 2
 193.113 -25.0332 l 2
 193.113 -83.6826 178.809 -125.166 149.484 -149.484 c 0
 126.597 -168.08 82.252 -177.379 16.4502 -177.379 c 1
 16.4502 -143.762 l 1
 72.9541 -128.027 100.848 -90.1191 100.848 -30.7549 c 2
 100.848 133.033 l 2
 100.848 174.518 106.57 203.842 117.299 222.438 c 2
 115.868 221.008 l 1
 124.451 237.457 138.756 251.048 158.066 261.062 c 1
 135.895 272.504 120.875 287.524 113.007 306.836 c 0
 105.14 326.146 100.848 353.326 100.848 389.803 c 2
 100.848 556.453 l 2
 100.848 588.637 94.4111 613.671 82.252 630.837 c 0
 69.3779 648.003 47.2051 660.162 16.4502 668.029 c 1
 16.4502 703.074 l 1
 82.252 703.074 127.312 693.062 150.914 673.751 c 0
 179.524 651.578 193.113 610.095 193.113 550.731 c 2
 193.113 373.353 l 2
 193.113 321.856 216.716 288.239 263.922 273.936 c 1
 263.922 248.901 l 1
EndSplineSet
Fore
SplineSet
160 -40 m 2
 160 132 l 2
 160 215 185 242 278 262 c 1
 185 283 160 308 160 393 c 2
 160 562 l 2
 160 639 133 669 54 686 c 1
 54 699 l 1
 144 697 183 690 215 669 c 0
 249 647 265 612 265 557 c 2
 265 378 l 2
 265 308 287 283 372 262 c 1
 287 242 265 217 265 146 c 2
 265 -34 l 2
 265 -88 249 -125 215 -146 c 0
 183 -167 144 -174 54 -174 c 1
 54 -163 l 1
 133 -146 160 -116 160 -40 c 2
EndSplineSet
EndChar

StartChar: asciitilde
Encoding: 126 126 95
Width: 520
Flags: MW
HStem: 174 90<296.768 416.993> 243 88<98.8008 237.522>
LayerCount: 2
Back
SplineSet
508.531 247.471 m 1
 476.346 209.563 l 1
 454.175 188.821 l 2
 432.717 171.657 405.537 162.358 371.922 162.358 c 0
 360.479 162.358 345.458 164.504 327.577 169.511 c 0
 308.982 173.802 288.239 180.954 263.922 191.683 c 0
 221.008 210.279 186.676 219.576 162.358 219.576 c 0
 138.04 219.576 111.576 195.975 83.6826 148.053 c 1
 30.7549 212.426 l 1
 65.0859 270.358 110.146 298.969 166.65 298.969 c 0
 192.398 298.969 228.875 288.239 276.796 268.212 c 0
 298.969 258.915 318.279 252.478 334.73 248.187 c 0
 350.465 243.896 364.054 241.034 373.353 240.318 c 0
 396.24 240.318 424.135 263.922 457.035 311.843 c 1
 508.531 247.471 l 1
EndSplineSet
Fore
SplineSet
437 308 m 1
 491 261 l 1
 445 196 415 174 368 174 c 0
 287 174 241 243 151 243 c 0
 122 243 105 233 82 201 c 1
 29 248 l 1
 63 306 100 331 152 331 c 0
 231 331 314 264 368 264 c 0
 391 264 412 275 437 308 c 1
EndSplineSet
EndChar

StartChar: uni0E10.descless
Encoding: 128 63232 96
Width: 536
Flags: W
HStem: 0 21G<270 378> 151 45<124.785 185.628> 294 46<124.279 185.613> 400 54<146 201.1> 451 68<330.109 389.893> 488 88<125.215 238.023>
VStem: 81 38<199.26 290.778> 192 186<227.776 289.973> 270 108<0 180.219>
LayerCount: 2
Back
SplineSet
370.492 288.239 m 2
 370.492 314.703 363.339 338.306 348.319 359.762 c 0
 334.014 380.505 313.987 398.386 288.239 413.406 c 0
 268.929 424.85 246.756 433.432 222.438 437.724 c 0
 198.12 442.729 171.657 445.591 143.762 445.591 c 2
 111.576 445.591 l 1
 126.597 467.049 153.06 477.776 188.821 477.776 c 0
 193.113 477.776 199.55 476.346 208.134 473.485 c 0
 216.716 469.909 227.444 467.049 240.318 462.757 c 0
 256.77 457.75 273.936 453.458 292.531 449.168 c 0
 310.412 444.876 324.001 442.015 334.014 442.015 c 0
 392.663 442.015 432.002 480.638 452.743 556.453 c 1
 396.955 556.453 l 1
 389.803 542.862 383.366 531.419 376.213 522.121 c 0
 369.775 512.823 360.479 508.531 349.75 508.531 c 0
 345.458 508.531 337.591 511.393 327.577 517.114 c 0
 316.85 522.837 306.836 528.559 296.106 534.995 c 2
 273.936 546.439 l 2
 260.345 554.307 246.756 559.313 233.167 560.743 c 0
 219.576 562.889 205.272 563.605 191.683 563.605 c 0
 171.657 563.605 151.63 559.313 133.033 550.015 c 0
 114.438 540.718 98.7021 528.559 84.3975 512.823 c 0
 70.0928 497.087 57.9336 478.491 48.6357 457.75 c 0
 38.623 437.009 32.1855 414.836 29.3242 391.233 c 1
 98.7021 391.233 151.63 385.512 188.821 374.782 c 0
 213.14 366.915 231.735 356.187 243.181 341.167 c 0
 254.623 326.863 261.775 308.982 263.922 288.239 c 1
 239.604 317.564 206.702 332.584 166.65 332.584 c 0
 136.609 332.584 114.438 324.001 100.133 306.12 c 0
 85.8281 288.239 79.3906 266.067 79.3906 238.889 c 0
 79.3906 218.146 85.8281 198.12 99.418 178.094 c 0
 113.007 158.066 130.173 148.053 150.914 148.053 c 0
 170.226 148.053 186.676 155.206 200.98 170.226 c 0
 214.569 184.531 222.438 202.412 223.868 222.438 c 1
 236.742 198.12 246.756 168.08 253.193 131.604 c 0
 260.345 95.8418 263.922 51.4971 263.922 0 c 1
 370.492 0 l 1
 370.492 288.239 l 2
115.868 240.318 m 0
 115.868 253.908 118.729 265.352 125.166 274.65 c 0
 131.604 283.948 140.186 288.239 150.914 288.239 c 0
 161.644 288.239 170.226 283.948 177.379 274.65 c 0
 183.814 265.352 187.392 253.908 187.392 240.318 c 0
 187.392 226.729 183.814 215.286 177.379 205.987 c 0
 170.226 196.688 161.644 191.683 150.914 191.683 c 0
 140.186 191.683 131.604 196.688 125.166 205.987 c 0
 118.729 215.286 115.868 226.729 115.868 240.318 c 0
EndSplineSet
Fore
SplineSet
341 451 m 0xea80
 303 451 205 488 193 488 c 0
 155 488 130 478 114 454 c 1
 146 454 l 2
 205 454 255 445 294 422 c 0
 347 393 378 349 378 294 c 2
 378 0 l 1
 270 0 l 1
 270 105 255 179 229 227 c 1
 224 186 195 151 154 151 c 0
 113 151 81 202 81 243 c 0
 81 299 110 340 170 340 c 0
 211 340 243 325 270 294 c 1
 261 373 190 400 29 400 c 1
 42 495 113 576 196 576 c 0xf680
 224 576 252 574 280 558 c 2
 302 546 l 2
 325 535 347 519 357 519 c 0
 379 519 393 541 406 568 c 1
 463 568 l 1
 441 491 401 451 341 451 c 0xea80
119 245 m 0
 119 217 132 196 154 196 c 0
 176 196 192 217 192 245 c 0xe3
 192 274 176 294 154 294 c 0
 132 294 119 274 119 245 c 0
EndSplineSet
EndChar

StartChar: uni0E34.left
Encoding: 129 63233 97
Width: 0
Flags: W
HStem: 665 60<-514.083 -331.477> 762 71<-487.462 -360.845>
VStem: -621 104<728.5 736.5>
LayerCount: 2
Back
SplineSet
-360 713 m 4
 -333 706 -308 699 -286 688 c 5
 -315 724 -369 762 -425 762 c 4
 -453 762 -495 757 -495 732 c 4
 -495 722 -473 724 -454 724 c 4
 -415 724 -393 719 -360 713 c 4
-224 599 m 5
 -256 623 -303 639 -350 650 c 4
 -379 658 -416 665 -450 665 c 6
 -476 665 l 6
 -486 665 -495 665 -502 664 c 4
 -539 664 -560 666 -576 681 c 4
 -587 688 -598 706 -598 719 c 4
 -598 754 -562 795 -535 809 c 5
 -505 826 -472 833 -431 833 c 4
 -330 833 -202 735 -202 609 c 5
 -224 599 l 5
-353.326 698.784 m 0
 -339.021 694.492 -326.146 690.917 -313.987 687.34 c 0
 -301.829 683.05 -290.385 678.758 -279.656 673.751 c 1
 -294.677 691.632 -313.987 708.081 -338.306 723.102 c 0
 -362.624 738.121 -388.373 745.274 -416.267 745.274 c 0
 -429.855 745.274 -444.876 743.843 -460.61 740.268 c 0
 -477.062 736.691 -484.93 729.539 -484.93 718.095 c 0
 -484.93 713.088 -480.638 710.228 -471.339 709.513 c 0
 -462.757 709.513 -454.175 708.798 -445.591 708.798 c 0
 -425.563 708.798 -409.114 708.081 -396.24 705.937 c 0
 -383.366 703.791 -368.346 701.646 -353.326 698.784 c 0
-219.576 587.208 m 1
 -235.312 597.936 -253.908 607.949 -276.081 615.816 c 0
 -298.252 624.4 -320.425 631.552 -342.598 637.274 c 0
 -357.618 640.85 -373.353 644.426 -390.519 647.288 c 0
 -407.684 650.148 -424.135 651.578 -440.584 651.578 c 0
 -448.451 651.578 -457.035 651.578 -465.617 651.578 c 0
 -475.631 651.578 -484.213 651.578 -492.082 650.148 c 0
 -509.963 650.148 -524.267 651.578 -535.711 653.01 c 0
 -546.439 655.155 -556.453 659.445 -563.605 666.599 c 0
 -570.042 670.176 -575.048 675.896 -579.34 683.05 c 0
 -583.632 690.917 -585.776 698.068 -585.776 704.506 c 0
 -585.776 720.957 -578.625 738.121 -565.035 756.002 c 0
 -550.731 773.168 -536.426 785.328 -522.837 792.48 c 0
 -494.942 808.215 -460.61 816.083 -421.988 816.083 c 0
 -397.67 816.083 -371.922 810.361 -344.743 798.916 c 0
 -318.279 787.474 -293.962 772.453 -272.504 753.142 c 0
 -251.048 733.115 -233.167 710.228 -218.861 683.05 c 0
 -204.557 656.585 -197.405 627.261 -197.405 596.506 c 1
 -219.576 587.208 l 1
EndSplineSet
Fore
Refer: 180 3636 N 1 0 0 1 -98 0 2
EndChar

StartChar: uni0E35.left
Encoding: 130 63234 98
Width: 0
Flags: W
HStem: 677 60<-513.234 -426.041> 775 72<-495.479 -361.49>
VStem: -621 104<722.97 766.39> -313 82<801 896>
LayerCount: 2
Back
SplineSet
-223 896 m 5
 -223 710 l 5
 -207 681 -202 645 -202 595 c 5
 -249 627 -303 649 -350 662 c 4
 -379 669 -416 678 -450 678 c 6
 -476 678 l 6
 -486 678 -495 678 -502 677 c 4
 -539 677 -560 680 -576 693 c 4
 -587 700 -598 719 -598 732 c 4
 -598 768 -562 807 -535 825 c 4
 -505 841 -472 848 -431 848 c 4
 -387 848 -346 832 -305 806 c 5
 -305 896 l 5
 -223 896 l 5
-360 727 m 4
 -333 719 -308 712 -286 700 c 5
 -315 737 -369 776 -425 776 c 4
 -453 776 -495 770 -495 747 c 4
 -495 735 -473 737 -454 737 c 4
 -415 737 -393 732 -360 727 c 4
-218.146 877.593 m 1
 -298.969 877.593 l 1
 -298.969 789.618 l 1
 -318.279 802.493 -338.306 812.507 -359.048 819.658 c 0
 -379.074 826.811 -400.532 830.388 -421.988 830.388 c 0
 -460.61 830.388 -494.942 822.519 -522.837 806.784 c 0
 -536.426 799.632 -550.731 786.757 -565.035 768.876 c 0
 -578.625 751.712 -585.776 734.546 -585.776 718.095 c 0
 -585.776 710.943 -583.632 703.791 -579.34 695.924 c 0
 -575.048 688.056 -570.042 682.333 -563.605 678.043 c 0
 -556.452 671.604 -546.439 667.313 -535.711 665.169 c 0
 -524.267 663.022 -509.963 662.307 -492.082 662.307 c 0
 -484.213 663.022 -475.631 663.737 -465.617 663.737 c 0
 -457.035 663.737 -448.451 663.737 -440.584 663.737 c 0
 -424.135 663.737 -407.684 662.307 -390.519 659.445 c 0
 -373.353 656.585 -357.618 653.01 -342.598 648.718 c 0
 -320.425 642.281 -296.106 632.982 -270.358 622.254 c 0
 -244.61 611.524 -220.293 598.65 -197.405 582.916 c 1
 -197.405 607.234 -199.55 628.69 -202.412 646.571 c 0
 -205.272 664.452 -210.279 680.903 -218.146 695.924 c 1
 -218.146 877.593 l 1
-353.326 711.658 m 0
 -368.346 714.52 -383.366 717.38 -396.24 719.525 c 0
 -409.114 720.957 -425.564 722.387 -445.591 722.387 c 0
 -454.175 722.387 -462.757 722.387 -471.339 723.102 c 0
 -480.638 723.102 -484.93 725.962 -484.93 730.969 c 0
 -484.93 742.413 -477.062 750.281 -460.61 754.572 c 0
 -444.876 758.148 -429.855 760.294 -416.267 760.294 c 0
 -388.373 760.294 -362.624 752.427 -338.306 736.691 c 0
 -313.987 720.957 -294.677 703.791 -279.656 685.194 c 1
 -290.385 691.632 -301.829 695.924 -313.987 700.214 c 0
 -326.146 703.791 -339.021 708.081 -353.326 711.658 c 0
EndSplineSet
Fore
Refer: 181 3637 N 1 0 0 1 -98 0 2
EndChar

StartChar: uni0E36.left
Encoding: 131 63235 99
Width: 0
Flags: W
HStem: 678 62<-512.291 -416.906> 778 72<-485.766 -390.875> 845 60<-321.101 -266.343>
VStem: -621 104<744.5 751.5> -265 63<788.836 843.363>
LayerCount: 2
Back
SplineSet
-202 620 m 5xb0
 -224 611 l 5
 -256 633 -303 649 -350 662 c 4
 -379 669 -416 678 -450 678 c 6
 -476 678 l 6
 -486 678 -495 678 -502 677 c 4
 -539 677 -560 680 -576 693 c 4
 -587 700 -598 719 -598 732 c 4
 -598 768 -562 807 -535 825 c 4
 -505 841 -472 848 -431 848 c 4xd0
 -413 848 -395 845 -376 839 c 5
 -363 873 -330 896 -291 896 c 4
 -243 896 -202 855 -202 807 c 4
 -202 779 -214 756 -237 737 c 5
 -214 703 -202 664 -202 620 c 5xb0
-360 727 m 4
 -333 719 -308 712 -286 700 c 5
 -315 737 -369 776 -425 776 c 4
 -453 776 -495 770 -495 747 c 4
 -495 735 -473 737 -454 737 c 4
 -415 737 -393 732 -360 727 c 4
-321 807 m 4
 -321 791 -308 779 -291 779 c 4
 -275 779 -265 791 -265 807 c 4
 -265 825 -275 838 -291 838 c 4xb0
 -308 838 -321 825 -321 807 c 4
-197.405 606.518 m 1
 -197.405 650.148 -209.563 688.771 -233.167 722.387 c 1
 -209.563 739.553 -197.405 762.44 -197.405 791.049 c 0
 -197.405 814.651 -206.702 834.678 -223.868 851.844 c 0
 -241.749 869.01 -262.49 877.593 -285.378 877.593 c 0
 -303.976 877.593 -321.14 872.586 -336.16 861.857 c 0
 -351.18 851.844 -362.624 838.255 -369.061 821.804 c 1
 -386.941 827.525 -404.107 830.388 -421.988 830.388 c 0
 -460.61 830.388 -494.942 822.519 -522.837 806.784 c 0
 -536.426 799.632 -550.731 786.757 -565.035 768.876 c 0
 -578.625 751.712 -585.776 734.546 -585.776 718.095 c 0
 -585.776 710.943 -583.632 703.791 -579.34 695.924 c 0
 -575.048 688.056 -570.042 682.333 -563.605 678.043 c 0
 -556.452 671.604 -546.439 667.313 -535.711 665.169 c 0
 -524.267 663.022 -509.963 662.307 -492.082 662.307 c 0
 -484.213 663.022 -475.631 663.737 -465.617 663.737 c 0
 -457.035 663.737 -448.451 663.737 -440.584 663.737 c 0
 -424.135 663.737 -407.684 662.307 -390.519 659.445 c 0
 -373.353 656.585 -357.618 653.01 -342.598 648.718 c 0
 -320.425 642.281 -298.252 634.412 -276.081 626.545 c 0
 -253.908 617.963 -235.312 608.664 -219.576 597.936 c 1
 -197.405 606.518 l 1
-353.326 711.658 m 0
 -368.346 714.52 -383.366 717.38 -396.24 719.525 c 0
 -409.114 720.957 -425.564 722.387 -445.591 722.387 c 0
 -454.175 722.387 -462.757 722.387 -471.339 723.102 c 0
 -480.638 723.102 -484.93 725.962 -484.93 730.969 c 0
 -484.93 742.413 -477.062 750.281 -460.61 754.572 c 0
 -444.876 758.148 -429.855 760.294 -416.267 760.294 c 0
 -388.373 760.294 -362.624 752.427 -338.306 736.691 c 0
 -313.987 720.957 -294.677 703.791 -279.656 685.194 c 1
 -290.385 691.632 -301.829 695.924 -313.987 700.214 c 0
 -326.146 703.791 -339.021 708.081 -353.326 711.658 c 0
-313.272 791.049 m 0
 -313.272 798.916 -311.126 805.354 -305.405 811.791 c 0
 -299.684 817.512 -293.246 820.374 -285.378 820.374 c 0
 -277.511 820.374 -271.789 817.512 -266.782 811.791 c 0
 -261.775 805.354 -258.915 798.916 -258.915 791.049 c 0
 -258.915 783.182 -261.775 776.744 -266.782 771.022 c 0
 -271.789 766.016 -277.511 763.155 -285.378 763.155 c 0
 -293.246 763.155 -299.684 766.016 -305.405 771.022 c 0
 -311.126 776.744 -313.272 783.182 -313.272 791.049 c 0
EndSplineSet
Fore
Refer: 182 3638 N 1 0 0 1 -98 0 2
EndChar

StartChar: uni0E37.left
Encoding: 132 63236 100
Width: 0
Flags: W
HStem: 678 60<-511.785 -419.458> 776 72<-487.086 -400.292>
VStem: -621 104<724.107 767.793> -395 68<842 896> -296 71<792 896>
LayerCount: 2
Back
SplineSet
-431 848 m 6
 -407 847 l 5
 -384 842 l 5
 -384 896 l 5
 -318 896 l 5
 -318 814 l 5
 -312 810 -308 807 -306 806 c 6
 -289 792 l 5
 -289 896 l 5
 -223 896 l 5
 -223 710 l 5
 -207 681 -202 645 -202 595 c 5
 -249 627 -303 649 -350 662 c 4
 -379 669 -416 678 -450 678 c 4
 -467 678 -486 677 -502 677 c 4
 -539 677 -558 681 -576 693 c 4
 -587 700 -598 719 -598 732 c 4
 -598 768 -562 807 -535 825 c 4
 -505 841 -472 853 -431 848 c 6
-360 727 m 4
 -333 719 -308 712 -286 700 c 5
 -315 737 -369 776 -425 776 c 4
 -453 776 -495 770 -495 747 c 4
 -495 735 -473 737 -454 737 c 4
 -415 737 -393 734 -360 727 c 4
-421.988 830.388 m 2
 -441.3 832.532 -459.896 831.103 -477.062 826.096 c 0
 -494.227 821.089 -509.246 814.651 -522.837 806.784 c 0
 -536.426 799.632 -550.731 786.757 -565.035 768.876 c 0
 -578.625 751.712 -585.776 734.546 -585.776 718.095 c 0
 -585.776 710.943 -583.632 703.791 -579.34 695.924 c 0
 -575.048 688.056 -570.042 682.333 -563.605 678.043 c 0
 -555.021 672.319 -545.725 668.029 -534.995 665.884 c 0
 -524.267 663.022 -509.963 662.307 -492.082 662.307 c 0
 -484.213 662.307 -475.631 662.307 -466.332 663.022 c 0
 -457.035 663.022 -448.451 663.737 -440.584 663.737 c 0
 -424.135 663.737 -407.684 662.307 -390.519 659.445 c 0
 -373.353 656.585 -357.618 653.01 -342.598 648.718 c 0
 -320.425 642.281 -296.106 632.982 -270.358 622.254 c 0
 -244.61 611.524 -220.293 598.65 -197.405 582.916 c 1
 -197.405 607.234 -199.55 628.69 -202.412 646.571 c 0
 -205.272 664.452 -210.279 680.903 -218.146 695.924 c 1
 -218.146 877.593 l 1
 -282.518 877.593 l 1
 -282.518 776.029 l 1
 -300.398 789.618 l 2
 -302.544 791.764 -306.12 794.625 -311.843 798.202 c 1
 -311.843 877.593 l 1
 -376.213 877.593 l 1
 -376.213 824.665 l 1
 -398.386 828.957 l 1
 -421.988 830.388 l 2
-353.326 711.658 m 0
 -368.346 715.95 -383.366 718.811 -396.24 720.24 c 0
 -409.114 721.672 -425.564 722.387 -445.591 722.387 c 0
 -454.175 722.387 -462.757 722.387 -471.339 723.102 c 0
 -480.638 723.102 -484.93 725.962 -484.93 730.969 c 0
 -484.93 742.413 -477.062 750.281 -460.61 754.572 c 0
 -444.876 758.148 -429.855 760.294 -416.267 760.294 c 0
 -388.373 760.294 -362.624 752.427 -338.306 736.691 c 0
 -313.987 720.957 -294.677 703.791 -279.656 685.194 c 1
 -290.385 691.632 -301.829 695.924 -313.987 700.214 c 0
 -326.146 703.791 -339.021 708.081 -353.326 711.658 c 0
EndSplineSet
Fore
Refer: 183 3639 N 1 0 0 1 -98 0 2
EndChar

StartChar: ellipsis
Encoding: 133 8230 101
Width: 998
Flags: W
HStem: -13 170<111.188 220.812 444.722 554.485 778.129 887.485>
VStem: 82 168<14.032 126.836> 415 169<15.2109 126.509> 749 168<15.2109 126.509>
CounterMasks: 1 70
LayerCount: 2
Back
SplineSet
452.743 47.2051 m 0
 452.743 15.7354 430.57 -2.86133 386.941 -8.58301 c 1
 344.027 -8.58301 320.425 9.29785 316.133 45.0596 c 1
 316.133 84.3975 339.021 103.709 385.512 103.709 c 0
 405.537 103.709 422.703 97.9873 434.862 86.543 c 0
 447.021 76.5303 452.743 63.6562 452.743 47.2051 c 0
666.599 47.2051 m 0
 666.599 15.7354 643.711 -2.86133 599.367 -8.58301 c 1
 557.167 -8.58301 534.28 9.29785 529.988 45.0596 c 1
 529.988 84.3975 552.876 103.709 597.936 103.709 c 0
 617.248 103.709 634.412 97.9873 648.718 86.543 c 0
 659.445 76.5303 665.169 63.6562 666.599 47.2051 c 0
240.318 47.2051 m 0
 240.318 10.0137 217.432 -8.58301 171.657 -8.58301 c 0
 126.597 -8.58301 103.709 10.0137 103.709 47.2051 c 0
 103.709 85.1133 126.597 103.709 171.657 103.709 c 0
 217.432 103.709 240.318 85.1133 240.318 47.2051 c 0
EndSplineSet
Fore
SplineSet
166 157 m 0
 212 157 250 117 250 70 c 0
 250 23 212 -13 166 -13 c 0
 119 -13 82 23 82 72 c 0
 82 117 120 157 166 157 c 0
499 157 m 0
 546 157 584 117 584 70 c 0
 584 23 546 -13 498 -13 c 0
 451 -13 415 23 415 72 c 0
 415 117 453 157 499 157 c 0
832 157 m 0
 879 157 917 117 917 70 c 0
 917 23 879 -13 831 -13 c 0
 784 -13 749 23 749 72 c 0
 749 117 787 157 832 157 c 0
EndSplineSet
EndChar

StartChar: uni0E48.low_left
Encoding: 134 63237 102
Width: 0
Flags: W
HStem: 625 228<-278.183 -251.15>
VStem: -309 91<787.2 853>
LayerCount: 2
Back
SplineSet
-233 867 m 5x80
 -237 773 l 5
 -250 662 l 5
 -252 650 -270 640 -280 640 c 4
 -293 640 -308 650 -309 662 c 5
 -321 775 l 5x40
 -324 867 l 5
 -233 867 l 5x80
-228.16 849.698 m 1
 -233.167 757.434 l 1
 -244.61 648.718 l 1
 -245.324 642.996 -249.616 637.989 -256.055 633.697 c 0
 -263.207 629.407 -268.929 627.261 -273.936 627.261 c 0
 -281.088 627.261 -286.81 629.407 -293.246 633.697 c 0
 -298.969 637.989 -302.544 642.996 -303.259 648.718 c 1
 -313.272 758.863 l 1
 -316.133 849.698 l 1
 -228.16 849.698 l 1
EndSplineSet
Fore
Refer: 107 63242 N 1 0 0 1 -98 0 2
EndChar

StartChar: uni0E49.low_left
Encoding: 135 63238 103
Width: 0
Flags: W
HStem: 826 37<-414.984 -371.938>
VStem: -464 44<733.232 824.984> -368 46<742.644 814.874> -246 92<753.181 863>
LayerCount: 2
Back
SplineSet
-202 863 m 5
 -202 784 -227 724 -280 683 c 4
 -324 647 -371 627 -432 627 c 6
 -519 627 l 5
 -519 675 l 5
 -495 677 -476 684 -460 697 c 5
 -495 705 -513 732 -513 781 c 4
 -513 822 -485 863 -442 863 c 4
 -403 863 -371 825 -371 782 c 4
 -371 741 -381 710 -401 686 c 5
 -369 691 -346 706 -330 731 c 5
 -306 760 -294 804 -294 863 c 5
 -202 863 l 5
-469 779 m 4
 -469 754 -457 732 -441 732 c 4
 -425 732 -416 754 -416 779 c 4
 -416 804 -425 826 -441 826 c 4
 -457 826 -469 804 -469 779 c 4
-197.405 845.406 m 1
 -288.239 845.406 l 1
 -288.239 787.474 -299.684 744.56 -322.571 715.95 c 1
 -337.591 691.632 -361.193 676.611 -392.663 670.891 c 1
 -373.353 695.207 -363.339 726.679 -363.339 766.016 c 0
 -363.339 786.757 -369.775 804.638 -384.081 821.089 c 0
 -397.67 836.824 -414.121 845.406 -433.432 845.406 c 0
 -454.175 845.406 -470.624 836.824 -483.498 819.658 c 0
 -496.372 802.493 -502.094 783.896 -502.094 764.586 c 0
 -502.094 718.095 -485.645 690.2 -451.312 682.333 c 1
 -465.617 670.176 -484.93 662.307 -508.531 660.877 c 1
 -508.531 613.671 l 1
 -423.418 613.671 l 2
 -393.379 613.671 -366.2 618.678 -341.882 628.69 c 0
 -318.279 637.989 -295.392 651.578 -273.936 668.029 c 0
 -223.153 708.798 -197.405 768.162 -197.405 845.406 c 1
-458.465 763.155 m 0
 -458.465 776.029 -456.319 786.757 -451.312 795.341 c 0
 -446.307 803.923 -439.869 808.215 -432.002 808.215 c 0
 -424.135 808.215 -418.413 803.923 -414.121 795.341 c 0
 -409.114 786.757 -406.969 776.029 -406.969 763.155 c 0
 -406.969 750.281 -409.114 739.553 -414.121 730.969 c 0
 -418.413 722.387 -424.135 718.095 -432.002 718.095 c 0
 -439.869 718.095 -446.307 722.387 -451.312 730.969 c 0
 -456.319 739.553 -458.465 750.281 -458.465 763.155 c 0
EndSplineSet
Fore
Refer: 108 63243 N 1 0 0 1 -98 0 2
EndChar

StartChar: uni0E4A.low_left
Encoding: 136 63239 104
Width: 0
Flags: W
HStem: 620 36<-512.348 -465.186> 768 54<-452 -430.77 -364.491 -323.926>
VStem: -560 45<656.718 726.794> -463 45<656.71 728.333> -415 47<710 764.856> -258 86<743.82 825>
LayerCount: 2
Back
SplineSet
-196 825 m 5
 -196 686 -267 617 -406 617 c 5
 -406 664 l 5
 -374 671 -346 700 -346 728 c 4
 -346 754 -354 768 -371 768 c 4
 -385 768 -394 749 -394 710 c 5
 -439 710 l 5
 -439 749 -451 768 -476 768 c 5
 -456 757 -442 734 -442 693 c 4
 -442 661 -460 620 -513 620 c 4
 -554 620 -584 659 -584 700 c 4
 -584 722 -582 741 -571 762 c 4
 -555 791 -527 822 -476 822 c 4
 -456 822 -438 813 -422 797 c 5
 -410 810 -393 822 -374 822 c 4
 -318 822 -287 794 -283 741 c 5
 -283 785 l 5
 -286 825 l 5
 -196 825 l 5
-541 693 m 4
 -541 669 -527 656 -511 656 c 4
 -495 656 -488 669 -488 693 c 4
 -488 715 -495 729 -511 729 c 4
 -527 729 -541 715 -541 693 c 4
-191.683 806.784 m 1
 -279.656 806.784 l 1
 -276.796 768.876 l 1
 -276.796 726.679 l 1
 -281.803 778.175 -311.843 803.923 -366.2 803.923 c 0
 -374.782 803.923 -383.366 801.777 -391.948 797.487 c 0
 -399.815 793.195 -406.969 787.474 -413.406 781.036 c 1
 -428.425 796.056 -446.307 803.923 -465.617 803.923 c 0
 -491.365 803.923 -511.393 798.202 -525.697 786.042 c 0
 -540.718 773.883 -551.446 760.294 -559.313 745.274 c 0
 -564.32 735.976 -567.896 725.962 -570.042 715.95 c 0
 -571.473 706.651 -572.902 695.924 -572.902 685.194 c 0
 -572.902 665.884 -565.75 648.003 -552.161 631.552 c 0
 -538.572 614.387 -522.121 606.518 -502.094 606.518 c 0
 -477.062 606.518 -459.181 614.387 -449.168 630.837 c 0
 -438.438 646.571 -433.432 662.307 -433.432 678.043 c 0
 -433.432 698.784 -436.294 714.52 -442.015 726.679 c 0
 -448.451 738.121 -456.319 746.705 -465.617 751.712 c 1
 -442.015 751.712 -430.57 733.115 -430.57 695.924 c 1
 -385.512 695.924 l 1
 -385.512 733.115 -377.643 751.712 -363.339 751.712 c 0
 -346.888 751.712 -338.306 738.838 -338.306 713.088 c 0
 -338.306 699.499 -344.027 686.625 -356.187 674.466 c 0
 -367.631 662.307 -381.22 654.439 -396.955 650.148 c 1
 -396.955 603.657 l 1
 -260.345 603.657 -191.683 671.604 -191.683 806.784 c 1
-528.559 678.043 m 0
 -528.559 688.771 -526.412 698.068 -520.691 704.506 c 0
 -515.685 711.658 -508.531 714.52 -500.664 714.52 c 0
 -492.797 714.52 -487.075 711.658 -483.498 704.506 c 0
 -479.206 698.068 -477.776 688.771 -477.776 678.043 c 0
 -477.776 667.313 -479.206 658.73 -483.498 652.293 c 0
 -487.075 646.571 -492.797 642.996 -500.664 642.996 c 0
 -508.531 642.996 -515.685 646.571 -520.691 652.293 c 0
 -526.412 658.73 -528.559 667.313 -528.559 678.043 c 0
EndSplineSet
Fore
Refer: 109 63244 N 1 0 0 1 -128 0 2
EndChar

StartChar: uni0E4B.low_left
Encoding: 137 63240 105
Width: 0
Flags: W
HStem: 688 21<-358.238 -272.286> 772 67<-443 -363 -267 -189>
VStem: -363 96<839 881.5 881.5 924>
LayerCount: 2
Back
SplineSet
-393 863 m 5
 -289 863 l 5
 -291 779 l 5
 -214 779 l 5
 -214 712 l 5
 -294 712 l 5
 -299 627 l 5
 -382 627 l 5
 -385 712 l 5
 -467 712 l 5
 -467 779 l 5
 -387 779 l 5
 -393 863 l 5
-384.081 845.406 m 1
 -379.074 763.155 l 1
 -457.035 763.155 l 1
 -457.035 697.354 l 1
 -377.643 697.354 l 1
 -374.782 613.671 l 1
 -293.246 613.671 l 1
 -288.239 697.354 l 1
 -209.563 697.354 l 1
 -209.563 763.155 l 1
 -285.378 763.155 l 1
 -282.518 845.406 l 1
 -384.081 845.406 l 1
EndSplineSet
Fore
Refer: 110 63245 N 1 0 0 1 -113 0 2
EndChar

StartChar: uni0E4C.low_left
Encoding: 138 63241 106
Width: 0
Flags: W
HStem: 609 40<-350.7 -304.836>
VStem: -427 72<650.726 747.836> -301 49<649.755 737.116> -239 82<853.983 900.469>
LayerCount: 2
Back
SplineSet
-230 811 m 4
 -250 804 -271 795 -287 785 c 5
 -265 772 -253 746 -253 705 c 4
 -253 649 -284 609 -334 609 c 4
 -388 609 -429 652 -429 706 c 4
 -429 776 -378 806 -289 844 c 4
 -275 848 -239 861 -239 877 c 4
 -239 889 -240 898 -245 908 c 5
 -160 927 l 5
 -158 918 -157 911 -157 907 c 6
 -157 892 l 6
 -157 857 -176 835 -230 811 c 4
-356 697 m 4
 -356 668 -347 649 -330 649 c 4
 -311 649 -300 668 -300 697 c 4
 -300 725 -309 749 -330 749 c 4
 -347 749 -356 725 -356 697 c 4
-225.3 795.341 m 0
 -199.55 806.069 -180.954 817.512 -170.226 829.672 c 0
 -159.498 841.831 -153.774 856.136 -153.774 873.301 c 0
 -153.774 877.593 -153.774 882.6 -153.774 887.605 c 0
 -153.774 892.612 -154.491 899.051 -156.637 908.348 c 1
 -240.318 889.037 l 1
 -238.174 884.03 -236.742 879.023 -236.027 874.731 c 0
 -234.597 869.725 -234.597 864.719 -234.597 859.712 c 0
 -234.597 851.844 -241.034 844.691 -253.193 838.255 c 0
 -266.067 832.532 -276.081 828.242 -282.518 826.096 c 0
 -326.863 807.5 -360.479 788.903 -384.796 770.308 c 0
 -408.399 751.712 -420.558 725.247 -420.558 691.632 c 0
 -420.558 665.169 -411.26 642.281 -394.094 623.684 c 0
 -376.213 605.803 -354.041 596.506 -326.863 596.506 c 0
 -302.544 596.506 -283.232 605.088 -268.929 622.254 c 0
 -254.623 640.135 -247.471 662.307 -247.471 690.2 c 0
 -247.471 728.824 -258.915 755.287 -281.088 768.876 c 1
 -273.219 773.883 -264.637 778.89 -254.623 783.182 c 0
 -245.324 787.474 -235.312 791.764 -225.3 795.341 c 0
-348.319 682.333 m 0
 -348.319 695.924 -346.173 708.081 -341.882 718.095 c 0
 -337.591 727.394 -331.153 732.4 -322.571 732.4 c 0
 -312.558 732.4 -305.405 727.394 -301.113 718.095 c 0
 -296.822 708.081 -294.677 695.924 -294.677 682.333 c 0
 -294.677 668.744 -296.822 658.016 -301.829 648.718 c 0
 -306.836 640.135 -313.272 635.844 -322.571 635.844 c 0
 -331.153 635.844 -337.591 640.135 -341.882 648.718 c 0
 -346.173 658.016 -348.319 668.744 -348.319 682.333 c 0
EndSplineSet
Fore
Refer: 111 63246 N 1 0 0 1 -40 0 2
EndChar

StartChar: uni0E48.low
Encoding: 139 63242 107
Width: 0
Flags: W
HStem: 625 228<-180.183 -153.15>
VStem: -211 91<787.2 853>
AnchorPoint: "AboveBase" -104 593 mark 0
LayerCount: 2
Back
SplineSet
-117.299 834.678 m 1
 -121.59 742.413 l 1
 -133.033 634.412 l 1
 -135.18 628.69 -139.471 622.969 -145.908 618.678 c 0
 -152.345 614.387 -158.066 612.241 -162.358 612.241 c 0
 -169.511 612.241 -175.947 614.387 -181.669 618.678 c 0
 -187.392 622.969 -190.968 628.69 -191.683 634.412 c 1
 -202.412 743.843 l 1
 -206.702 834.678 l 1
 -117.299 834.678 l 1
EndSplineSet
Fore
SplineSet
-120 853 m 1
 -125 759 l 1
 -136 647 l 2
 -137 635 -155 625 -166 625 c 0
 -180 625 -195 636 -196 647 c 2
 -207 760 l 1
 -211 853 l 1
 -120 853 l 1
EndSplineSet
EndChar

StartChar: uni0E49.low
Encoding: 140 63243 108
Width: 0
Flags: MW
HStem: 826 37<-316.984 -273.938>
VStem: -366 44<733.232 824.984> -270 46<742.644 814.874> -148 92<753.181 863>
AnchorPoint: "AboveBase" -104 593 mark 0
LayerCount: 2
Back
SplineSet
-54.3574 845.406 m 1
 -145.192 845.406 l 1
 -145.192 787.474 -155.921 744.56 -178.809 715.95 c 1
 -194.543 691.632 -217.432 676.611 -248.901 670.891 c 1
 -229.59 695.207 -219.576 726.679 -219.576 766.016 c 0
 -219.576 786.757 -226.729 804.638 -240.318 821.089 c 0
 -253.908 836.824 -270.358 845.406 -290.385 845.406 c 0
 -310.412 845.406 -326.863 836.824 -339.737 819.658 c 0
 -352.611 802.493 -359.048 783.896 -359.048 764.586 c 0
 -359.048 718.095 -341.882 690.2 -307.551 682.333 c 1
 -322.571 670.176 -341.167 662.307 -364.769 660.877 c 1
 -364.769 613.671 l 1
 -279.656 613.671 l 2
 -249.616 613.671 -222.438 618.678 -198.835 628.69 c 0
 -174.518 637.989 -151.63 651.578 -130.173 668.029 c 0
 -79.3906 708.798 -54.3574 768.162 -54.3574 845.406 c 1
-314.703 763.155 m 0
 -314.703 776.029 -312.558 786.757 -307.551 795.341 c 0
 -302.544 803.923 -296.106 808.215 -288.239 808.215 c 0
 -281.088 808.215 -274.65 803.923 -270.358 795.341 c 0
 -266.067 786.757 -263.922 776.029 -263.922 763.155 c 0
 -263.922 750.281 -266.067 739.553 -270.358 730.969 c 0
 -274.65 722.387 -281.088 718.095 -288.239 718.095 c 0
 -296.106 718.095 -302.544 722.387 -307.551 730.969 c 0
 -312.558 739.553 -314.703 750.281 -314.703 763.155 c 0
EndSplineSet
Fore
SplineSet
-56 863 m 1
 -56 784 -81 724 -133 683 c 0
 -176 647 -224 627 -286 627 c 2
 -372 627 l 1
 -372 675 l 1
 -349 677 -330 684 -313 697 c 1
 -349 705 -366 732 -366 781 c 0
 -366 822 -338 863 -296 863 c 0
 -256 863 -224 825 -224 782 c 0
 -224 741 -234 710 -255 686 c 1
 -223 691 -199 706 -183 731 c 0
 -160 760 -148 804 -148 863 c 1
 -56 863 l 1
-322 779 m 0
 -322 754 -311 732 -294 732 c 0
 -278 732 -270 754 -270 779 c 0
 -270 804 -278 826 -294 826 c 0
 -311 826 -322 804 -322 779 c 0
EndSplineSet
EndChar

StartChar: uni0E4A.low
Encoding: 141 63244 109
Width: 0
Flags: MW
HStem: 620 36<-384.348 -337.186> 768 54<-324 -302.77 -236.491 -195.926>
VStem: -432 45<656.718 726.794> -335 45<656.71 728.333> -287 47<710 764.856> -130 86<743.82 825>
AnchorPoint: "AboveBase" -74 593 mark 0
LayerCount: 2
Back
SplineSet
-42.1992 806.784 m 1
 -130.173 806.784 l 1
 -127.312 768.876 l 1
 -127.312 726.679 l 1
 -132.318 778.175 -162.358 803.923 -216.716 803.923 c 0
 -225.3 803.923 -233.882 801.777 -242.464 797.487 c 0
 -251.048 793.195 -257.484 787.474 -263.922 781.036 c 1
 -278.941 796.056 -296.822 803.923 -316.133 803.923 c 0
 -341.882 803.923 -361.908 798.202 -376.213 786.042 c 0
 -391.233 773.883 -402.677 760.294 -409.829 745.274 c 0
 -414.836 735.976 -418.413 725.962 -420.558 715.95 c 0
 -422.703 706.651 -423.418 695.924 -423.418 685.194 c 0
 -423.418 665.884 -416.267 648.003 -402.677 631.552 c 0
 -389.088 614.387 -372.638 606.518 -353.326 606.518 c 0
 -327.577 606.518 -309.697 614.387 -299.684 630.837 c 0
 -288.955 646.571 -283.948 662.307 -283.948 678.043 c 0
 -283.948 698.784 -286.81 714.52 -293.246 726.679 c 0
 -298.969 738.121 -306.836 746.705 -316.133 751.712 c 1
 -293.246 751.712 -281.088 733.115 -281.088 695.924 c 1
 -236.027 695.924 l 1
 -236.027 733.115 -228.16 751.712 -213.854 751.712 c 0
 -197.405 751.712 -188.821 738.838 -188.821 713.088 c 0
 -188.821 699.499 -194.543 686.625 -206.702 674.466 c 0
 -218.146 662.307 -231.735 654.439 -247.471 650.148 c 1
 -247.471 603.657 l 1
 -110.861 603.657 -42.1992 671.604 -42.1992 806.784 c 1
-379.074 678.043 m 0
 -379.074 688.771 -376.928 698.068 -371.207 704.506 c 0
 -366.2 711.658 -359.048 714.52 -351.895 714.52 c 0
 -344.027 714.52 -337.591 711.658 -334.014 704.506 c 0
 -329.724 698.068 -328.292 688.771 -328.292 678.043 c 0
 -328.292 667.313 -329.724 658.73 -334.014 652.293 c 0
 -337.591 646.571 -344.027 642.996 -351.895 642.996 c 0
 -359.048 642.996 -366.2 646.571 -371.207 652.293 c 0
 -376.928 658.73 -379.074 667.313 -379.074 678.043 c 0
EndSplineSet
Fore
SplineSet
-432 700 m 0
 -432 782 -378 822 -324 822 c 0
 -303 822 -286 813 -270 797 c 1
 -258 810 -239 822 -221 822 c 0
 -166 822 -135 794 -130 741 c 1
 -130 785 l 1
 -133 825 l 1
 -44 825 l 1
 -44 686 -114 617 -253 617 c 1
 -253 664 l 1
 -221 671 -193 700 -193 728 c 0
 -193 754 -202 768 -218 768 c 0
 -233 768 -240 749 -240 710 c 1
 -287 710 l 1
 -287 749 -299 768 -324 768 c 1
 -303 757 -290 734 -290 693 c 0
 -290 661 -308 620 -360 620 c 0
 -401 620 -432 659 -432 700 c 0
-387 693 m 0
 -387 669 -375 656 -359 656 c 0
 -343 656 -335 669 -335 693 c 0
 -335 715 -343 729 -359 729 c 0
 -375 729 -387 715 -387 693 c 0
EndSplineSet
EndChar

StartChar: uni0E4B.low
Encoding: 142 63245 110
Width: 0
Flags: W
HStem: 688 21G<-245.238 -159.286> 772 67<-330 -250 -154 -76>
VStem: -250 96<839 881.5 881.5 924>
AnchorPoint: "AboveBase" -89 593 mark 0
LayerCount: 2
Back
SplineSet
-248.901 905.486 m 1
 -244.61 821.804 l 1
 -322.571 821.804 l 1
 -322.571 756.002 l 1
 -241.749 756.002 l 1
 -240.318 673.751 l 1
 -156.637 673.751 l 1
 -153.774 756.002 l 1
 -74.3848 756.002 l 1
 -74.3848 821.804 l 1
 -150.914 821.804 l 1
 -148.053 905.486 l 1
 -248.901 905.486 l 1
EndSplineSet
Fore
SplineSet
-255 924 m 1
 -151 924 l 1
 -154 839 l 1
 -76 839 l 1
 -76 772 l 1
 -157 772 l 1
 -160 688 l 1
 -245 688 l 1
 -246 772 l 1
 -330 772 l 1
 -330 839 l 1
 -250 839 l 1
 -255 924 l 1
EndSplineSet
EndChar

StartChar: uni0E4C.low
Encoding: 143 63246 111
Width: 0
Flags: W
HStem: 609 40<-310.7 -264.836>
VStem: -387 72<650.726 747.836> -261 49<649.755 737.116> -199 82<853.983 900.469>
AnchorPoint: "AboveBase" -162 593 mark 0
LayerCount: 2
Back
SplineSet
-185.961 795.341 m 0
 -159.498 806.069 -140.901 817.512 -130.173 829.672 c 0
 -119.444 841.831 -114.438 856.136 -114.438 873.301 c 0
 -114.438 876.878 -114.438 881.168 -114.438 886.175 c 0
 -114.438 891.897 -115.152 899.051 -117.299 908.348 c 1
 -200.98 889.037 l 1
 -198.835 884.03 -197.405 879.023 -195.975 874.017 c 0
 -195.26 868.294 -194.543 863.287 -194.543 858.282 c 0
 -194.543 850.413 -200.98 843.977 -213.854 837.539 c 0
 -226.729 831.817 -236.027 827.525 -241.749 824.665 c 0
 -286.81 806.784 -321.14 788.903 -344.027 770.308 c 0
 -367.631 751.712 -379.074 725.247 -379.074 691.632 c 0
 -379.074 665.169 -370.492 642.281 -353.326 623.684 c 0
 -335.445 605.803 -313.272 596.506 -286.81 596.506 c 0
 -262.49 596.506 -243.181 605.088 -229.59 622.254 c 0
 -215.286 640.135 -208.134 662.307 -208.134 690.2 c 0
 -208.134 728.108 -218.861 754.572 -240.318 768.876 c 1
 -232.45 773.883 -223.868 778.89 -214.569 783.182 c 0
 -205.272 787.474 -195.975 791.764 -185.961 795.341 c 0
-308.982 682.333 m 0
 -308.982 695.924 -306.836 708.081 -301.829 718.095 c 0
 -296.822 727.394 -290.385 732.4 -281.088 732.4 c 0
 -271.789 732.4 -264.637 727.394 -261.062 718.095 c 0
 -256.77 708.081 -254.623 695.924 -254.623 682.333 c 0
 -254.623 668.744 -257.484 658.016 -262.49 648.718 c 0
 -266.782 640.135 -273.219 635.844 -281.088 635.844 c 0
 -290.385 635.844 -296.822 640.135 -301.829 648.718 c 0
 -306.836 658.016 -308.982 668.744 -308.982 682.333 c 0
EndSplineSet
Fore
SplineSet
-117 892 m 2
 -117 825 -195 816 -245 785 c 1
 -223 770 -212 743 -212 705 c 0
 -212 649 -243 609 -293 609 c 0
 -347 609 -387 652 -387 706 c 0
 -387 832 -199 834 -199 876 c 0
 -199 888 -201 898 -205 908 c 1
 -120 927 l 1
 -119 918 -117 911 -117 905 c 2
 -117 892 l 2
-315 697 m 0
 -315 668 -305 649 -287 649 c 0
 -271 649 -261 668 -261 697 c 0
 -261 725 -268 749 -287 749 c 0
 -305 749 -315 725 -315 697 c 0
EndSplineSet
EndChar

